<svg id="Ebene_1" data-name="Ebene 1" xmlns="http://www.w3.org/2000/svg" xmlns:xlink="http://www.w3.org/1999/xlink" viewBox="0 0 1920 385"><defs><style>.cls-1,.cls-10,.cls-100,.cls-101,.cls-102,.cls-103,.cls-11,.cls-12,.cls-13,.cls-14,.cls-15,.cls-16,.cls-17,.cls-18,.cls-19,.cls-2,.cls-20,.cls-21,.cls-22,.cls-23,.cls-24,.cls-25,.cls-27,.cls-28,.cls-29,.cls-3,.cls-30,.cls-31,.cls-32,.cls-33,.cls-34,.cls-35,.cls-36,.cls-37,.cls-38,.cls-39,.cls-4,.cls-40,.cls-41,.cls-42,.cls-43,.cls-44,.cls-45,.cls-46,.cls-47,.cls-48,.cls-49,.cls-5,.cls-50,.cls-51,.cls-53,.cls-54,.cls-55,.cls-56,.cls-57,.cls-58,.cls-59,.cls-6,.cls-60,.cls-61,.cls-62,.cls-63,.cls-64,.cls-65,.cls-66,.cls-67,.cls-68,.cls-69,.cls-7,.cls-70,.cls-71,.cls-72,.cls-73,.cls-74,.cls-75,.cls-76,.cls-77,.cls-78,.cls-79,.cls-8,.cls-80,.cls-81,.cls-82,.cls-83,.cls-84,.cls-85,.cls-86,.cls-87,.cls-88,.cls-89,.cls-9,.cls-90,.cls-91,.cls-92,.cls-93,.cls-94,.cls-95,.cls-96,.cls-97,.cls-98,.cls-99{fill:none;}.cls-1,.cls-10,.cls-100,.cls-101,.cls-102,.cls-103,.cls-11,.cls-12,.cls-13,.cls-14,.cls-15,.cls-16,.cls-17,.cls-18,.cls-19,.cls-2,.cls-20,.cls-21,.cls-22,.cls-23,.cls-24,.cls-25,.cls-27,.cls-28,.cls-29,.cls-3,.cls-30,.cls-31,.cls-32,.cls-33,.cls-34,.cls-35,.cls-36,.cls-37,.cls-38,.cls-39,.cls-4,.cls-40,.cls-41,.cls-42,.cls-43,.cls-44,.cls-45,.cls-46,.cls-47,.cls-48,.cls-49,.cls-5,.cls-50,.cls-51,.cls-53,.cls-54,.cls-55,.cls-56,.cls-57,.cls-58,.cls-59,.cls-6,.cls-60,.cls-61,.cls-62,.cls-63,.cls-64,.cls-65,.cls-66,.cls-67,.cls-68,.cls-69,.cls-7,.cls-70,.cls-71,.cls-72,.cls-73,.cls-74,.cls-75,.cls-76,.cls-77,.cls-79,.cls-8,.cls-80,.cls-81,.cls-82,.cls-83,.cls-84,.cls-85,.cls-86,.cls-87,.cls-88,.cls-89,.cls-9,.cls-90,.cls-91,.cls-92,.cls-93,.cls-94,.cls-95,.cls-96,.cls-97,.cls-98,.cls-99{stroke-miterlimit:10;stroke-width:0.25px;}.cls-1{stroke:url(#BERD_Farbverlauf_Strich);}.cls-2{stroke:url(#BERD_Farbverlauf_Strich-2);}.cls-3{stroke:url(#BERD_Farbverlauf_Strich-3);}.cls-4{stroke:url(#BERD_Farbverlauf_Strich-4);}.cls-5{stroke:url(#BERD_Farbverlauf_Strich-5);}.cls-6{stroke:url(#BERD_Farbverlauf_Strich-6);}.cls-7{stroke:url(#BERD_Farbverlauf_Strich-7);}.cls-8{stroke:url(#BERD_Farbverlauf_Strich-8);}.cls-9{stroke:url(#BERD_Farbverlauf_Strich-9);}.cls-10{stroke:url(#BERD_Farbverlauf_Strich-10);}.cls-11{stroke:url(#BERD_Farbverlauf_Strich-11);}.cls-12{stroke:url(#BERD_Farbverlauf_Strich-12);}.cls-13{stroke:url(#BERD_Farbverlauf_Strich-13);}.cls-14{stroke:url(#BERD_Farbverlauf_Strich-14);}.cls-15{stroke:url(#BERD_Farbverlauf_Strich-15);}.cls-16{stroke:url(#BERD_Farbverlauf_Strich-16);}.cls-17{stroke:url(#BERD_Farbverlauf_Strich-17);}.cls-18{stroke:url(#BERD_Farbverlauf_Strich-18);}.cls-19{stroke:url(#BERD_Farbverlauf_Strich-19);}.cls-20{stroke:url(#BERD_Farbverlauf_Strich-20);}.cls-21{stroke:url(#BERD_Farbverlauf_Strich-21);}.cls-22{stroke:url(#BERD_Farbverlauf_Strich-22);}.cls-23{stroke:url(#BERD_Farbverlauf_Strich-23);}.cls-24{stroke:url(#BERD_Farbverlauf_Strich-24);}.cls-25{stroke:url(#BERD_Farbverlauf_Strich-25);}.cls-26{opacity:0.4;}.cls-27{stroke:url(#BERD_Farbverlauf_Strich-26);}.cls-28{stroke:url(#BERD_Farbverlauf_Strich-27);}.cls-29{stroke:url(#BERD_Farbverlauf_Strich-28);}.cls-30{stroke:url(#BERD_Farbverlauf_Strich-29);}.cls-31{stroke:url(#BERD_Farbverlauf_Strich-30);}.cls-32{stroke:url(#BERD_Farbverlauf_Strich-31);}.cls-33{stroke:url(#BERD_Farbverlauf_Strich-32);}.cls-34{stroke:url(#BERD_Farbverlauf_Strich-33);}.cls-35{stroke:url(#BERD_Farbverlauf_Strich-34);}.cls-36{stroke:url(#BERD_Farbverlauf_Strich-35);}.cls-37{stroke:url(#BERD_Farbverlauf_Strich-36);}.cls-38{stroke:url(#BERD_Farbverlauf_Strich-37);}.cls-39{stroke:url(#BERD_Farbverlauf_Strich-38);}.cls-40{stroke:url(#BERD_Farbverlauf_Strich-39);}.cls-41{stroke:url(#BERD_Farbverlauf_Strich-40);}.cls-42{stroke:url(#BERD_Farbverlauf_Strich-41);}.cls-43{stroke:url(#BERD_Farbverlauf_Strich-42);}.cls-44{stroke:url(#BERD_Farbverlauf_Strich-43);}.cls-45{stroke:url(#BERD_Farbverlauf_Strich-44);}.cls-46{stroke:url(#BERD_Farbverlauf_Strich-45);}.cls-47{stroke:url(#BERD_Farbverlauf_Strich-46);}.cls-48{stroke:url(#BERD_Farbverlauf_Strich-47);}.cls-49{stroke:url(#BERD_Farbverlauf_Strich-48);}.cls-50{stroke:url(#BERD_Farbverlauf_Strich-49);}.cls-51{stroke:url(#BERD_Farbverlauf_Strich-50);}.cls-52{opacity:0.25;}.cls-53{stroke:url(#BERD_Farbverlauf_Strich-51);}.cls-54{stroke:url(#BERD_Farbverlauf_Strich-52);}.cls-55{stroke:url(#BERD_Farbverlauf_Strich-53);}.cls-56{stroke:url(#BERD_Farbverlauf_Strich-54);}.cls-57{stroke:url(#BERD_Farbverlauf_Strich-55);}.cls-58{stroke:url(#BERD_Farbverlauf_Strich-56);}.cls-59{stroke:url(#BERD_Farbverlauf_Strich-57);}.cls-60{stroke:url(#BERD_Farbverlauf_Strich-58);}.cls-61{stroke:url(#BERD_Farbverlauf_Strich-59);}.cls-62{stroke:url(#BERD_Farbverlauf_Strich-60);}.cls-63{stroke:url(#BERD_Farbverlauf_Strich-61);}.cls-64{stroke:url(#BERD_Farbverlauf_Strich-62);}.cls-65{stroke:url(#BERD_Farbverlauf_Strich-63);}.cls-66{stroke:url(#BERD_Farbverlauf_Strich-64);}.cls-67{stroke:url(#BERD_Farbverlauf_Strich-65);}.cls-68{stroke:url(#BERD_Farbverlauf_Strich-66);}.cls-69{stroke:url(#BERD_Farbverlauf_Strich-67);}.cls-70{stroke:url(#BERD_Farbverlauf_Strich-68);}.cls-71{stroke:url(#BERD_Farbverlauf_Strich-69);}.cls-72{stroke:url(#BERD_Farbverlauf_Strich-70);}.cls-73{stroke:url(#BERD_Farbverlauf_Strich-71);}.cls-74{stroke:url(#BERD_Farbverlauf_Strich-72);}.cls-75{stroke:url(#BERD_Farbverlauf_Strich-73);}.cls-76{stroke:url(#BERD_Farbverlauf_Strich-74);}.cls-77{stroke:url(#BERD_Farbverlauf_Strich-75);}.cls-79{stroke:url(#BERD_Farbverlauf_Strich-76);}.cls-80{stroke:url(#BERD_Farbverlauf_Strich-77);}.cls-81{stroke:url(#BERD_Farbverlauf_Strich-78);}.cls-82{stroke:url(#BERD_Farbverlauf_Strich-79);}.cls-83{stroke:url(#BERD_Farbverlauf_Strich-80);}.cls-84{stroke:url(#BERD_Farbverlauf_Strich-81);}.cls-85{stroke:url(#BERD_Farbverlauf_Strich-82);}.cls-86{stroke:url(#BERD_Farbverlauf_Strich-83);}.cls-87{stroke:url(#BERD_Farbverlauf_Strich-84);}.cls-88{stroke:url(#BERD_Farbverlauf_Strich-85);}.cls-89{stroke:url(#BERD_Farbverlauf_Strich-86);}.cls-90{stroke:url(#BERD_Farbverlauf_Strich-87);}.cls-91{stroke:url(#BERD_Farbverlauf_Strich-88);}.cls-92{stroke:url(#BERD_Farbverlauf_Strich-89);}.cls-93{stroke:url(#BERD_Farbverlauf_Strich-90);}.cls-94{stroke:url(#BERD_Farbverlauf_Strich-91);}.cls-95{stroke:url(#BERD_Farbverlauf_Strich-92);}.cls-96{stroke:url(#BERD_Farbverlauf_Strich-93);}.cls-97{stroke:url(#BERD_Farbverlauf_Strich-94);}.cls-98{stroke:url(#BERD_Farbverlauf_Strich-95);}.cls-99{stroke:url(#BERD_Farbverlauf_Strich-96);}.cls-100{stroke:url(#BERD_Farbverlauf_Strich-97);}.cls-101{stroke:url(#BERD_Farbverlauf_Strich-98);}.cls-102{stroke:url(#BERD_Farbverlauf_Strich-99);}.cls-103{stroke:url(#BERD_Farbverlauf_Strich-100);}.cls-104{fill:url(#Unbenannter_Verlauf_96);}</style><linearGradient id="BERD_Farbverlauf_Strich" x1="-533.88" y1="-414.97" x2="573.85" y2="-414.97" gradientTransform="translate(1084.99 609.34) rotate(-11.15)" gradientUnits="userSpaceOnUse"><stop offset="0.13" stop-color="#32935c"/><stop offset="0.32" stop-color="#338f58"/><stop offset="0.52" stop-color="#37824b"/><stop offset="0.64" stop-color="#3a7740"/></linearGradient><linearGradient id="BERD_Farbverlauf_Strich-2" x1="-507.35" y1="-485.15" x2="540.06" y2="-354.5" xlink:href="#BERD_Farbverlauf_Strich"/><linearGradient id="BERD_Farbverlauf_Strich-3" x1="-465.38" y1="-545.39" x2="497.04" y2="-301.49" xlink:href="#BERD_Farbverlauf_Strich"/><linearGradient id="BERD_Farbverlauf_Strich-4" x1="-410.82" y1="-592.79" x2="451.58" y2="-256.01" xlink:href="#BERD_Farbverlauf_Strich"/><linearGradient id="BERD_Farbverlauf_Strich-5" x1="-347.37" y1="-624.73" x2="401.71" y2="-219.01" xlink:href="#BERD_Farbverlauf_Strich"/><linearGradient id="BERD_Farbverlauf_Strich-6" x1="-279.32" y1="-639.66" x2="347.08" y2="-192.01" xlink:href="#BERD_Farbverlauf_Strich"/><linearGradient id="BERD_Farbverlauf_Strich-7" x1="-211.4" y1="-637.05" x2="288.65" y2="-176.24" xlink:href="#BERD_Farbverlauf_Strich"/><linearGradient id="BERD_Farbverlauf_Strich-8" x1="-148.04" y1="-618.07" x2="238.63" y2="-160.96" xlink:href="#BERD_Farbverlauf_Strich"/><linearGradient id="BERD_Farbverlauf_Strich-9" x1="-93.15" y1="-585.16" x2="189.07" y2="-152.52" xlink:href="#BERD_Farbverlauf_Strich"/><linearGradient id="BERD_Farbverlauf_Strich-10" x1="-49.77" y1="-541.33" x2="138.23" y2="-156.01" xlink:href="#BERD_Farbverlauf_Strich"/><linearGradient id="BERD_Farbverlauf_Strich-11" x1="-19.61" y1="-488.73" x2="88.76" y2="-172.15" xlink:href="#BERD_Farbverlauf_Strich"/><linearGradient id="BERD_Farbverlauf_Strich-12" x1="-13.89" y1="-476.32" x2="43.69" y2="-200.41" xlink:href="#BERD_Farbverlauf_Strich"/><linearGradient id="BERD_Farbverlauf_Strich-13" x1="-18.03" y1="-543.37" x2="7.3" y2="-233.67" xlink:href="#BERD_Farbverlauf_Strich"/><linearGradient id="BERD_Farbverlauf_Strich-14" x1="0.97" y1="-607.65" x2="-14.95" y2="-233.2" xlink:href="#BERD_Farbverlauf_Strich"/><linearGradient id="BERD_Farbverlauf_Strich-15" x1="38.74" y1="-663.15" x2="-41.56" y2="-185.59" xlink:href="#BERD_Farbverlauf_Strich"/><linearGradient id="BERD_Farbverlauf_Strich-16" x1="90.22" y1="-705.72" x2="-77.55" y2="-144.87" xlink:href="#BERD_Farbverlauf_Strich"/><linearGradient id="BERD_Farbverlauf_Strich-17" x1="156.62" y1="-730.05" x2="-116.14" y2="-110.57" xlink:href="#BERD_Farbverlauf_Strich"/><linearGradient id="BERD_Farbverlauf_Strich-18" x1="226.81" y1="-735.71" x2="-162.1" y2="-85.22" xlink:href="#BERD_Farbverlauf_Strich"/><linearGradient id="BERD_Farbverlauf_Strich-19" x1="295.32" y1="-722.9" x2="-213.58" y2="-71.19" xlink:href="#BERD_Farbverlauf_Strich"/><linearGradient id="BERD_Farbverlauf_Strich-20" x1="357.43" y1="-692.95" x2="-267.72" y2="-69.88" xlink:href="#BERD_Farbverlauf_Strich"/><linearGradient id="BERD_Farbverlauf_Strich-21" x1="409.07" y1="-648.26" x2="-321.73" y2="-81.51" xlink:href="#BERD_Farbverlauf_Strich"/><linearGradient id="BERD_Farbverlauf_Strich-22" x1="446.96" y1="-592.13" x2="-373.34" y2="-105.38" xlink:href="#BERD_Farbverlauf_Strich"/><linearGradient id="BERD_Farbverlauf_Strich-23" x1="470.73" y1="-529.31" x2="-421.35" y2="-140.06" xlink:href="#BERD_Farbverlauf_Strich"/><linearGradient id="BERD_Farbverlauf_Strich-24" x1="498.88" y1="-469.14" x2="-465.58" y2="-184.12" xlink:href="#BERD_Farbverlauf_Strich"/><linearGradient id="BERD_Farbverlauf_Strich-25" x1="523.35" y1="-424.63" x2="-504.11" y2="-255.39" xlink:href="#BERD_Farbverlauf_Strich"/><linearGradient id="BERD_Farbverlauf_Strich-26" x1="821.47" y1="-9.54" x2="2454.25" y2="-9.54" gradientTransform="translate(-843.42 314.62) rotate(0.86)" xlink:href="#BERD_Farbverlauf_Strich"/><linearGradient id="BERD_Farbverlauf_Strich-27" x1="834.65" y1="-114.98" x2="2438.81" y2="91.96" gradientTransform="translate(-843.42 314.62) rotate(0.86)" xlink:href="#BERD_Farbverlauf_Strich"/><linearGradient id="BERD_Farbverlauf_Strich-28" x1="872.58" y1="-209.64" x2="2398.86" y2="190.81" gradientTransform="translate(-843.42 314.62) rotate(0.86)" xlink:href="#BERD_Farbverlauf_Strich"/><linearGradient id="BERD_Farbverlauf_Strich-29" x1="933.34" y1="-291.84" x2="2336.43" y2="276.53" gradientTransform="translate(-843.42 314.62) rotate(0.86)" xlink:href="#BERD_Farbverlauf_Strich"/><linearGradient id="BERD_Farbverlauf_Strich-30" x1="1013.22" y1="-356.01" x2="2255.22" y2="343.9" gradientTransform="translate(-843.42 314.62) rotate(0.86)" xlink:href="#BERD_Farbverlauf_Strich"/><linearGradient id="BERD_Farbverlauf_Strich-31" x1="1107.13" y1="-397.83" x2="2160.44" y2="388.81" gradientTransform="translate(-843.42 314.62) rotate(0.86)" xlink:href="#BERD_Farbverlauf_Strich"/><linearGradient id="BERD_Farbverlauf_Strich-32" x1="1208.99" y1="-414.48" x2="2058.17" y2="408.55" gradientTransform="translate(-843.42 314.62) rotate(0.86)" xlink:href="#BERD_Farbverlauf_Strich"/><linearGradient id="BERD_Farbverlauf_Strich-33" x1="1312.34" y1="-404.9" x2="1955.16" y2="401.92" gradientTransform="translate(-843.42 314.62) rotate(0.86)" xlink:href="#BERD_Farbverlauf_Strich"/><linearGradient id="BERD_Farbverlauf_Strich-34" x1="1411.41" y1="-370.17" x2="1859" y2="369.05" gradientTransform="translate(-843.42 314.62) rotate(0.86)" xlink:href="#BERD_Farbverlauf_Strich"/><linearGradient id="BERD_Farbverlauf_Strich-35" x1="1499.74" y1="-312" x2="1775.88" y2="312.8" gradientTransform="translate(-843.42 314.62) rotate(0.86)" xlink:href="#BERD_Farbverlauf_Strich"/><linearGradient id="BERD_Farbverlauf_Strich-36" x1="1570.47" y1="-233.47" x2="1709.96" y2="237.67" gradientTransform="translate(-843.42 314.62) rotate(0.86)" xlink:href="#BERD_Farbverlauf_Strich"/><linearGradient id="BERD_Farbverlauf_Strich-37" x1="1619.1" y1="-139.96" x2="1665.52" y2="148.52" gradientTransform="translate(-843.42 314.62) rotate(0.86)" xlink:href="#BERD_Farbverlauf_Strich"/><linearGradient id="BERD_Farbverlauf_Strich-38" x1="1642.3" y1="-51.53" x2="1646.63" y2="87.06" gradientTransform="translate(-843.42 314.62) rotate(0.86)" xlink:href="#BERD_Farbverlauf_Strich"/><linearGradient id="BERD_Farbverlauf_Strich-39" x1="1658.79" y1="-125.18" x2="1637.48" y2="93.82" gradientTransform="translate(-843.42 314.62) rotate(0.86)" xlink:href="#BERD_Farbverlauf_Strich"/><linearGradient id="BERD_Farbverlauf_Strich-40" x1="1697.66" y1="-208.71" x2="1607.9" y2="182.87" gradientTransform="translate(-843.42 314.62) rotate(0.86)" xlink:href="#BERD_Farbverlauf_Strich"/><linearGradient id="BERD_Farbverlauf_Strich-41" x1="1756.77" y1="-279.55" x2="1554.18" y2="269.3" gradientTransform="translate(-843.42 314.62) rotate(0.86)" xlink:href="#BERD_Farbverlauf_Strich"/><linearGradient id="BERD_Farbverlauf_Strich-42" x1="1831.99" y1="-333.12" x2="1480.11" y2="339.65" gradientTransform="translate(-843.42 314.62) rotate(0.86)" xlink:href="#BERD_Farbverlauf_Strich"/><linearGradient id="BERD_Farbverlauf_Strich-43" x1="1917.9" y1="-366.3" x2="1390.01" y2="388.68" gradientTransform="translate(-843.42 314.62) rotate(0.86)" xlink:href="#BERD_Farbverlauf_Strich"/><linearGradient id="BERD_Farbverlauf_Strich-44" x1="2009.59" y1="-376.69" x2="1290.55" y2="413.2" gradientTransform="translate(-843.42 314.62) rotate(0.86)" xlink:href="#BERD_Farbverlauf_Strich"/><linearGradient id="BERD_Farbverlauf_Strich-45" x1="2101.16" y1="-363.6" x2="1188.32" y2="411.57" gradientTransform="translate(-843.42 314.62) rotate(0.86)" xlink:href="#BERD_Farbverlauf_Strich"/><linearGradient id="BERD_Farbverlauf_Strich-46" x1="2197.92" y1="-335.14" x2="1090.08" y2="383.94" gradientTransform="translate(-843.42 314.62) rotate(0.86)" xlink:href="#BERD_Farbverlauf_Strich"/><linearGradient id="BERD_Farbverlauf_Strich-47" x1="2286.96" y1="-284.32" x2="1002.14" y2="332.26" gradientTransform="translate(-843.42 314.62) rotate(0.86)" xlink:href="#BERD_Farbverlauf_Strich"/><linearGradient id="BERD_Farbverlauf_Strich-48" x1="2361.08" y1="-212.87" x2="930.02" y2="260" gradientTransform="translate(-843.42 314.62) rotate(0.86)" xlink:href="#BERD_Farbverlauf_Strich"/><linearGradient id="BERD_Farbverlauf_Strich-49" x1="2415.62" y1="-125.18" x2="878.05" y2="171.88" gradientTransform="translate(-843.42 314.62) rotate(0.86)" xlink:href="#BERD_Farbverlauf_Strich"/><linearGradient id="BERD_Farbverlauf_Strich-50" x1="2447" y1="-28.92" x2="849.05" y2="71.16" gradientTransform="translate(-843.42 314.62) rotate(0.86)" xlink:href="#BERD_Farbverlauf_Strich"/><linearGradient id="BERD_Farbverlauf_Strich-51" x1="433.45" y1="31.36" x2="1319.64" y2="31.36" gradientTransform="translate(8.16 164.45)" xlink:href="#BERD_Farbverlauf_Strich"/><linearGradient id="BERD_Farbverlauf_Strich-52" x1="453.11" y1="-17.35" x2="1304.73" y2="84.81" gradientTransform="translate(8.16 164.45)" xlink:href="#BERD_Farbverlauf_Strich"/><linearGradient id="BERD_Farbverlauf_Strich-53" x1="483.41" y1="-60.14" x2="1278.53" y2="133.41" gradientTransform="translate(8.16 164.45)" xlink:href="#BERD_Farbverlauf_Strich"/><linearGradient id="BERD_Farbverlauf_Strich-54" x1="522.69" y1="-94.67" x2="1242.43" y2="174.74" gradientTransform="translate(8.16 164.45)" xlink:href="#BERD_Farbverlauf_Strich"/><linearGradient id="BERD_Farbverlauf_Strich-55" x1="568.78" y1="-119.06" x2="1198.33" y2="206.74" gradientTransform="translate(8.16 164.45)" xlink:href="#BERD_Farbverlauf_Strich"/><linearGradient id="BERD_Farbverlauf_Strich-56" x1="617.85" y1="-133.33" x2="1148.76" y2="227.52" gradientTransform="translate(8.16 164.45)" xlink:href="#BERD_Farbverlauf_Strich"/><linearGradient id="BERD_Farbverlauf_Strich-57" x1="669.81" y1="-134.89" x2="1096.25" y2="236.37" gradientTransform="translate(8.16 164.45)" xlink:href="#BERD_Farbverlauf_Strich"/><linearGradient id="BERD_Farbverlauf_Strich-58" x1="720.86" y1="-124.61" x2="1043.87" y2="232.67" gradientTransform="translate(8.16 164.45)" xlink:href="#BERD_Farbverlauf_Strich"/><linearGradient id="BERD_Farbverlauf_Strich-59" x1="768.66" y1="-103.26" x2="994.89" y2="216.54" gradientTransform="translate(8.16 164.45)" xlink:href="#BERD_Farbverlauf_Strich"/><linearGradient id="BERD_Farbverlauf_Strich-60" x1="811.57" y1="-72.28" x2="954.32" y2="191.35" gradientTransform="translate(8.16 164.45)" xlink:href="#BERD_Farbverlauf_Strich"/><linearGradient id="BERD_Farbverlauf_Strich-61" x1="845.39" y1="-33.4" x2="925.6" y2="169.23" gradientTransform="translate(8.16 164.45)" xlink:href="#BERD_Farbverlauf_Strich"/><linearGradient id="BERD_Farbverlauf_Strich-62" x1="863.67" y1="-12.47" x2="904.48" y2="142.46" gradientTransform="translate(8.16 164.45)" xlink:href="#BERD_Farbverlauf_Strich"/><linearGradient id="BERD_Farbverlauf_Strich-63" x1="869.97" y1="-36.63" x2="890.78" y2="113.07" gradientTransform="translate(8.16 164.45)" xlink:href="#BERD_Farbverlauf_Strich"/><linearGradient id="BERD_Farbverlauf_Strich-64" x1="881.91" y1="-62.32" x2="885.85" y2="147.93" gradientTransform="translate(8.16 164.45)" xlink:href="#BERD_Farbverlauf_Strich"/><linearGradient id="BERD_Farbverlauf_Strich-65" x1="901.51" y1="-105.53" x2="871.47" y2="191.88" gradientTransform="translate(8.16 164.45)" xlink:href="#BERD_Farbverlauf_Strich"/><linearGradient id="BERD_Farbverlauf_Strich-66" x1="930.68" y1="-142.93" x2="846.68" y2="232.62" gradientTransform="translate(8.16 164.45)" xlink:href="#BERD_Farbverlauf_Strich"/><linearGradient id="BERD_Farbverlauf_Strich-67" x1="967.98" y1="-172.37" x2="812.55" y2="267.81" gradientTransform="translate(8.16 164.45)" xlink:href="#BERD_Farbverlauf_Strich"/><linearGradient id="BERD_Farbverlauf_Strich-68" x1="1011.31" y1="-192.17" x2="770.34" y2="295.63" gradientTransform="translate(8.16 164.45)" xlink:href="#BERD_Farbverlauf_Strich"/><linearGradient id="BERD_Farbverlauf_Strich-69" x1="1057.89" y1="-200.68" x2="721.92" y2="314.12" gradientTransform="translate(8.16 164.45)" xlink:href="#BERD_Farbverlauf_Strich"/><linearGradient id="BERD_Farbverlauf_Strich-70" x1="1105.84" y1="-198.65" x2="670.3" y2="320.95" gradientTransform="translate(8.16 164.45)" xlink:href="#BERD_Farbverlauf_Strich"/><linearGradient id="BERD_Farbverlauf_Strich-71" x1="1152.13" y1="-185.45" x2="618.36" y2="315.62" gradientTransform="translate(8.16 164.45)" xlink:href="#BERD_Farbverlauf_Strich"/><linearGradient id="BERD_Farbverlauf_Strich-72" x1="1195.89" y1="-163.02" x2="568.85" y2="298.41" gradientTransform="translate(8.16 164.45)" xlink:href="#BERD_Farbverlauf_Strich"/><linearGradient id="BERD_Farbverlauf_Strich-73" x1="1243.2" y1="-136.58" x2="524.27" y2="270.32" gradientTransform="translate(8.16 164.45)" xlink:href="#BERD_Farbverlauf_Strich"/><linearGradient id="BERD_Farbverlauf_Strich-74" x1="1283.83" y1="-100.09" x2="486.65" y2="232.86" gradientTransform="translate(8.16 164.45)" xlink:href="#BERD_Farbverlauf_Strich"/><linearGradient id="BERD_Farbverlauf_Strich-75" x1="1315.65" y1="-55.32" x2="457.56" y2="187.95" gradientTransform="translate(8.16 164.45)" xlink:href="#BERD_Farbverlauf_Strich"/><linearGradient id="BERD_Farbverlauf_Strich-76" x1="-120.97" y1="216.33" x2="1868.06" y2="216.33" gradientTransform="translate(51.85 122.44) rotate(-1.5)" xlink:href="#BERD_Farbverlauf_Strich"/><linearGradient id="BERD_Farbverlauf_Strich-77" x1="-99.44" y1="90.18" x2="1849.26" y2="341.57" gradientTransform="translate(51.85 122.44) rotate(-1.5)" xlink:href="#BERD_Farbverlauf_Strich"/><linearGradient id="BERD_Farbverlauf_Strich-78" x1="-46.78" y1="-21.52" x2="1799.94" y2="463" gradientTransform="translate(51.85 122.44) rotate(-1.5)" xlink:href="#BERD_Farbverlauf_Strich"/><linearGradient id="BERD_Farbverlauf_Strich-79" x1="33.52" y1="-116.62" x2="1723.29" y2="567.88" gradientTransform="translate(51.85 122.44) rotate(-1.5)" xlink:href="#BERD_Farbverlauf_Strich"/><linearGradient id="BERD_Farbverlauf_Strich-80" x1="136.09" y1="-188.59" x2="1623.94" y2="649.87" gradientTransform="translate(51.85 122.44) rotate(-1.5)" xlink:href="#BERD_Farbverlauf_Strich"/><linearGradient id="BERD_Farbverlauf_Strich-81" x1="254.15" y1="-232.64" x2="1508.35" y2="704.04" gradientTransform="translate(51.85 122.44) rotate(-1.5)" xlink:href="#BERD_Farbverlauf_Strich"/><linearGradient id="BERD_Farbverlauf_Strich-82" x1="380.02" y1="-245.95" x2="1384.11" y2="727.21" gradientTransform="translate(51.85 122.44) rotate(-1.5)" xlink:href="#BERD_Farbverlauf_Strich"/><linearGradient id="BERD_Farbverlauf_Strich-83" x1="501.53" y1="-233.03" x2="1259.39" y2="718.19" gradientTransform="translate(51.85 122.44) rotate(-1.5)" xlink:href="#BERD_Farbverlauf_Strich"/><linearGradient id="BERD_Farbverlauf_Strich-84" x1="612.94" y1="-196.61" x2="1142.44" y2="677.88" gradientTransform="translate(51.85 122.44) rotate(-1.5)" xlink:href="#BERD_Farbverlauf_Strich"/><linearGradient id="BERD_Farbverlauf_Strich-85" x1="710.86" y1="-137.42" x2="1040.9" y2="609.33" gradientTransform="translate(51.85 122.44) rotate(-1.5)" xlink:href="#BERD_Farbverlauf_Strich"/><linearGradient id="BERD_Farbverlauf_Strich-86" x1="790.31" y1="-59.74" x2="961.21" y2="517.47" gradientTransform="translate(51.85 122.44) rotate(-1.5)" xlink:href="#BERD_Farbverlauf_Strich"/><linearGradient id="BERD_Farbverlauf_Strich-87" x1="847.17" y1="31.13" x2="907.93" y2="408.71" gradientTransform="translate(51.85 122.44) rotate(-1.5)" xlink:href="#BERD_Farbverlauf_Strich"/><linearGradient id="BERD_Farbverlauf_Strich-88" x1="879.22" y1="128.85" x2="885.25" y2="321.58" gradientTransform="translate(51.85 122.44) rotate(-1.5)" xlink:href="#BERD_Farbverlauf_Strich"/><linearGradient id="BERD_Farbverlauf_Strich-89" x1="897.08" y1="113.24" x2="873.39" y2="356.66" gradientTransform="translate(51.85 122.44) rotate(-1.5)" xlink:href="#BERD_Farbverlauf_Strich"/><linearGradient id="BERD_Farbverlauf_Strich-90" x1="939.8" y1="9.16" x2="833.35" y2="473.64" gradientTransform="translate(51.85 122.44) rotate(-1.5)" xlink:href="#BERD_Farbverlauf_Strich"/><linearGradient id="BERD_Farbverlauf_Strich-91" x1="1007.37" y1="-80.32" x2="765.1" y2="576.02" gradientTransform="translate(51.85 122.44) rotate(-1.5)" xlink:href="#BERD_Farbverlauf_Strich"/><linearGradient id="BERD_Farbverlauf_Strich-92" x1="1095.58" y1="-150.23" x2="673.22" y2="657.31" gradientTransform="translate(51.85 122.44) rotate(-1.5)" xlink:href="#BERD_Farbverlauf_Strich"/><linearGradient id="BERD_Farbverlauf_Strich-93" x1="1199.03" y1="-195.89" x2="563.88" y2="712.5" gradientTransform="translate(51.85 122.44) rotate(-1.5)" xlink:href="#BERD_Farbverlauf_Strich"/><linearGradient id="BERD_Farbverlauf_Strich-94" x1="1312.44" y1="-215.6" x2="444.14" y2="738.24" gradientTransform="translate(51.85 122.44) rotate(-1.5)" xlink:href="#BERD_Farbverlauf_Strich"/><linearGradient id="BERD_Farbverlauf_Strich-95" x1="1436.01" y1="-213.35" x2="321.55" y2="733.03" gradientTransform="translate(51.85 122.44) rotate(-1.5)" xlink:href="#BERD_Farbverlauf_Strich"/><linearGradient id="BERD_Farbverlauf_Strich-96" x1="1555.81" y1="-180.31" x2="203.78" y2="697.26" gradientTransform="translate(51.85 122.44) rotate(-1.5)" xlink:href="#BERD_Farbverlauf_Strich"/><linearGradient id="BERD_Farbverlauf_Strich-97" x1="1664.28" y1="-118.41" x2="98.11" y2="633.18" gradientTransform="translate(51.85 122.44) rotate(-1.5)" xlink:href="#BERD_Farbverlauf_Strich"/><linearGradient id="BERD_Farbverlauf_Strich-98" x1="1754.58" y1="-31.38" x2="11.07" y2="544.74" gradientTransform="translate(51.85 122.44) rotate(-1.5)" xlink:href="#BERD_Farbverlauf_Strich"/><linearGradient id="BERD_Farbverlauf_Strich-99" x1="1821.02" y1="75.46" x2="-51.99" y2="437.32" gradientTransform="translate(51.85 122.44) rotate(-1.5)" xlink:href="#BERD_Farbverlauf_Strich"/><linearGradient id="BERD_Farbverlauf_Strich-100" x1="1859.25" y1="192.72" x2="-87.38" y2="314.64" gradientTransform="translate(51.85 122.44) rotate(-1.5)" xlink:href="#BERD_Farbverlauf_Strich"/><linearGradient id="Unbenannter_Verlauf_96" x1="1110" y1="193" x2="-11" y2="193" gradientUnits="userSpaceOnUse"><stop offset="0.35" stop-color="#fff" stop-opacity="0"/><stop offset="0.54" stop-color="#fff" stop-opacity="0.26"/><stop offset="0.76" stop-color="#fff" stop-opacity="0.55"/><stop offset="0.92" stop-color="#fff" stop-opacity="0.73"/><stop offset="1" stop-color="#fff" stop-opacity="0.8"/></linearGradient></defs><path class="cls-1" d="M523.83,459.69s-54.68-35,31.54-66.69,285.74,24.54,351.27-11,49.09-154.82,113.89-179,120.07,140.85,164.78,121,124.16-71.81,166.82-85.5,15.53-104.08,95.79-100.39c101.42,4.67,88.64-204.74,88.64-204.74"/><path class="cls-2" d="M522.4,453.8s-50.48-30.66,36.14-57.5c12-3.73,26.19-5.73,41.7-7.5,43.21-4.95,86.92-10.3,136.32-6.94,73.27,5,141.89,19.21,179.09,0,50-25.82,49.79-96,72-141.66,8.88-18.3,21.25-33.5,40-40.9a39.48,39.48,0,0,1,29.91.17c41.53,16.17,72.19,96.44,105.24,119.12,8.79,6,17.36,8.48,25.68,5.12,45.94-18.58,127-68.75,171-83.4,42.8-14,16.39-102.62,92.1-101.91,95.23.9,78.9-204.7,78.9-204.7"/><path class="cls-3" d="M521,447.9s-46.06-26.07,40.73-48.31c12.59-3.22,27.44-4.58,43.56-6.6,46.67-5.83,84.22-20.54,134.06-17.82,75.93,4.15,144.49,26.77,185.34,6.59,53.24-26.3,47.78-98.46,69.49-144.16,8.69-18.33,21.55-34,40.49-41.91a40.12,40.12,0,0,1,30.3-.68c41.91,15.46,66.46,100.9,100.32,123.28,8.88,5.87,17.63,8.34,26.24,5.18,47.16-17.33,129.78-65.85,175.25-81.29,42.88-14.56,17.28-101.15,88.41-103.43,89.08-2.85,69.16-204.66,69.16-204.66"/><path class="cls-4" d="M519.55,442s-41.47-21.27,45.32-39.12c13.18-2.71,28.68-3.46,45.41-5.71,50.13-6.73,81.53-30.79,131.81-28.69,78.6,3.29,147.06,34.29,191.58,13.15,56.43-26.8,45.77-100.94,67-146.66,8.52-18.36,21.88-34.54,41-42.92,10.62-4.65,21-4.9,30.7-1.53,42.33,14.68,60.71,105.35,95.4,127.44,9,5.71,17.91,8.21,26.8,5.25,48.37-16.09,132.6-62.86,179.47-79.19,43-15,18.2-99.67,84.72-104.95,83-6.6,59.42-204.63,59.42-204.63"/><path class="cls-5" d="M518.12,436.12S481.39,419.89,568,406.19c13.82-2.19,29.93-2.33,47.27-4.81,53.59-7.66,78.84-41.08,129.55-39.58,81.27,2.41,149.63,41.81,197.84,19.71,59.59-27.31,43.76-103.41,64.53-149.14,8.34-18.39,22.19-35.09,41.53-43.94,10.8-5,21.37-5.55,31.09-2.39,42.74,13.91,55,109.83,90.49,131.61,9,5.55,18.17,8.07,27.35,5.32,49.57-14.87,135.42-59.87,183.69-77.09,43.09-15.38,19.17-98.18,81-106.48,76.95-10.32,49.68-204.58,49.68-204.58"/><path class="cls-6" d="M516.69,430.23s-31.87-11,54.51-20.75c14.46-1.64,31.17-1.21,49.12-3.91,57.06-8.58,76.15-51.37,127.3-50.45,83.94,1.51,152.19,49.3,204.08,26.27,62.76-27.85,41.75-105.9,62.06-151.64,8.15-18.42,22.5-35.62,42-44.95,11-5.25,21.74-6.2,31.49-3.24,43.16,13.12,49.21,114.3,85.57,135.77,9.12,5.39,18.44,7.93,27.92,5.38,50.75-13.65,138.23-56.85,187.89-75,43.22-15.77,20.2-96.68,77.35-108C1537,125.67,1506-64.81,1506-64.81"/><path class="cls-7" d="M515.27,424.34s-26.93-5.49,59.09-11.56c15.12-1.07,32.42-.09,51-3,60.52-9.53,73.46-61.69,125-61.33,86.63.58,154.75,56.79,210.33,32.83,65.92-28.41,39.74-108.38,59.58-154.14,8-18.45,22.81-36.16,42.57-46,11.17-5.54,22.11-6.85,31.88-4.08,43.59,12.33,43.44,118.78,80.65,139.94,9.19,5.22,18.71,7.78,28.48,5.44,51.94-12.44,140.77-54.64,192.11-72.88,43.58-15.49,21.29-95.2,73.65-109.52,65.13-17.82,30.21-204.51,30.21-204.51"/><path class="cls-8" d="M513.84,418.44s-21.93.19,63.68-2.36c15.8-.48,33.67,1,52.84-2.12,64-10.47,70.77-72,122.79-72.21,89.3-.35,157.3,64.27,216.57,39.4,69.07-29,37.73-110.87,57.11-156.64,7.79-18.47,23.12-36.7,43.08-47,11.35-5.84,22.48-7.5,32.28-4.93,44,11.53,37.67,123.26,75.74,144.1,9.26,5.07,19,7.64,29,5.51,53.13-11.25,143.56-51.69,196.33-70.78,43.72-15.82,24.54-88.83,70-111,56.76-27.75,20.48-204.46,20.48-204.46"/><path class="cls-9" d="M512.41,412.55s-16.89,6.05,68.28,6.82c16.47.15,34.9,2.14,54.69-1.22,67.43-11.42,68.09-82.34,120.53-83.08,92-1.31,159.85,71.74,222.82,46,72.22-29.56,35.73-113.35,54.64-159.14,7.61-18.5,23.42-37.24,43.6-48,11.53-6.15,22.85-8.16,32.67-5.79,44.44,10.73,31.89,127.77,70.82,148.27,9.34,4.92,19.24,7.49,29.59,5.57,54.31-10.06,146.71-47.78,200.55-68.67,43.57-16.91,23.69-92.37,66.27-112.57,53.73-25.49,10.74-204.42,10.74-204.42"/><path class="cls-10" d="M511,406.66s-11.84,12.06,72.87,16c17.16.8,36.15,3.24,56.56-.32,70.88-12.39,65.39-92.69,118.27-94,94.67-2.29,162.39,79.2,229.06,52.53,75.36-30.15,33.72-115.84,52.16-161.63,7.44-18.53,23.74-37.79,44.12-49,11.72-6.45,23.22-8.82,33.07-6.64,44.87,9.92,26.11,132.27,65.9,152.43,9.41,4.77,19.51,7.35,30.16,5.64,55.48-8.88,149.53-44.75,204.75-66.58,43.7-17.27,25-91.08,62.59-114.08,48.2-29.49,1-204.38,1-204.38"/><path class="cls-11" d="M509.56,400.77S502.76,419,587,426c17.83,1.48,37.39,4.36,58.41.58,74.33-13.36,62.71-103,116-104.84,97.35-3.29,164.94,86.65,235.31,59.09,78.51-30.75,31.71-118.32,49.69-164.13,7.25-18.56,24-38.33,44.64-50,11.89-6.76,23.59-9.48,33.46-7.49,45.3,9.11,20.32,136.78,61,156.59,9.48,4.62,19.77,7.2,30.72,5.71,56.66-7.72,152.37-41.71,209-64.48,43.83-17.63,26.35-90,58.9-115.6C1526.85,107.7,1475.37-63,1475.37-63"/><path class="cls-12" d="M508.13,394.88s-1.77,24.5,82,34.38c18.52,2.18,38.64,5.46,60.27,1.47,77.78-14.34,60-113.41,113.76-115.72,100-4.29,167.47,94.1,241.56,65.66,81.64-31.35,29.69-120.81,47.21-166.63,7.07-18.59,24.35-38.88,45.15-51,12.08-7.05,24-10.13,33.86-8.33,45.74,8.29,14.53,141.3,56.07,160.75,9.54,4.47,20,7.05,31.27,5.78,57.83-6.56,155.21-38.66,213.19-62.38,44-18,27.68-89,55.21-117.13,37.29-38.07-18.48-204.3-18.48-204.3"/><path class="cls-13" d="M506.7,389s3.23,30.9,86.65,43.58c19.18,2.91,39.87,6.57,62.12,2.37C736.7,419.6,712.8,311.14,767,308.33c102.71-5.33,170.36,102.45,247.81,72.22,84.39-33,27.69-123.29,44.73-169.13,6.89-18.61,24.66-39.42,45.68-52,12.25-7.36,24.33-10.79,34.25-9.19,46.17,7.47,8.74,145.83,51.15,164.92,9.61,4.33,20.3,6.9,31.83,5.84,59-5.4,158-35.59,217.41-60.27,44.08-18.33,28.92-88.25,51.52-118.65,31.74-42.7-28.22-204.26-28.22-204.26"/><path class="cls-14" d="M505.28,383.09s8.19,37.38,91.23,52.76c19.85,3.68,41.12,7.68,64,3.27C745.18,422.81,715.14,305,769.74,301.65c105.39-6.38,172.88,109.85,254,78.78,87.56-33.52,25.68-125.77,42.26-171.62,6.71-18.65,25-40,46.19-53.07,12.44-7.67,24.71-11.45,34.65-10,46.61,6.63,2.94,150.37,46.23,169.08a68.73,68.73,0,0,0,32.4,5.91c60.18-4.26,160.89-32.53,221.62-58.17,44.22-18.67,30-87.62,47.83-120.17,26-47.52-38-204.22-38-204.22"/><path class="cls-15" d="M503.85,377.2s13.12,43.95,95.83,61.95c20.5,4.46,42.35,8.78,65.83,4.17,88.13-17.31,52-144.57,107-148.36,108.07-7.44,175.08,116.4,260.3,85.34,91-33.18,23.67-128.25,39.79-174.11,6.53-18.68,25.26-40.53,46.71-54.08,12.61-8,25.07-12.12,35-10.89,47.05,5.79-2.86,154.92,41.32,173.24a75.47,75.47,0,0,0,32.95,6c61.36-3.12,163.73-29.45,225.83-56.07,44.36-19,30.94-87.06,44.15-121.7,20-52.43-47.69-204.18-47.69-204.18"/><path class="cls-16" d="M502.42,371.31s18,50.58,100.42,71.14c21.14,5.27,43.6,9.88,67.69,5.06,91.58-18.3,49.27-155,104.74-159.23,110.74-8.53,177.61,123.83,266.54,91.9,94.19-33.81,21.67-130.73,37.31-176.61,6.35-18.7,25.57-41.07,47.23-55.1,12.79-8.28,25.45-12.77,35.44-11.73,47.49,4.94-8.67,159.47,36.4,177.4a82.9,82.9,0,0,0,33.51,6c62.53-2,166.58-26.37,230-54,44.49-19.35,31.69-86.47,40.46-123.22,13.68-57.34-57.43-204.14-57.43-204.14"/><path class="cls-17" d="M501,365.42s22.83,57.26,105,80.32c21.76,6.11,44.84,11,69.55,6,95-19.3,46.57-165.36,102.47-170.11,113.41-9.62,180.15,131.25,272.79,98.47,97.32-34.43,19.66-133.22,34.84-179.11,6.17-18.73,25.87-41.62,47.75-56.11,13-8.59,25.82-13.44,35.83-12.58,47.92,4.09-14.48,164,31.48,181.57a92.07,92.07,0,0,0,34.07,6.1c63.72-.85,169.44-23.28,234.27-51.86,44.63-19.68,32.3-85.81,36.76-124.74,7.14-62.15-67.16-204.1-67.16-204.1"/><path class="cls-18" d="M499.57,359.52s27.6,64,109.6,89.52c22.38,7,46.08,12.08,71.41,6.86,98.47-20.31,43.87-175.78,100.22-181,116.08-10.74,182.68,138.66,279,105,100.46-35.06,17.65-135.7,32.37-181.61,6-18.76,26.17-42.17,48.26-57.12,13.15-8.89,26.2-14.11,36.23-13.44,48.36,3.24-20.29,168.62,26.57,185.74a102.26,102.26,0,0,0,34.63,6.17c64.89.27,172.29-20.19,238.48-49.76,44.77-20,32.81-85.05,33.07-126.26.43-66.81-76.9-204.07-76.9-204.07"/><path class="cls-19" d="M498.14,353.63s32.33,70.77,114.2,98.71c23,7.84,47.32,13.18,73.26,7.75,101.91-21.32,41.18-186.19,98-191.87,118.75-11.86,185.21,146.08,285.29,111.6,103.58-35.69,15.63-138.19,29.88-184.1,5.81-18.79,26.48-42.73,48.79-58.14,13.32-9.2,26.56-14.78,36.62-14.29,48.8,2.37-26.1,173.2,21.65,189.9a114.28,114.28,0,0,0,35.19,6.24c66.07,1.38,175.15-17.1,242.69-47.66,44.92-20.33,33.3-84.16,29.39-127.79-6.38-71.29-86.64-204-86.64-204"/><path class="cls-20" d="M496.71,347.74s37,77.56,118.79,107.89c23.56,8.74,48.56,14.28,75.12,8.65C796,442,729.1,267.67,786.33,261.54c121.4-13,187.74,153.49,291.53,118.16,106.72-36.33,13.63-140.67,27.41-186.6,5.63-18.82,26.77-43.29,49.3-59.15,13.5-9.52,26.94-15.45,37-15.14,49.23,1.5-31.92,177.8,16.73,194.06a128.32,128.32,0,0,0,35.75,6.3c67.26,2.5,178-14,246.91-45.55,45.07-20.65,33.76-83.18,25.7-129.31-13.22-75.65-96.38-204-96.38-204"/><path class="cls-21" d="M495.29,341.85s41.6,84.38,123.38,117.08c24.12,9.65,49.79,15.33,77,9.55,108.76-23.54,35.79-207,93.45-213.63,124.07-14.15,190.21,160.7,297.78,124.73,109.78-37.17,11.62-143.16,24.94-189.1,5.44-18.84,27-43.87,49.82-60.17,13.66-9.84,27.3-16.11,37.41-16,49.66.62-37.73,182.4,11.82,198.22a145.5,145.5,0,0,0,36.3,6.37c68.44,3.61,180.88-10.87,251.13-43.46,45.21-21,34.23-82.11,22-130.82-20-79.88-106.12-203.94-106.12-203.94"/><path class="cls-22" d="M493.86,336s46.17,91.2,128,126.27c24.67,10.57,51,16.44,78.83,10.44,112.21-24.51,33.09-217.47,91.2-224.5,126.72-15.33,192.75,168.15,304,131.29,112.93-37.76,9.61-145.64,22.46-191.6,5.27-18.87,27.36-44.42,50.34-61.18,13.84-10.14,27.68-16.78,37.81-16.84,50.1-.25-43.55,187,6.9,202.39a166.19,166.19,0,0,0,36.87,6.44c69.62,4.71,183.74-7.76,255.34-41.36,45.36-21.28,34.73-81,18.32-132.35-26.83-84-115.86-203.9-115.86-203.9"/><path class="cls-23" d="M492.43,330.06S543.11,428.11,625,465.52c25.2,11.52,52.27,17.55,80.68,11.35C821.34,451.38,736.07,249,794.62,241.49,924,225,989.92,417.09,1104.89,379.34c116.08-38.35,7.61-148.12,20-194.09,5.08-18.91,27.66-45,50.85-62.2,14-10.45,28.06-17.46,38.21-17.69,50.53-1.14-49.36,191.64,2,206.55a194.57,194.57,0,0,0,37.43,6.5c70.82,5.7,186.68-4.49,259.56-39.25,45.55-21.51,35.25-79.79,14.63-133.87C1494,57.21,1402-58.57,1402-58.57"/><path class="cls-24" d="M491,324.17s55.14,104.89,137.16,144.65c25.72,12.47,53.52,18.66,82.55,12.24,119.1-26.46,27.67-238.43,86.68-246.26,132-17.88,197.84,183.06,316.51,144.42,119.23-38.94,5.6-150.61,17.52-196.59,4.9-18.93,28-45.52,51.37-63.21,14.2-10.76,28.42-18.15,38.6-18.54,50.95-2.11-55.21,196.38-2.93,210.71a225.35,225.35,0,0,0,38,6.57c72,6.86,189.53-1.43,263.77-37.15,45.68-21.86,35.8-78.58,11-135.39C1490.87,53.52,1395.83-58.2,1395.83-58.2"/><path class="cls-25" d="M489.58,318.28s103.59,194.4,226.15,167,25-248.79,84.42-257.13c134.67-18.91,200.39,190.5,322.76,151S1126.5,226,1138,180c7.6-30.5,63.92-82.07,90.89-83.61,51.38-2.94-61,200.91-7.85,214.87,60.89,16,215.36,15.81,306.53-28.41,119.7-58.05-137.81-340.69-137.81-340.69"/><g class="cls-26"><path class="cls-27" d="M-10.48,371.73S-56,244.89,37.1,240.72s270.44,151.64,345,142.94,98.58-68.48,168.73-71.81,196.8,82.47,246.24,78.67,15-90,60.48-91.07S907.31,362.64,983,374.8c95.61,15.36,101.77,25.09,124.58,30.88,47.76,12.14,46.16-142.09,110.6-55.52s138.74,64.3,212.42,59.71,71.76-137,119.62-131.42,66.41,34.91,59.17,49.73"/><path class="cls-28" d="M-9.89,368.7c-.5,1-43.25-118.73,48.45-121.71,31.55-.94,72.73,16.06,116.61,38,85.59,42.82,175.44,101.69,223.94,95.22a159,159,0,0,0,29.59-6.75c52.55-17.37,79-58.9,137.4-60.31,69.16-1.67,191.77,83.37,242.66,79.64C836.33,389.42,811,321,838,303.27a25.62,25.62,0,0,1,12.45-3.85c25.56-1.81,40,16.17,59.19,35.42,16,16,32.46,32.86,63.87,40.22,6.12,1.44,12,3,18.07,4.09,76.68,13.87,85.58,21.3,109.43,26.45a22.63,22.63,0,0,0,16.07-2.31c29-15.45,32.41-81.4,59.49-81.61,8.82-.06,20.34,6.81,35.19,24.4a206.71,206.71,0,0,0,58.86,48.1c32.85,18,61.78,22.44,99.07,20.38,17.81-.92,35.26-3.19,52.61-4.64,14.83-1.24,26.71-7.41,37-15.89,19.62-16.13,31.07-44,42.55-66.59,13.46-26.52,26.59-50.75,47.33-47.44,46.53,7.42,65.48,37.91,60.17,52.27"/><path class="cls-29" d="M-9.29,365.66c-1,2.06-40.95-110.85,49.3-112.41,31.25-.54,71.92,16.25,115.58,37.14,86.42,41.34,172.55,93.45,220.48,86.4a190.31,190.31,0,0,0,29.27-6.71c52.35-16.48,79-55.61,136-55.61,68.19,0,186.74,84.16,239.08,80.61,51.17-3.48,22.76-71.75,50.3-91.26a26.61,26.61,0,0,1,12.53-4.43c25.87-3,42.14,13.38,61.45,32.27C921.4,348,934.86,366,964,375.33c5.67,1.82,11.23,3.89,17.57,5.08,75.39,14.1,86.35,20.24,112.84,25.11a26.11,26.11,0,0,0,16.58-2.33c33.3-15.91,30.78-82,57.59-83.5,8.72-.47,21,5.81,36.75,22.3,20.73,21.64,43.57,35.77,61.74,46.45,31.86,18.57,54.2,27.43,92.84,26.35,18.62-.51,36.43-3,54.07-4.82,15.09-1.57,27.26-8,38.24-16.12,21.36-15.78,33.17-44.81,45.72-66.4,14.65-25.2,29.5-50.13,50.24-45.9,45.16,9.22,64.55,40.92,61.17,54.82"/><path class="cls-30" d="M-8.7,362.63c-1.51,3.09-38.62-102.85,50.17-103.11,30.94-.1,71.11,16.42,114.54,36.26,87.27,39.84,169.66,85.29,217,77.58A232.65,232.65,0,0,0,402,366.69c52.17-15.6,79-52.31,134.56-50.91,67.25,1.69,181.73,85,235.51,81.58,54.77-3.52,23.33-71.64,51.41-93a27.73,27.73,0,0,1,12.59-5c26.2-4.23,44.34,10.57,63.73,29.13,17.43,16.68,28,35.87,54.68,47.11,5.24,2.2,10.46,4.78,17.07,6.06,74.11,14.31,87.1,19.23,116.26,23.78a29.91,29.91,0,0,0,17.09-2.35c37.71-16.31,29.13-82.59,55.68-85.39,8.63-.88,21.59,4.81,38.3,20.2,22.15,20.4,47,33.79,64.64,44.79,30.81,19.2,46.63,32.49,86.6,32.33,19.44-.07,37.6-2.78,55.53-5,15.35-1.91,27.82-8.6,39.46-16.35,23.11-15.41,35.25-45.63,48.89-66.21,15.82-23.88,32.37-49.54,53.15-44.35,43.76,10.91,63.61,43.91,62.16,57.36"/><path class="cls-31" d="M-8.1,359.6c-2,4.12-36.31-94.83,51-93.82,30.63.36,70.3,16.59,113.5,35.38C244.57,339.5,323.21,378.32,370,369.93c10.14-1.82,19.56-4.1,28.61-6.63,52-14.71,79-49,133.14-46.21,66.31,3.4,176.7,85.9,231.93,82.55,58.36-3.55,23.91-71.52,52.51-94.72a29,29,0,0,1,12.67-5.59c26.52-5.46,46.54,7.76,66,26,18.15,17,25.92,37.5,50.1,50.55,4.83,2.61,9.67,5.68,16.56,7.05,72.83,14.47,87.84,18.26,119.67,22.46a34.28,34.28,0,0,0,17.6-2.38c42.18-16.64,27.48-83.24,53.77-87.28,8.54-1.31,22.25,3.8,39.87,18.11,23.58,19.15,50.41,31.77,67.52,43.12,29.8,19.76,39.06,37.56,80.38,38.31,20.25.37,38.76-2.58,57-5.18,15.61-2.24,28.4-9.17,40.67-16.58,24.89-15,37.32-46.43,52.06-66,17-22.57,35.23-49,56.06-42.82,42.34,12.52,62.68,46.92,63.16,59.91"/><path class="cls-32" d="M-7.51,356.57c-2.51,5.15-34-86.81,51.89-84.52,30.34.8,69.52,16.73,112.47,34.5,89,36.81,163.89,69,210.11,59.95,9.93-1.95,19.25-4.19,28.29-6.59,51.8-13.72,79.07-45.64,131.72-41.51,65.39,5.12,171.68,86.78,228.34,83.52,62-3.57,24.51-71.39,53.62-96.45a30.49,30.49,0,0,1,12.74-6.17c26.85-6.7,48.76,4.93,68.26,22.84,18.88,17.33,23.92,39.25,45.51,54,4.45,3,8.89,6.57,16.06,8,71.55,14.61,88.56,17.33,123.09,21.13a39.18,39.18,0,0,0,18.11-2.4c46.68-16.89,25.83-83.84,51.86-89.17,8.45-1.72,22.93,2.79,41.42,16,25,17.91,53.85,29.77,70.41,41.46,28.79,20.33,31.49,42.63,74.15,44.29,21.07.82,39.93-2.38,58.44-5.36,15.87-2.57,29-9.74,41.89-16.81,26.68-14.63,39.37-47.24,55.22-65.82,18.12-21.24,38.07-48.45,59-41.28,40.91,14,61.75,49.92,64.16,62.45"/><path class="cls-33" d="M-6.91,353.54c-3,6.17-31.66-78.78,52.75-75.23,30,1.26,68.74,16.88,111.44,33.62,89.92,35.28,161,60.89,206.64,51.14,9.73-2.08,18.94-4.3,28-6.55,51.61-12.82,79.11-42.27,130.3-36.81,64.49,6.87,166.65,87.67,224.76,84.49,65.57-3.59,25.1-71.24,54.72-98.18a32.09,32.09,0,0,1,12.81-6.75c27.19-7.95,51,2.1,70.54,19.69s21.93,41.2,40.91,57.44c4.1,3.5,8.12,7.45,15.56,9,70.28,14.72,89.27,16.43,126.5,19.8a44.69,44.69,0,0,0,18.62-2.42c51.22-17.08,24.19-84.44,50-91.05,8.35-2.15,23.61,1.75,43,13.9,26.53,16.66,57.27,27.76,73.3,39.81,27.77,20.88,23.92,47.71,67.91,50.26,21.89,1.27,41.11-2.17,59.9-5.54,16.13-2.91,29.57-10.29,43.1-17,28.5-14.21,41.41-48,58.4-65.63,19.24-19.91,40.89-47.94,61.88-39.73,39.47,15.43,60.82,52.92,65.15,65"/><path class="cls-34" d="M-6.32,350.5c-3.52,7.21-29.33-70.73,53.62-65.92,29.73,1.72,68,17,110.4,32.74,90.85,33.71,158.1,52.76,203.18,42.31,9.52-2.2,18.62-4.4,27.64-6.49C440,341.21,467.7,314.26,517.4,321,581,329.67,679,409.58,738.59,406.48c69.17-3.61,25.7-71.08,55.82-99.91a33.84,33.84,0,0,1,12.89-7.34c27.51-9.2,53.22-.73,72.8,16.56,20.35,17.95,19.94,43.35,36.32,60.87,3.75,4,7.34,8.35,15.06,10,69,14.79,90,15.56,129.92,18.46a50.89,50.89,0,0,0,19.13-2.44c55.78-17.2,22.53-85,48-92.94,8.25-2.56,24.32.72,44.53,11.81,28,15.38,60.71,25.73,76.19,38.14,26.77,21.44,16.35,52.79,61.69,56.24,22.71,1.72,42.27-2,61.36-5.72,16.38-3.24,30.16-10.84,44.31-17.27,30.32-13.78,43.43-48.85,61.56-65.43,20.34-18.6,43.71-47.49,64.79-38.2,38,16.75,59.89,55.92,66.15,67.54"/><path class="cls-35" d="M-5.73,347.47c-4,8.24-27-62.67,54.49-56.63C78.18,293,116,308,158.12,322.71c91.78,32.11,155.21,44.63,199.72,33.49,9.32-2.33,18.31-4.51,27.32-6.45,51.23-11,79.24-35.46,127.46-27.43,62.73,10.46,156.59,89,217.61,86.44,72.8-3.1,26.31-70.91,56.92-101.63a35.77,35.77,0,0,1,13-7.93c27.85-10.46,55.47-3.57,75.08,13.41,21.09,18.27,14.6,48.63,31.72,64.32,2.48,5.1,6.56,9.23,14.56,11,67.76,14.85,90.69,14.73,133.33,17.13a58,58,0,0,0,19.65-2.46c60.35-17.26,20.88-85.64,46.14-94.83,8.16-3,25-.32,46.08,9.71,29.57,14.09,64.14,23.72,79.09,36.48,25.75,22,8.77,57.89,55.45,62.22,23.53,2.18,43.44-1.76,62.82-5.9,16.64-3.57,30.76-11.38,45.52-17.5,32.15-13.33,45.44-49.66,64.74-65.24,21.42-17.29,46.52-47.06,67.69-36.66,36.62,18,59,58.93,67.15,70.09"/><path class="cls-36" d="M-5.13,344.44c-4.53,9.27-24.67-54.61,55.34-47.33,29.13,2.64,66.44,17.2,108.33,31,92.74,30.51,152.32,36.53,196.26,24.68,9.11-2.46,18-4.62,27-6.41,51-10.14,79.31-32,126-22.73,61.86,12.29,151.57,89.92,214,87.41,76.4-3.09,26.93-70.73,58-103.36a37.66,37.66,0,0,1,13-8.51c28.17-11.74,57.71-6.42,77.34,10.27,21.84,18.56,12.08,50.78,27.13,67.76,2,5.61,5.79,10.12,14.06,12,66.5,14.9,91.4,13.93,136.75,15.8a66.45,66.45,0,0,0,20.15-2.48c64.94-17.26,19.23-86.24,44.24-96.72,8.06-3.38,25.75-1.38,47.64,7.61,31.09,12.79,67.57,21.7,82,34.82,24.75,22.54,1.21,63,49.22,68.19,24.35,2.64,44.61-1.55,64.28-6.07,16.9-3.91,31.37-11.92,46.74-17.73,34-12.86,47.43-50.49,67.9-65,22.49-16,49.35-46.66,70.6-35.11,35.23,19.13,58,61.92,68.15,72.62"/><path class="cls-37" d="M-4.54,341.41c-5,10.29-22.34-46.53,56.21-38,28.82,3.12,65.69,17.29,107.29,30.11,93.7,28.86,149.44,28.42,192.8,15.86A268.35,268.35,0,0,1,378.44,343c50.83-9.25,79.38-28.52,124.62-18,61,14.16,146.55,90.83,210.45,88.38,80-3.08,27.56-70.55,59.13-105.09a39.88,39.88,0,0,1,13.1-9.09c28.49-13,60-9.28,79.62,7.12,22.59,18.86,9.55,52.94,22.53,71.2,1.45,6.12,5,11,13.56,13,65.25,14.92,92.1,13.16,140.16,14.47a76.76,76.76,0,0,0,20.67-2.49c69.53-17.22,17.58-86.84,42.32-98.62,8-3.79,26.49-2.46,49.2,5.52,32.64,11.46,71,19.68,84.86,33.16,23.74,23.08-6.36,68.08,43,74.16,25.16,3.1,45.77-1.35,65.73-6.25,17.17-4.24,32-12.44,47.95-18,35.83-12.38,49.41-51.32,71.08-64.85,23.54-14.71,52.18-46.32,73.51-33.58,33.85,20.21,57.09,64.93,69.14,75.17"/><path class="cls-38" d="M-3.94,338.38c-5.54,11.32-20-38.44,57.07-28.75,28.52,3.59,64.94,17.37,106.25,29.23,94.68,27.2,146.55,20.33,189.34,7.05a195.45,195.45,0,0,1,26.35-6.33c50.65-8.36,79.47-25,123.2-13.33,60.15,16.06,141.55,92.17,206.88,89.35,83.57-3.61,28.19-70.36,60.23-106.82a42.39,42.39,0,0,1,13.17-9.67c28.82-14.31,62.22-12.15,81.89,4,23.36,19.14,7,55.09,17.95,74.64.92,6.62,4.23,11.88,13.05,13.94,64,14.94,92.81,12.43,143.58,13.14a87.72,87.72,0,0,0,21.17-2.51c74.14-17.12,15.94-87.44,40.42-100.51,7.88-4.2,27.22-3.54,50.76,3.42,34.17,10.11,74.43,17.66,87.75,31.5,22.73,23.63-13.94,73.18,36.76,80.14,26,3.57,46.94-1.14,67.19-6.43,17.43-4.57,32.58-13,49.16-18.19,37.68-11.88,51.39-52.17,74.25-64.66,24.59-13.44,55-46,76.42-32,32.51,21.23,56.16,67.93,70.14,77.72"/><path class="cls-39" d="M-3.35,335.34C-9.39,347.7-21,305,54.59,315.9c28.22,4.07,64.2,17.42,105.21,28.35,95.67,25.5,143.66,12.24,185.88-1.78a153.17,153.17,0,0,1,26-6.28c50.45-7.47,79.53-21.46,121.78-8.63,59.29,18,136.53,93.07,203.29,90.31,87.18-3.6,28.84-70.15,61.34-108.54a44.76,44.76,0,0,1,13.25-10.25c29.13-15.6,64.48-15,84.15.83,24.13,19.43,8.2,56,13.36,78.09,1.62,6.95,3.45,12.76,12.55,14.93,62.75,14.92,93.52,11.71,147,11.8a101.22,101.22,0,0,0,21.69-2.53c78.74-17,14.29-88,38.51-102.39,7.78-4.62,28-4.65,52.31,1.31,35.73,8.75,77.87,15.64,90.64,29.84,21.73,24.17-21.51,78.29,30.53,86.12,26.8,4,48.12-.94,68.65-6.61,17.69-4.91,33.19-13.48,50.38-18.42,39.52-11.37,53.36-53,77.42-64.47,25.63-12.18,57.9-45.72,79.32-30.49,31.21,22.18,55.23,70.93,71.14,80.25"/><path class="cls-40" d="M-2.75,332.31C-9.3,345.7-18.1,310.09,56,322.16c27.92,4.55,63.47,17.46,104.19,27.48C256.88,373.4,301,353.79,342.64,339a125.06,125.06,0,0,1,25.71-6.24c50.25-6.59,79.6-17.88,120.36-3.93,58.42,20,131.51,94,199.71,91.28,90.78-3.59,29.49-69.95,62.44-110.27a47.31,47.31,0,0,1,13.32-10.83c29.44-16.9,66.75-17.89,86.43-2.31,24.89,19.7,5.48,58.61,8.76,81.52,1.08,7.56,2.68,13.64,12,15.92,61.51,14.91,94.23,11,150.41,10.47A117.65,117.65,0,0,0,1044,402.1c83.36-16.78,12.65-88.62,36.61-104.28,7.69-5,28.69-5.76,53.87-.78,37.27,7.37,81.3,13.6,93.52,28.17,20.74,24.71-29.08,83.41,24.31,92.1,27.6,4.49,49.28-.74,70.1-6.79,18-5.24,33.8-14,51.59-18.65,41.38-10.85,55.33-53.91,80.59-64.28,26.67-10.93,60.81-45.48,82.24-28.95,29.94,23.1,54.29,73.93,72.13,82.8"/><path class="cls-41" d="M-2.16,329.28c-7,14.41-13-14.1,59.66-.85,27.62,5,62.73,17.49,103.15,26.59,97.66,22,137.89-3.91,179-19.41a105.16,105.16,0,0,1,25.39-6.2c50.05-5.71,79.65-14.26,118.94.77,57.54,22,126.48,94.89,196.13,92.25,94.38-3.57,30.15-69.75,63.55-112A50.12,50.12,0,0,1,757,299c29.74-18.19,69-20.76,88.69-5.45,25.67,20,2.7,61.13,4.17,85,.5,8.14,1.9,14.52,11.55,16.9,60.27,14.88,95,6.79,153.82,9.14,7.64.31,15.13-1.15,22.71-2.57,88-16.54,11-89.21,34.7-106.17,7.59-5.44,29.42-6.88,55.42-2.88,38.81,6,84.74,11.58,96.42,26.52,19.73,25.24-36.66,88.51,18.07,98.07,28.42,5,50.45-.53,71.56-7,18.21-5.57,34.4-14.49,52.81-18.88,43.22-10.31,57.29-54.8,83.76-64.08,27.7-9.71,63.75-45.27,85.14-27.42,28.72,24,53.37,76.94,73.13,85.35"/><path class="cls-42" d="M-1.57,326.25c-7.54,15.44-10.69-6,60.53,8.44,27.31,5.53,62,17.51,102.11,25.72,98.67,20.2,135-12,175.49-28.23A89.28,89.28,0,0,1,361.62,326c49.86-4.84,79.7-10.63,117.52,5.46,56.65,24.1,121.47,95.81,192.56,93.22,98-3.55,30.81-69.54,64.65-113.73a53.35,53.35,0,0,1,13.46-12c30.05-19.5,71.29-23.64,91-8.59,26.45,20.23-.14,63.57-.43,88.41-.1,8.71,1.13,15.39,11,17.88,59,14.84,95.66,6.34,157.24,7.81,7.77.19,15.43-1.22,23.21-2.59,92.58-16.27,9.36-89.8,32.8-108.06,7.5-5.85,30.14-8,57-5,40.36,4.57,88.19,9.56,99.31,24.86,18.74,25.77-44.23,93.63,11.84,104,29.24,5.43,51.62-.33,73-7.15,18.46-5.91,35-15,54-19.11,45.07-9.77,59.25-55.71,86.93-63.89,28.75-8.5,66.73-45.09,88-25.87,27.55,24.81,52.44,79.93,74.14,87.89"/><path class="cls-43" d="M-1,323.22c-8,16.47-8.37,2.19,61.39,17.74,27,6,61.26,17.5,101.07,24.84,99.69,18.36,132.14-20,172-37.05a77.82,77.82,0,0,1,24.74-6.11c49.66-4,79.73-7,116.1,10.16,55.72,26.22,116.45,96.72,189,94.19,101.59-3.53,31.48-69.33,65.75-115.46A56.49,56.49,0,0,1,742.63,299c30.34-20.81,73.56-26.53,93.23-11.74,27.24,20.48-3,65.94-5,91.85-.72,9.27.36,16.26,10.55,18.87,57.79,14.79,96.34,5.95,160.65,6.49,7.9.06,15.74-1.31,23.73-2.62,97.19-16,7.71-90.39,30.88-109.95,7.42-6.26,30.88-9.14,58.54-7.07,41.88,3.14,91.62,7.52,102.2,23.19,17.74,26.31-51.81,98.75,5.61,110,30,5.91,52.78-.12,74.48-7.32,18.72-6.24,35.61-15.49,55.23-19.34,46.91-9.21,61.22-56.62,90.1-63.7,29.78-7.29,69.74-44.93,91-24.33,26.4,25.64,51.5,82.94,75.13,90.43"/><path class="cls-44" d="M-.38,320.19c-8.55,17.5-6,10.35,62.25,27,26.71,6.53,60.54,17.49,100,24,100.7,16.49,129.27-28.06,168.57-45.86a68.66,68.66,0,0,1,24.42-6.07c49.46-3.09,79.73-3.26,114.68,14.86C524.35,362.5,581,431.89,655,429.27c105.19-3.31,32.15-69.12,66.85-117.19a59.72,59.72,0,0,1,13.61-13.16C766.08,276.8,811.28,269.49,831,284c28,20.72-5.88,68.24-9.62,95.29-1.35,9.8-.41,17.13,10,19.85,56.56,14.74,97,5.63,164.07,5.16,8-.06,16-1.38,24.23-2.64,101.81-15.64,6.08-91,29-111.84,7.32-6.67,31.59-10.29,60.09-9.17,43.41,1.7,95.07,5.49,105.09,21.53,16.76,26.84-59.38,103.87-.62,116,30.86,6.38,54,.09,75.94-7.5,19-6.57,36.21-16,56.44-19.57,48.76-8.65,63.19-57.55,93.27-63.5,30.83-6.11,72.8-44.81,93.87-22.8,25.31,26.45,50.57,85.94,76.13,93"/><path class="cls-45" d="M.22,317.15c-9.06,18.54-3.74,18.54,63.11,36.34,26.4,7,59.81,17.46,99,23.08,101.72,14.57,126.41-36.1,165.11-54.69a62,62,0,0,1,24.1-6c49.24-2.5,79.72.47,113.26,19.56C518.57,366,571.21,434.1,646.61,431.55c108.8-3.31,32.84-68.91,68-118.92a63.13,63.13,0,0,1,13.68-13.74c30.93-23.44,78.12-32.32,97.78-18,28.83,21-8.75,70.48-14.2,98.74-2,10.31-1.19,18,9.54,20.84,55.33,14.66,97.75,5.36,167.48,3.82,8.16-.18,16.36-1.45,24.75-2.66,106.41-15.27,4.48-91.52,27.07-113.73,7.24-7.06,32.31-11.43,61.65-11.26,44.93.25,98.51,3.46,108,19.87,15.78,27.36-67,109-6.85,122,31.68,6.85,55.13.29,77.4-7.68,19.24-6.91,36.81-16.48,57.66-19.8,50.59-8.07,65.16-58.49,96.44-63.31,31.88-4.92,75.9-44.7,96.77-21.25,24.27,27.25,49.64,88.94,77.13,95.52"/><path class="cls-46" d="M.81,314.12c-9.56,19.56-1.43,26.73,64,45.63,26.09,7.54,59.07,17.43,98,22.2,102.74,12.62,123.55-44.11,161.65-63.5a54.8,54.8,0,0,1,23.77-6c49.07-1.35,79.69,4.21,111.84,24.26,52.74,32.87,101.39,99.57,178.24,97.1,112.4-3.3,33.53-68.69,69.07-120.65a66.7,66.7,0,0,1,13.75-14.32c31.21-24.76,80.4-35.22,100-21.17,29.62,21.19-11.63,72.67-18.8,102.17-2.63,10.82-2,18.86,9,21.83,54.11,14.59,98.59,7.38,170.9,2.49,8.27-.56,16.66-1.53,25.25-2.68,111-14.88,2.84-92.11,25.17-115.61,7.15-7.48,33-12.6,63.2-13.37,46.45-1.19,102,1.43,110.87,18.21,14.8,27.89-74.54,114.1-13.08,128,32.49,7.32,56.29.5,78.85-7.86,19.5-7.24,37.42-17,58.87-20,52.44-7.49,67.15-59.43,99.61-63.12,32.94-3.74,79.06-44.61,99.69-19.71,23.25,28.06,48.7,91.94,78.12,98.07"/><path class="cls-47" d="M1.41,311.09C-8.66,331.68,2.28,346,66.25,366c25.77,8.06,58.34,17.37,96.93,21.32C266.92,398,283.88,335.21,321.37,315a49.27,49.27,0,0,1,23.44-5.94c48.87-.49,79.61,8,110.42,29,51.65,35.17,96.37,100.47,174.66,98.07,116-3.3,34.22-68.47,70.17-122.38a70.45,70.45,0,0,1,13.82-14.9c31.5-26.08,82.69-38.13,102.32-24.32,30.43,21.41-14.49,74.82-23.39,105.62-3.27,11.31-2.73,19.72,8.54,22.81,52.88,14.51,99.33,6.84,174.31,1.16,8.41-.64,17-1.6,25.77-2.7,115.62-14.46,1.19-92.71,23.26-117.5,7-7.89,33.76-13.19,64.76-15.47,47.89-3.52,105.41-.6,113.75,16.55,13.82,28.42-82.14,119.34-19.31,133.93,33.29,7.85,57.46.7,80.31-8,19.76-7.57,38-17.45,60.09-20.26,54.27-6.91,69.13-60.38,102.77-62.92,34-2.57,82.26-44.53,102.6-18.18,22.28,28.87,47.77,94.95,79.12,100.61"/><path class="cls-48" d="M2,308.06c-10.57,21.62,3.16,43.14,65.7,64.22,25.46,8.58,57.61,17.31,95.9,20.45,104.74,8.58,117.86-60.13,154.73-81.14a44.58,44.58,0,0,1,23.12-5.9c48.67.29,79.51,11.76,109,33.66,50.5,37.51,91.34,101.37,171.08,99,119.6-3.3,34.91-68.26,71.27-124.11a74.13,74.13,0,0,1,13.9-15.48c31.77-27.4,85-41,104.58-27.46,31.25,21.61-17.34,76.93-28,109.06-3.9,11.78-3.5,20.57,8,23.79,51.66,14.43,100.07,6.32,177.73-.17,8.53-.71,17.27-1.67,26.28-2.72,120.22-14-.46-93.3,21.35-119.39,7-8.3,34.42-14.91,66.31-17.56,49.46-4.12,108.87-2.64,116.64,14.88,12.85,28.95-89.71,124.44-25.54,139.91,34.11,8.31,58.63.9,81.77-8.22,20-7.91,38.62-17.94,61.3-20.49,56.11-6.32,71.13-61.33,106-62.73,35.07-1.41,85.5-44.46,105.5-16.63,21.35,29.68,46.85,97.94,80.12,103.15"/><path class="cls-49" d="M2.6,305C-8.47,327.68,8,356.39,69.16,378.55A337.72,337.72,0,0,0,164,398.11c105.74,6.5,115-68.12,151.27-89.95a40.77,40.77,0,0,1,22.8-5.86c48.48,1.18,79.38,15.54,107.58,38.36,49.29,39.88,86.32,102.27,167.5,100,123.2-3.29,35.61-68,72.37-125.84a78.83,78.83,0,0,1,14-16.07c32-28.71,87.26-43.94,106.86-30.6,32.06,21.82-20.2,79-32.58,112.5-4.53,12.26-4.27,21.43,7.54,24.78,50.45,14.33,100.82,5.81,181.14-1.5,8.66-.79,17.58-1.73,26.79-2.74,124.82-13.56-2.1-93.9,19.44-121.28,6.87-8.71,35.13-16.07,67.87-19.66,51-5.59,112.33-4.66,119.54,13.23C1208,303,1098.82,403,1164.34,419.37c34.92,8.77,59.79,1.11,83.22-8.4,20.28-8.24,39.22-18.42,62.52-20.72,57.94-5.72,73.12-62.29,109.11-62.54,36.15-.24,88.79-44.39,108.42-15.09,20.45,30.52,45.91,100.95,81.11,105.7"/><path class="cls-50" d="M3.19,302c-11.57,23.68,7.72,59.61,67.43,82.82,24.81,9.65,56.11,17.14,93.82,18.69,106.72,4.37,112.22-76.11,147.81-98.77a37.34,37.34,0,0,1,22.47-5.81C383,301,413.94,318.24,440.89,342c48,42.27,81.3,103.17,163.92,101,126.8-3.29,36.38-67.78,73.47-127.57a82.82,82.82,0,0,1,14.05-16.65c32.28-30.07,89.54-46.85,109.12-33.74,32.89,22-23,81.07-37.17,115.94-5.16,12.73-5,22.28,7,25.77,49.23,14.23,101.57,5.31,184.56-2.84,8.79-.86,17.87-1.8,27.3-2.76,129.41-13.08-3.74-94.49,17.53-123.17,6.78-9.12,35.82-17.23,69.43-21.76,52.44-7.05,115.8-6.7,122.42,11.57,11,30-104.87,134.63-38,151.86,35.73,9.23,61,1.31,84.69-8.58,20.53-8.57,39.81-18.86,63.72-20.95,59.78-5,75.13-63.26,112.29-62.34s92.11-44.33,111.32-13.56c19.59,31.38,45,104,82.11,108.24"/><path class="cls-51" d="M3.78,299C-13.36,334.05,38.31,406.3,164.86,408.88s106.77-117,166.5-113.35c135.32,8.26,134.68,153,265.08,149.7s37-67.6,74.58-129.29c25.16-41.33,102.58-69.23,125.52-54.13,46,30.26-81.5,132.52-35.23,146.14,53,15.6,113.71,2.64,215.78-6.94,134-12.59-5.38-95.09,15.63-125.07,17.14-24.44,186.34-44.49,196.3-13.95s-112.45,139.74-44.24,157.83,98.24-26.06,151.08-29.93c61.61-4.51,77.15-64.22,115.46-62.15s95.48-44.26,114.23-12,44,107,83.11,110.78"/></g><g class="cls-52"><path class="cls-53" d="M449.89,324.24S421.26,304,471.31,290.12s158.54,22.18,197.22,5.57,36.22-80,73.85-90.66,89.9,24.25,116,15.25,24.42-53.85,49.08-59.68,43.8,59.24,88.52,63.78c56.5,5.74,38.69-54.14,41-75.26s23.68-55.76,81.69,25.78,93,51.14,132.21,38.82,3.58-147,31.3-146.33,45.58,28.7,45.48,44.55"/><path class="cls-54" d="M449.42,321.09c0,.81-27.14-18.35,22-29.87,16.27-3.81,38.86-2.21,63.3-.09,39.67,3.43,79,6.43,109,5.22,9.53-.39,17.74-1.54,24.13-3.93,33-12.46,36.88-54.49,60.92-75.24a42.52,42.52,0,0,1,15.66-8.78c20.73-6.28,42.69-1.47,64.2,4.1,19,4.91,37.72,9.16,50.1,5.08,26-8.56,22.65-49,46-52.77,5.29-.85,10.46,1.86,16,6.27,18.76,14.95,39.53,52.08,74.62,54.77a61.91,61.91,0,0,0,16.12-.63c37.71-7.08,22.35-56.6,23.43-76.1.35-6.2,2.36-13.42,6.4-18.75,9.7-12.79,33.4-16,69.41,32.18,2.16,2.9,4.29,6.06,6.53,9.39,34.26,51,59.84,61.48,85.25,57.47,15.57-2.45,29.6-10.13,44.29-15.25,5.92-2.09,10.15-6.85,13.45-13.2,7.71-14.85,7.89-41.15,8.55-64.41.54-19.16,1-40,3.16-51.44,1.83-9.58,4.66-15.42,10.8-14.9,27.31,2.33,45.44,30.72,46.06,45.9"/><path class="cls-55" d="M449,317.94c0,1.62-25.58-16.41,22.51-25.61,16.41-3.14,39.29-.67,64.14,1.1,41,2.9,76.78.48,106.95-.79,9.69-.41,18-1.39,24.55-3.49,33.62-10.86,37.79-48.08,63.29-68.58a49.49,49.49,0,0,1,16-8.79c21.5-6.92,41.33-4.46,62.23,0,18.45,4,37.84,7,50.34,3.08,25.83-8.12,20.92-44.27,42.93-45.88,5-.36,9.92,2.7,15.5,7,19.16,14.76,41.44,49.44,77.13,51.31a66,66,0,0,0,16.36-.95c38.44-7.67,21.66-57.06,21.79-77.25,0-6.37,1.82-13.65,5.69-19.09,9.49-13.33,36-18.23,70.92,29.28,2.15,2.94,4.18,6.23,6.37,9.67,32.36,51,56.25,64.79,82.16,61.48,16.15-2.07,30.09-10.2,44.71-15.86,5.93-2.3,10.19-7.2,13.78-13.36,8.64-14.79,8.57-42.57,10.23-64.89,1.37-18.42,3.07-40.5,5.62-50.25,2.28-8.76,4.86-14,11-13.06,26.89,3.94,45.3,32.73,46.64,47.25"/><path class="cls-56" d="M448.49,314.79c0,2.43-23.94-14.4,23.07-21.36,16.58-2.45,39.72.88,65,2.29,42.31,2.37,74.56-5.46,104.89-6.78,9.86-.44,18.32-1.25,25-3.06,34.16-9.32,38.7-41.66,65.66-61.91a58.3,58.3,0,0,1,16.36-8.82c22.26-7.56,40-7.44,60.25-4,17.89,3,38,4.84,50.58,1.06,25.67-7.68,19.4-41.43,39.87-39,4.6.55,9.37,3.53,15,7.73,19.58,14.52,43.35,46.8,79.65,47.84a70.49,70.49,0,0,0,16.59-1.27c39.18-8.27,21-57.52,20.14-78.4-.26-6.53,1.3-13.88,5-19.42,9.28-13.9,38.63-20.44,72.42,26.38,2.15,3,4.08,6.38,6.22,9.95,30.49,51,52.66,68.1,79.06,65.47,16.74-1.66,30.57-10.28,45.13-16.46,5.94-2.53,10.24-7.56,14.12-13.53,9.58-14.73,9.23-44,11.9-65.36,2.21-17.68,5.16-40.91,8.07-49.06,2.82-7.87,5.06-12.51,11.18-11.23,26.44,5.53,45.16,34.76,47.22,48.61"/><path class="cls-57" d="M448,311.64c0,3.24-22.23-12.29,23.62-17.1,16.79-1.77,40.15,2.41,65.81,3.48,43.64,1.81,72.35-11.41,102.84-12.79,10-.46,18.61-1.1,25.4-2.63,34.7-7.78,39.6-35.25,68-55.24a69.16,69.16,0,0,1,16.71-8.83c23-8.22,38.57-10.43,58.27-8.09,17.32,2.06,38.09,2.68,50.81-.94,25.5-7.26,17.67-34.73,36.8-32.08,4.33.6,8.84,4.37,14.57,8.46,20,14.3,45.27,43.69,82.17,44.38a70.56,70.56,0,0,0,16.81-1.59c39.92-8.86,20.31-58,18.51-79.54-.56-6.71.76-14.13,4.29-19.77,9.06-14.47,41.24-22.63,73.93,23.48a117.8,117.8,0,0,1,6.06,10.23c28.7,50.87,49.07,71.44,76,69.48,17.33-1.26,31.06-10.38,45.55-17.08,6-2.74,10.3-7.9,14.45-13.68,10.56-14.68,9.91-45.42,13.58-65.83,3-17,5.89-42,10.53-47.87,1.91-7.43,5.24-11.08,11.37-9.41,26,7.08,45,36.78,47.79,50"/><path class="cls-58" d="M447.56,308.49c0,4.06-20.26-17.94,24.16-12.85,16.94,1.94,40.59,3.94,66.65,4.67,45,1.26,70.13-17.35,100.79-18.78,10.18-.49,18.89-1,25.82-2.2,35.24-6.25,40.49-28.84,70.41-48.57a84.65,84.65,0,0,1,17.06-8.86c23.78-8.88,37.18-13.4,56.29-12.14,16.75,1.1,38.21.51,51.06-2.95,25.33-6.85,16.16-29.92,33.72-25.18,4.06,1.09,8.31,5.19,14.11,9.18,20.43,14.07,47.17,41.56,84.68,40.92a80,80,0,0,0,17.05-1.91c40.65-9.45,19.64-58.44,16.86-80.69-.86-6.87.22-14.37,3.59-20.11,8.84-15,43.83-24.8,75.45,20.58a104.24,104.24,0,0,1,5.89,10.52c26.95,50.72,45.49,74.78,72.88,73.48,17.92-.85,31.54-10.48,46-17.69,6-3,10.37-8.25,14.79-13.84,11.55-14.63,10.6-46.87,15.26-66.31,3.89-16.24,7.63-42.65,13-46.68,2-6.7,5.44-9.64,11.56-7.58,25.51,8.59,44.87,38.8,48.38,51.33"/><path class="cls-59" d="M447.09,305.33c0,4.88-17.91-16.56,24.72-8.59,17,3.18,41,5.47,67.48,5.87,46.29.69,67.92-23.3,98.73-24.78,10.35-.52,19.18-.84,26.25-1.77,35.77-4.74,41.38-22.45,72.78-41.91a107.05,107.05,0,0,1,17.41-8.88c24.54-9.55,35.81-17,54.32-16.2,16.15.74,38.33-1.65,51.29-5,25.16-6.43,14.72-25,30.65-18.28,3.81,1.61,7.78,6,13.65,9.92,20.86,13.82,49.07,38.94,87.2,37.46a86.4,86.4,0,0,0,17.28-2.24c41.38-10.05,19-58.9,15.22-81.84-1.16-7-.33-14.61,2.89-20.44,8.61-15.63,46.4-27,77,17.67,2.11,3.08,3.76,6.84,5.74,10.8,25.24,50.53,41.91,78.14,69.78,77.48,18.52-.43,32-10.58,46.39-18.29,6-3.2,10.45-8.6,15.12-14,12.58-14.56,11.3-48.31,16.94-66.78,4.75-15.53,9.38-43.3,15.42-45.49,2.16-6,5.63-8.21,11.76-5.74,25,10.06,44.73,40.81,49,52.68"/><path class="cls-60" d="M446.63,302.18c0,5.69-15.46-14.83,25.26-4.33,17,4.38,41.46,7.41,68.32,7,47.62-.64,65.7-29.24,96.68-30.78,10.51-.54,19.46-.7,26.67-1.34,36.3-3.21,42.26-16,75.16-35.23a137.65,137.65,0,0,1,17.76-8.9c25.29-10.23,34.38-19.36,52.33-20.26,15.59-.79,38.45-3.82,51.53-7,25-6,13.31-20,27.59-11.38,3.56,2.14,7.24,6.85,13.18,10.64,21.29,13.59,51,36.34,89.72,34a94,94,0,0,0,17.51-2.56c42.12-10.64,18.32-59.36,13.57-83-1.45-7.21-.87-14.87,2.19-20.79,8.37-16.22,49-29.13,78.46,14.77,2.1,3.12,3.66,7,5.58,11.09,23.6,50.29,38.35,80.63,66.69,81.48,19.11.58,32.5-10.69,46.81-18.9,6-3.43,10.54-8.94,15.46-14.17,13.61-14.5,12-49.77,18.61-67.25,5.61-14.84,11.13-44,17.88-44.31,2.28-5.23,5.81-6.79,12-3.91,24.56,11.51,44.58,42.84,49.53,54"/><path class="cls-61" d="M446.16,299c0,6.5-13-12.75,25.81-.08,17,5.56,41.9,8.5,69.16,8.25,49-.46,63.48-35.18,94.62-36.78,10.67-.57,19.75-.57,27.1-.91,36.82-1.71,43.14-9.65,77.53-28.57A190.19,190.19,0,0,1,758.49,232c26-10.92,33-22.32,50.36-24.32,15-1.73,38.57-6,51.77-9,24.8-5.61,11.88-14.78,24.51-4.48,3.32,2.71,6.72,7.69,12.72,11.37,21.73,13.35,52.88,33.74,92.23,30.54a102.6,102.6,0,0,0,17.75-2.87c42.85-11.24,17.67-59.83,11.93-84.14-1.74-7.37-1.42-15.12,1.48-21.13,8.13-16.81,51.52-31.27,80,11.87,2.09,3.17,3.56,7.14,5.42,11.37,22,50,34.76,84.88,63.6,85.49,19.71.42,33-10.8,47.23-19.51,6-3.66,10.64-9.27,15.79-14.33,14.67-14.42,12.73-51.24,20.29-67.73,6.49-14.14,12.88-44.6,20.33-43.11,2.41-4.5,6-5.38,12.14-2.09,24.1,12.92,44.45,44.86,50.11,55.39"/><path class="cls-62" d="M445.69,295.88c0,7.31-10.44-10.32,26.36,4.18,17,6.7,42.34,10,70,9.43,50.28-1,61.27-41.12,92.57-42.78,10.83-.59,20-.28,27.52-.47,37.33-.95,44-3.27,79.9-21.9,6.42-3.33,12.48-6.34,18.46-8.94,26.8-11.63,31.56-25.28,48.38-28.39,14.4-2.65,38.69-8.16,52-11,24.63-5.22,10.4-9.5,21.44,2.42,3.06,3.3,6.19,8.51,12.26,12.1,22.17,13.1,54.79,31.14,94.75,27.07a111.33,111.33,0,0,0,18-3.19c43.58-11.84,17-60.29,10.28-85.29-2-7.54-2-15.37.79-21.46,7.87-17.42,54.05-33.42,81.47,9,2.08,3.21,3.47,7.28,5.27,11.65,20.45,49.73,31.18,88.26,60.5,89.5,20.31.85,33.46-10.91,47.66-20.13,6-3.88,10.73-9.59,16.12-14.49,15.74-14.32,13.47-52.7,22-68.2,7.38-13.45,14.63-45.25,22.79-41.92,2.53-3.77,6.19-4,12.33-.26,23.64,14.31,44.3,46.88,50.69,56.75"/><path class="cls-63" d="M445.23,292.73c-.06,8.12-11,2.59,26.91,8.43,18.5,2.85,42.77,11.52,70.83,10.63,51.61-1.63,59-47.07,90.52-48.78,11-.62,20.3-.3,27.94,0,37.87,1.27,44.89,3.11,82.28-15.24,6.64-3.26,12.82-6.27,18.81-9,27.54-12.34,30.13-28.23,46.39-32.44,13.81-3.58,38.81-10.34,52.25-13,24.45-4.82,8.83-4.14,18.38,9.32,2.77,3.92,5.65,9.34,11.79,12.83C913.94,228.34,948,244,988.6,239.09a121.86,121.86,0,0,0,18.21-3.51c44.31-12.43,16.37-60.75,8.64-86.44-2.32-7.7-2.53-15.62.08-21.8,7.61-18,56.58-35.54,83,6.07,2.06,3.24,3.38,7.42,5.11,11.93,19,49.4,27.6,91.65,57.41,93.49,20.9,1.3,33.94-11,48.08-20.73,6-4.12,10.84-9.92,16.45-14.65,16.83-14.21,14.23-54.17,23.65-68.67,8.28-12.76,16.37-45.91,25.23-40.74,2.65-3,6.39-2.57,12.53,1.58,23.2,15.67,44.16,48.9,51.26,58.1"/><path class="cls-64" d="M444.76,289.58c-.06,8.93-9.09,5.44,27.46,12.68,18.83,3.73,43.21,13,71.67,11.83,52.94-2.24,56.83-53,88.46-54.78a212.15,212.15,0,0,1,28.36.38c38.4,2.76,45.77,9.49,84.66-8.56,6.88-3.19,13.17-6.22,19.16-9C792.81,229.09,793.24,211,809,205.64c13.2-4.48,38.92-12.52,52.49-15,24.26-4.44,7.16,1.23,15.3,16.22,2.46,4.53,5.13,10.16,11.34,13.56,23,12.6,58.59,26,99.77,20.14a131.54,131.54,0,0,0,18.44-3.83c45-13,15.74-61.21,7-87.58-2.61-7.88-3.08-15.89-.62-22.14,7.35-18.64,59.09-37.67,84.5,3.16,2,3.28,3.28,7.56,4.94,12.21,17.51,49.06,24,95.05,54.32,97.5,21.5,1.74,34.42-11.13,48.5-21.34,6-4.35,11-10.24,16.78-14.81,17.94-14.08,15-55.64,25.33-69.15,9.2-12.06,18.12-46.55,27.69-39.55,2.77-2.3,6.58-1.17,12.71,3.41,22.78,17,44,50.92,51.85,59.46"/><path class="cls-65" d="M444.29,286.43c-.06,9.74-7.17,8.39,28,16.94,19.15,4.65,43.64,14.52,72.51,13,54.27-2.84,54.62-59,86.41-60.78a168.89,168.89,0,0,1,28.78.82c38.92,4.24,46.64,15.86,87-1.9,7.11-3.12,13.52-6.15,19.52-9,29-13.79,27.28-34.09,42.43-40.56,12.61-5.38,39-14.7,52.73-17,24.08-4.06,5.42,6.58,12.23,23.12,2.12,5.15,4.6,11,10.88,14.28,23.48,12.35,60.49,23.4,102.29,16.68a145.61,145.61,0,0,0,18.67-4.15c45.79-13.62,15.1-61.67,5.36-88.73-2.9-8-3.65-16.14-1.32-22.48,7.06-19.26,61.59-39.78,86,.26,2,3.33,3.2,7.7,4.79,12.5,16.09,48.69,20.44,98.45,51.22,101.5,22.09,2.18,34.89-11.25,48.92-22,6-4.58,11.07-10.55,17.12-15,19-13.93,15.81-57.08,27-69.62C1255,123,1264.74,87.18,1275,96c2.9-1.57,6.79.21,12.91,5.23,22.37,18.35,43.87,52.94,52.42,60.82"/><path class="cls-66" d="M443.83,283.28c-.07,10.55-5.27,11.41,28.56,21.19,19.46,5.63,44.07,16,73.34,14.21,55.6-3.45,52.4-64.91,84.36-66.78a140.65,140.65,0,0,1,29.2,1.25c39.45,5.71,47.51,22.22,89.41,4.77,7.33-3.06,13.86-6.1,19.86-9,29.75-14.53,25.87-37,40.46-44.63,12-6.27,39.15-16.89,53-19,23.9-3.68,3.62,11.91,9.16,30,1.77,5.77,4.08,11.81,10.42,15,23.93,12.1,62.4,20.84,104.81,13.22a159.52,159.52,0,0,0,18.9-4.47c46.52-14.21,14.47-62.14,3.71-89.88-3.18-8.21-4.21-16.4-2-22.82,6.77-19.87,64.08-41.88,87.51-2.64,2,3.37,3.12,7.84,4.63,12.78,14.73,48.32,16.86,101.86,48.13,105.5,22.69,2.64,35.37-11.36,49.34-22.55,6-4.82,11.19-10.86,17.45-15.14,20.17-13.77,16.63-58.52,28.68-70.09,11.09-10.65,21.62-47.86,32.59-37.17,3-.83,7,1.6,13.11,7.06,22,19.67,43.73,55,53,62.17"/><path class="cls-67" d="M443.36,280.12c-.07,11.37-3.4,14.52,29.11,25.46,19.75,6.64,44.51,17.51,74.18,15.39,56.93-4.06,50.19-70.85,82.3-72.78a122.25,122.25,0,0,1,29.63,1.69c40,7.18,48.38,28.58,91.78,11.43,7.57-3,14.21-6,20.21-9,30.48-15.27,24.46-39.9,38.48-48.68,11.42-7.15,39.27-19.08,53.21-21,23.71-3.32,1.78,17.2,6.09,36.92,1.39,6.37,3.54,12.62,9.95,15.74,24.37,11.83,64.31,18.27,107.32,9.75a178.3,178.3,0,0,0,19.14-4.79c47.25-14.8,13.84-62.61,2.06-91-3.47-8.37-4.77-16.66-2.72-23.15,6.48-20.5,66.56-44,89-5.55,2,3.41,3.05,8,4.47,13.06,13.41,47.94,13.28,105.28,45,109.51,23.29,3.1,35.85-11.48,49.77-23.16,6-5.05,11.31-11.17,17.79-15.3,21.29-13.59,17.45-59.95,30.36-70.57,12-9.91,23.36-48.5,35-36,3.14-.1,7.21,3,13.29,8.9,21.6,21,43.59,57,53.58,63.52"/><path class="cls-68" d="M442.9,277c-.08,12.18-1.57,17.69,29.65,29.71,20,7.71,44.95,19,75,16.59,58.25-4.69,48-76.8,80.25-78.78a109.87,109.87,0,0,1,30,2.11c40.51,8.65,49.25,35,94.15,18.11a193.58,193.58,0,0,0,20.57-9.07c31.2-16,23.06-42.79,36.5-52.74,10.83-8,39.37-21.27,53.44-23,23.52-3-.08,22.45,3,43.82,1,7,3,13.45,9.49,16.47,24.82,11.57,66.22,15.71,109.84,6.29,6.86-1.48,13.33-3.16,19.37-5.11,48-15.4,13.2-63.08.42-92.17-3.76-8.55-5.35-16.92-3.42-23.5,6.17-21.11,69-46.07,90.52-8.45,2,3.46,3,8.11,4.32,13.35,12.11,47.55,9.69,108.7,41.93,113.51,23.88,3.56,36.32-11.6,50.19-23.78,6-5.28,11.43-11.46,18.12-15.46,22.42-13.39,18.28-61.35,32-71,13-9.16,25.11-49.15,37.49-34.79,3.27.64,7.43,4.37,13.49,10.73,21.24,22.28,43.45,59,54.16,64.88"/><path class="cls-69" d="M442.43,273.82c-.08,13,.23,20.91,30.21,34,20.26,8.83,45.38,20.5,75.85,17.78,59.58-5.31,45.75-82.74,78.2-84.77a99.46,99.46,0,0,1,30.47,2.54c41,10.1,50.12,41.3,96.53,24.77A160.71,160.71,0,0,0,774.6,259c31.92-16.78,21.67-45.67,34.52-56.8,10.26-8.88,39.49-23.47,53.68-25.05,23.34-2.6-1.95,27.65,0,50.72.62,7.55,2.49,14.27,9,17.19,25.27,11.31,68.13,13.16,112.36,2.83,6.9-1.61,13.46-3.4,19.6-5.42,48.71-16,12.58-63.56-1.23-93.33-4-8.72-5.91-17.18-4.12-23.84,5.85-21.73,71.47-48.15,92-11.34,2,3.5,2.92,8.23,4.16,13.62,10.87,47.16,6.11,112.13,38.84,117.51,24.47,4,36.79-11.71,50.61-24.38,6-5.52,11.55-11.75,18.46-15.62,23.55-13.18,19.11-62.74,33.71-71.52,14-8.4,26.86-49.8,40-33.59,3.39,1.36,7.65,5.74,13.68,12.55,20.89,23.59,43.3,61,54.73,66.24"/><path class="cls-70" d="M442,270.67c-.09,13.81,2,24.17,30.76,38.22,20.46,10,45.81,22,76.69,19,60.9-5.95,43.54-88.69,76.14-90.78a91.76,91.76,0,0,1,30.9,3c41.58,11.56,51,47.65,98.9,31.44a137.89,137.89,0,0,0,21.26-9.11c32.64-17.54,20.3-48.55,32.55-60.86,9.7-9.74,39.6-25.67,53.92-27.05,23.15-2.25-3.83,32.83-3.13,57.61.24,8.13,2,15.09,8.57,17.93,25.72,11,70.05,10.61,114.87-.63,7-1.75,13.6-3.65,19.84-5.75,49.45-16.59,11.95-64-2.87-94.48-4.33-8.89-6.49-17.44-4.83-24.17,5.53-22.36,73.91-50.23,93.55-14.25,1.93,3.54,2.85,8.37,4,13.91,9.65,46.76,2.53,115.55,35.75,121.51,25.06,4.5,37.26-11.84,51-25,6-5.75,11.66-12,18.78-15.78,24.69-12.95,19.94-64.12,35.39-72,15-7.62,28.61-50.45,42.4-32.41,3.52,2.1,7.88,7.13,13.87,14.38,20.57,24.89,43.17,63,55.32,67.6"/><path class="cls-71" d="M441.5,267.52c-.1,14.62,3.66,27.46,31.3,42.47,20.62,11.2,46.25,23.47,77.53,20.16,62.23-6.58,41.32-94.63,74.09-96.77a85.44,85.44,0,0,1,31.32,3.4c42.12,13,51.86,54,101.27,38.11a122.89,122.89,0,0,0,21.62-9.12c33.34-18.32,18.93-51.43,30.56-64.92,9.15-10.61,39.72-27.88,54.16-29.07,23-1.9-5.71,38-6.19,64.52-.16,8.69,1.43,15.91,8.1,18.65,26.17,10.76,72,8.07,117.39-4.09,7-1.88,13.72-3.89,20.07-6.07,50.18-17.19,11.32-64.51-4.52-95.63-4.61-9.06-7.06-17.69-5.52-24.51,5.19-23,76.33-52.3,95.05-17.15,1.91,3.59,2.8,8.51,3.84,14.19,8.46,46.38-1.07,119,32.65,125.52,25.65,5,37.73-12,51.46-25.6,6-6,11.78-12.34,19.12-16,25.83-12.7,20.77-65.47,37.06-72.46,15.93-6.82,27.73-48.89,44.85-31.22a184.76,184.76,0,0,1,14.07,16.22c20.24,26.19,43,65.06,55.89,69"/><path class="cls-72" d="M441,264.37c-.1,15.43,5.3,30.76,31.85,46.73,20.73,12.45,46.69,24.95,78.37,21.35,63.55-7.22,39.1-100.58,72-102.78A80.54,80.54,0,0,1,655,233.51c42.66,14.47,52.72,60.36,103.65,44.78a111.06,111.06,0,0,0,22-9.15c34.05-19.1,17.58-54.3,28.59-69,8.6-11.46,39.83-30.08,54.39-31.07,22.79-1.56-7.58,43.12-9.26,71.41-.55,9.26.91,16.73,7.64,19.38,26.62,10.49,73.89,5.53,119.91-7.55,7.05-2,13.85-4.13,20.29-6.39,50.92-17.78,10.71-65-6.15-96.77-4.9-9.24-7.65-18-6.23-24.85,4.85-23.61,78.75-54.37,96.56-20.06,1.89,3.64,2.75,8.64,3.68,14.47,7.32,46-4.66,122.42,29.56,129.53,26.23,5.44,38.19-12.09,51.88-26.21,6-6.23,11.9-12.62,19.45-16.11,27-12.45,21.59-66.82,38.75-72.94,16.88-6,30-50.11,47.3-30,3.38,3.93,8.34,9.89,14.26,18,19.93,27.5,42.87,67.09,56.47,70.3"/><path class="cls-73" d="M440.56,261.22c-.1,16.24,6.88,34.08,32.41,51,20.77,13.75,47.11,26.44,79.2,22.55,64.87-7.87,36.89-106.53,70-108.78a76.35,76.35,0,0,1,32.17,4.27c43.2,15.91,53.59,66.7,106,51.44a102.3,102.3,0,0,0,22.31-9.16c34.75-19.89,16.24-57.18,26.61-73,8.07-12.33,40-32.3,54.64-33.09,22.59-1.21-9.47,48.24-12.34,78.32-.93,9.82.39,17.55,7.18,20.11,27.07,10.2,75.81,3,122.42-11,7.11-2.14,14-4.37,20.53-6.71,51.65-18.37,10.08-65.46-7.8-97.92-5.18-9.4-8.22-18.21-6.93-25.19,4.5-24.22,81.16-56.43,98.07-23,1.86,3.69,2.71,8.78,3.52,14.76,6.19,45.63-8.25,125.85,26.47,133.52,26.82,5.93,38.66-12.2,52.3-26.82,6-6.45,12-12.9,19.79-16.26,28.1-12.18,22.4-68.16,40.42-73.41,17.84-5.2,32.22-51.22,49.75-28.84,3.58,4.56,8.58,11.26,14.45,19.87,19.64,28.81,42.74,69.11,57,71.66"/><path class="cls-74" d="M440.1,258.07c-.11,17.05,8.38,37.4,32.95,55.23,20.77,15.08,47.54,27.92,80,23.74,66.19-8.52,34.67-112.46,67.93-114.77A72.81,72.81,0,0,1,653.6,227c43.76,17.36,54.47,73,108.4,58.11a95.11,95.11,0,0,0,22.67-9.19c35.44-20.68,14.9-60.06,24.63-77.1,7.53-13.19,40.05-34.51,54.87-35.09,22.41-.88-11.34,53.34-15.4,85.21-1.33,10.38-.15,18.37,6.72,20.84,27.51,9.92,77.72.46,124.93-14.48,7.16-2.27,14.11-4.61,20.76-7,52.38-19,9.46-65.94-9.44-99.07-5.47-9.57-8.81-18.47-7.64-25.53,4.14-24.84,83.55-58.49,99.58-25.86,1.84,3.74,2.68,8.91,3.37,15,5.09,45.28-11.85,129.3,23.37,137.53,27.4,6.4,39.12-12.33,52.72-27.43,6-6.69,12.13-13.18,20.12-16.43,29.24-11.89,23.2-69.48,42.1-73.88s34.43-52.25,52.21-27.65c3.77,5.21,8.82,12.64,14.64,21.7,19.35,30.12,42.59,71.13,57.63,73"/><path class="cls-75" d="M439.63,254.92c-.11,17.86,9.84,40.71,33.5,59.49,20.71,16.43,48,29.34,80.88,24.93,67.5-9.29,32.46-118.41,65.87-120.78,13-.92,23.74,1.18,33,5.13,44.35,18.73,55.32,79.31,110.78,64.78a89.61,89.61,0,0,0,23-9.21c36.13-21.47,13.58-62.94,22.65-81.15,7-14.07,40.17-36.73,55.11-37.11,22.24-.55-13.2,58.44-18.47,92.12-1.71,10.93-.67,19.18,6.26,21.57,28,9.63,79.65-2.07,127.45-17.95,7.21-2.4,14.24-4.86,21-7.35,53.12-19.56,8.88-66.45-11.09-100.22-5.73-9.75-9.39-18.72-8.33-25.86,3.77-25.46,85.93-60.55,101.08-28.77,1.81,3.79,2.65,9,3.21,15.33,4,44.93-15.44,132.74,20.28,141.53,28,6.88,39.56-12.48,53.14-28,6-6.94,12.25-13.46,20.46-16.59,30.37-11.6,24-70.81,43.77-74.36s36.59-53.21,54.66-26.46c4,5.88,9.07,14,14.84,23.54,19.07,31.43,42.45,73.15,58.2,74.37"/><path class="cls-76" d="M439.16,251.76c-.12,18.68,11.23,44,34.06,63.75,20.58,17.81,48.4,30.85,81.71,26.12,68.82-9.88,30.24-124.35,63.82-126.77,13.11-1,24,1.3,33.43,5.56,44.88,20.21,56.2,85.68,113.15,71.45a84.91,84.91,0,0,0,23.37-9.23c36.81-22.28,12.25-65.84,20.67-85.22,6.49-14.94,40.29-38.95,55.35-39.11,22-.23-15.07,63.52-21.55,99-2.09,11.48-1.19,20,5.8,22.3,28.43,9.31,81.6-4.54,130-21.41,7.27-2.51,14.38-5.1,21.23-7.66,53.85-20.16,8.24-66.93-12.73-101.37-6-9.93-10-19-9-26.21,3.4-26.07,88.3-62.6,102.6-31.66,1.77,3.83,2.62,9.18,3,15.6,3,44.61-19,136.24,17.19,145.53,28.55,7.42,40-12.58,53.56-28.64,6-7.17,12.36-13.73,20.79-16.75,31.51-11.3,24.78-72.13,45.45-74.83s38.73-54.13,57.12-25.28c4.17,6.55,9.31,15.41,15,25.37,18.8,32.75,42.31,75.17,58.79,75.73"/><path class="cls-77" d="M438.7,248.61c-.24,37.53,47,105.8,117.15,95.32s28-130.3,61.77-132.78c76.44-5.6,78.65,101,149.37,84.11s33.4-74.65,42.41-98.52c6-15.83,40.41-41.18,55.59-41.12,28.92.11-48.24,119.85-19.28,128.93,33.18,10.4,100.41-12.5,153.94-32.85,70.27-26.72-27.81-96.34-24.12-129.07,3-26.68,90.66-64.65,104.11-34.56s-25.2,154.05,17,165.42,47.11-36.75,75.1-46.17c32.64-11,25.56-73.44,47.14-75.3s40.84-55,59.56-24.08,52.14,104.42,74.58,104.27"/></g><rect class="cls-78" x="5" y="3" width="1920" height="385"/><path class="cls-79" d="M-46.82,407.35S-108.66,255.25,4.51,245.5s336.79,171,427.17,156.64,116.56-88.3,201.77-95.88,243.68,90.5,303.67,83.38,13.79-110.25,69-113.88,63.69,74.41,156.4,85.41c117.15,13.89,125.13,25.42,153.19,31.33,58.74,12.37,49-175.27,131.83-73.13s172.1,71.29,261.55,62,80.46-170.32,139-166,82.59,39.16,74.52,57.56"/><path class="cls-80" d="M-46.25,403.63c-.8,1.82-20.66-47.26-6.63-90.89,9.63-29.93,25.84-61.38,72.42-65.07,111.52-9.28,327.64,165.81,415.78,153.25,87.54-12.47,113.37-82.86,196-89.4,82.89-6.34,236.18,88.06,295.76,81.32,37.84-4.29,34.3-38.08,39-69.29,3.88-25.64,11.54-49,36.91-49.57,30.36-.72,39.46,25.18,63.4,46.49,21.78,19.4,48.84,38,95.93,42,45.09,3.86,64.09,3.39,83.88,6.35,37.1,5.54,49.82,11.93,70.25,15.53,12.66,2.24,22.45-2.68,29.87-11,16.36-18.28,19.48-51.18,38.38-68.94,16.22-15.25,35.35-19.31,66.91,16.74,60.65,69.26,120.76,71.43,183.77,65.19,24.82-2.46,49.91-7,75-9.83,40-4.59,61-38.61,76.32-72.9,18.86-42.13,30.54-86.24,62.15-83.05,56.78,5.74,80.73,39.62,74,57.31"/><path class="cls-81" d="M-45.68,399.91c-1.59,3.63-18.77-40.35,2.42-81.47,15.15-29.39,30.12-65,77.84-68.61C144.48,241.43,353,410.47,439,399.7c84.68-10.62,110.17-77.64,190.19-82.93C709.7,311.45,857.83,402.47,917,396c43.07-4.69,34.73-40,41-73.28,5-26.75,16.35-51.95,41.83-50.55,31.52,1.73,33.64,31.39,59.09,52.28,23.6,19.37,52.74,36.43,103.17,39.37,50.19,2.93,60.8-2.42,80.78-.58,36.12,3.34,51.91,9.71,74.28,13,13.79,2.07,24.49-2.52,31.85-9.8,16.15-16,12.87-41.52,34.72-57.5,19.07-14,39.25-20.38,71.93,14.1,61.85,65.28,119.45,64.76,181.74,58.82,24.5-2.35,49.38-7,74.23-10.1,39.71-5,61.34-38.09,76.53-69.92,18.78-39.36,30.35-80,61.4-76,55,7.11,78.88,40.07,73.45,57"/><path class="cls-82" d="M-45.11,396.19c-2.39,5.45-16.41-33.52,11.48-72.06,21-29,34.39-68.63,83.25-72.14,108.25-7.76,309.26,155.47,393,146.49,81.81-8.78,107-72.31,184.4-76.46,78.22-4.19,221.19,83.39,279.94,77.21,48.31-5.09,35.13-42,42.94-77.28C956.06,294.1,971,269,996.63,270.42c32.78,1.77,27.84,37.58,54.79,58.07,25.43,19.33,56.65,34.81,110.41,36.7,55.29,2,57.9-11.91,77.69-7.51,34.21,7.63,54,7.48,78.3,10.48,14.92,1.88,26.53-2.37,33.83-8.65,15.95-13.72,6.33-31.82,31-46,22-12.65,43.13-21.48,77,11.45,63,61.32,118.14,58.08,179.73,52.44,24.18-2.23,48.84-7,73.45-10.36,39.43-5.41,61.72-37.55,76.75-66.95,18.7-36.57,30.15-73.77,60.65-68.93,53.23,8.45,77,40.52,72.92,56.79"/><path class="cls-83" d="M-44.54,392.47c-3.18,7.26-13.65-26.61,20.53-62.64C3,301.33,14.66,257.52,64.66,254.16c106.61-7.16,300,150.27,381.58,143.1,78.92-6.95,103.8-67,178.62-70,75.88-3.06,213.69,81.09,272,75.14,53.55-5.47,35.53-44,44.92-81.26,7.29-29,25.93-54.84,51.67-52.52,34,3.06,22,43.76,50.49,63.86,27.27,19.28,60.55,33.14,117.63,34,60.41.94,54.46-18.89,74.6-14.44,33.06,7.3,56.06,5.25,82.33,7.95,16,1.7,28.58-2.23,35.8-7.49,15.78-11.48-.15-22.1,27.39-34.6,24.92-11.31,47-22.57,82,8.82,64,57.36,116.84,51.4,177.72,46.06,23.85-2.11,48.29-7.08,72.68-10.64,39.14-5.81,62.09-37,77-64,18.62-33.77,29.93-67.55,59.91-61.87,51.43,9.75,75.16,41,72.38,56.53"/><path class="cls-84" d="M-44,388.75c-4,9.08-10.63-19.53,29.59-53.22,33.32-27.92,42.94-76,94.08-79.21,105-6.58,290.81,145.08,370.18,139.71,76-5.13,100.62-61.62,172.83-63.5,73.56-1.91,206.21,78.84,264.1,73.09,58.79-5.84,35.9-46,46.88-85.26,8.41-30.08,30.75-56.73,56.59-53.5,35.26,4.39,16.29,49.92,46.19,69.64,29.14,19.22,64.48,32.84,124.87,31.38,65.5-1.59,50.86-25.79,71.5-21.37,32,6.85,58.14,3,86.36,5.42,17.18,1.52,30.64-2.09,37.78-6.32,15.62-9.26-6.62-12.34,23.72-23.16,27.89-9.94,50.74-23.66,87,6.18,64.92,53.44,115.52,44.73,175.7,39.69,23.52-2,47.75-7.12,71.91-10.91,38.86-6.21,62.45-36.43,77.17-61,18.54-30.95,29.7-61.36,59.16-54.82,49.62,11,73.31,41.43,71.85,56.28"/><path class="cls-85" d="M-43.4,385c-4.77,10.89-7.46-12.26,38.64-43.8C35,314,42.46,261.53,94.74,258.48c103.3-6,281.55,139.87,358.78,136.33,73.09-3.34,97.44-56.27,167-57,71.24-.77,198.72,76.59,256.19,71,64-6.2,36.26-48,48.85-89.25,9.5-31.18,35.56-58.58,61.51-54.49,36.51,5.76,10.53,56.08,41.88,75.44,31,19.15,68.37,29.74,132.11,28.71,70.64-1.15,47.1-32.59,68.41-28.3,31,6.24,60.22.79,90.37,2.9,18.32,1.34,32.73-2,39.77-5.16,15.51-7.05-13.08-2.54,20.06-11.71,30.86-8.54,54.47-24.76,92,3.53,65.76,49.55,114.22,38.06,173.69,33.31,23.19-1.88,47.21-7.14,71.13-11.17,38.58-6.62,62.81-35.84,77.38-58,18.47-28.1,29.47-55.17,58.42-47.76,47.79,12.24,71.45,41.88,71.32,56"/><path class="cls-86" d="M-42.83,381.31c-5.57,12.71-4.24-4.83,47.69-34.39,46.19-26.29,51.49-83.39,104.92-86.27,101.65-5.48,272.59,140,347.38,132.94C527,387,551.45,341.23,618.41,343c68.91,1.87,191.24,74.36,248.27,69,69.28-6.56,36.62-49.95,50.82-93.25,10.6-32.3,40.38-60.4,66.43-55.47,37.77,7.16,4.78,62.22,37.59,81.23s72.27,28,139.33,26c75.76-2.23,44.35-27.15,65.32-35.22,30.49-.06,62.3-1.44,94.4.36,19.45,1.16,34.83-1.83,41.75-4,15.45-4.84-19.53,7.29,16.39-.26,33.84-7.11,58.16-25.83,97,.89,66.51,45.72,112.91,31.39,171.67,26.94,22.87-1.76,46.67-7.18,70.36-11.44,38.3-7,63.16-35.22,77.59-55,18.39-25.23,29.22-49,57.68-40.71,46,13.42,69.59,42.34,70.78,55.77"/><path class="cls-87" d="M-42.25,377.59c-6.37,14.52-1,2.74,56.74-25,52.66-25.27,55.76-87.1,110.32-89.81,100-5,263.22,135.44,336,129.56,67-5.41,91.1-45.55,155.46-44.07,66.62,1.53,183.76,72.14,240.36,66.9,74.52-6.89,37-51.93,52.79-97.24,11.68-33.41,45.19-62.2,71.34-56.45,39,8.59-1,68.34,33.29,87,34.78,19,76.19,26.26,146.57,23.37,80.87-3.32,41.07-32.35,62.22-42.15,29.43-1.18,64.38-3.67,98.43-2.16a201,201,0,0,0,43.73-2.84c15.45-2.62-26,17.14,12.72,11.19,36.82-5.67,61.81-26.89,102.06-1.76,67.17,41.94,111.6,24.72,169.66,20.56,22.54-1.64,46.13-7.17,69.58-11.7,38-7.36,63.49-34.57,77.81-52.05,18.28-22.31,29-42.86,56.93-33.64,44.12,14.55,67.73,42.79,70.25,55.51"/><path class="cls-88" d="M-41.68,373.87c-7.17,16.34,2.2,10.4,65.79-15.55,59.14-24.15,60-90.82,115.74-93.35,98.35-4.45,253.78,130.8,324.59,126.18,64.12-4.19,87.93-40.18,149.67-37.6,64.32,2.7,176.28,69.93,232.45,64.85,79.76-7.23,37.28-53.92,54.75-101.23,12.76-34.54,50-64,76.27-57.44,40.26,10-6.69,74.46,29,92.81,36.68,18.86,80.1,24.5,153.8,20.7,86-4.43,37.8-37.54,59.14-49.08,28.35-2.31,66.45-5.9,102.45-4.68,21.72.79,39.15-2.59,45.7-1.68,15.36,2.12-32.43,27,9.07,22.63,39.79-4.19,65.4-27.91,107.07-4.39,67.76,38.22,110.3,18,167.65,14.18,22.21-1.53,45.59-7.2,68.81-12,37.75-7.76,63.79-33.87,78-49.06,18.15-19.36,28.7-36.75,56.18-26.58,42.28,15.63,65.88,43.24,69.72,55.24"/><path class="cls-89" d="M-41.11,370.15c-8,18.15,5.39,18.14,74.85-6.14,65.6-22.93,64.3-94.54,121.15-96.87,96.69-4,244.31,118.83,313.18,122.79,61.25,3.52,84.78-34.81,143.89-31.12,62,3.87,168.8,67.73,224.53,62.78,85-7.54,37.61-55.91,56.73-105.22C907.05,280.71,948,250.62,974.4,258c41.5,11.53-12.41,80.57,24.69,98.59,38.58,18.75,84,22.75,161,18,91.09-5.56,34.52-42.74,56-56,27.29-3.43,68.54-8.12,106.48-7.21,22.85.62,41.25-1.33,47.68-.51,15.58,2-38.9,36.88,5.4,34.08,42.77-2.72,69-28.9,112.1-7,68.27,34.59,109,11.37,165.62,7.81,21.89-1.41,45.06-7.24,68-12.25,37.47-8.16,64-33.14,78.24-46.08,18-16.37,28.43-30.66,55.44-19.53,40.43,16.66,64,43.7,69.18,55"/><path class="cls-90" d="M-40.54,366.43c-8.76,20,8.54,25.94,83.9,3.28,72-21.67,68.57-98.27,126.57-100.41,95-3.5,234.94,113.5,301.78,119.41,58.24,5.14,81.62-29.42,138.11-24.65,59.71,5.05,161.31,65.54,216.61,60.73,90.26-7.85,37.92-57.92,58.69-109.22,14.9-36.78,59.61-67.49,86.11-59.4,42.72,13-18.15,86.66,20.38,104.38,40.48,18.62,87.9,21,168.27,15.38,96.2-6.7,31.24-47.94,52.94-62.94,26.22-4.57,70.62-10.36,110.51-9.74,24,.43,43.4-1.11,49.66.64,15.65,4.39-45.37,46.78,1.73,45.53,45.74-1.22,72.5-29.83,117.12-9.68,68.74,31,107.68,4.7,163.61,1.43,21.57-1.29,44.52-7.27,67.27-12.51,37.19-8.57,64.23-32.38,78.45-43.1,17.71-13.36,28.16-24.6,54.69-12.47,38.61,17.64,62.16,44.15,68.65,54.73"/><path class="cls-91" d="M-40,362.71c-9.55,21.78,11.66,33.78,92.95,12.7,78.46-20.35,72.84-102,132-104,93.37-3,225.55,108.14,290.38,116,55.22,6.72,78.46-24,132.32-18.16,57.41,6.23,153.84,63.34,208.7,58.66,95.51-8.14,38.23-59.91,60.66-113.21,16-37.9,64.4-69.22,91-60.38C1012,269,944.18,347.14,984.13,364.56c42.39,18.48,91.81,19.18,175.5,12.71,101.31-7.84,28-53.13,49.86-69.87,25.14-5.69,72.69-12.58,114.53-12.26,25.11.25,45.55-.86,51.64,1.8,15.68,6.86-51.81,55.15-1.93,57,48.66,1.78,76-30.71,122.14-12.32,69.14,27.57,106.36-2,161.59-4.94,21.24-1.18,44-7.31,66.49-12.78,36.91-9,64.33-31.58,78.67-40.12,17.35-10.34,27.9-18.57,53.94-5.42,36.79,18.57,60.31,44.61,68.12,54.48"/><path class="cls-92" d="M-39.4,359c-10.35,23.6,14.75,41.64,102,22.11,84.85-19,77.1-105.75,137.4-107.47C291.72,271,416.15,376.34,479,386.26c52.19,8.24,75.31-18.6,126.53-11.69,55.13,7.44,146.36,61.16,200.78,56.61,100.76-8.42,38.54-61.92,62.63-117.2,17-39,69.19-71,96-61.37,45.14,16.15-29.59,98.83,11.78,116,44.29,18.34,95.7,17.39,182.73,10,106.41-9,24.7-58.33,46.76-76.8C1230.23,295,1280.92,287,1324.71,287c26.24.07,47.67-.59,53.62,3,15.67,9.38-58.32,66.58-5.6,68.42,51.65,1.79,79.47-31.55,127.16-15,69.53,24.18,105.06-8.64,159.58-11.31,20.91-1.07,43.44-7.35,65.72-13.05,36.63-9.38,64.31-30.78,78.88-37.15,16.85-7.36,27.65-12.56,53.2,1.65,35,19.45,58.45,45.06,67.58,54.22"/><path class="cls-93" d="M-38.83,355.27C-50,380.68-21,404.8,72.23,386.8c91.22-17.61,81.38-109.52,142.82-111C305.1,273.6,421.77,373,482.63,385c49.16,9.7,72.16-13.17,120.74-5.21,52.84,8.65,138.88,59,192.87,54.54,106-8.68,38.84-63.93,64.6-121.19,18.07-40.17,74-72.66,100.86-62.36,46.33,17.75-35.31,104.91,7.48,121.76,46.21,18.18,99.6,15.6,190,7.37,111.51-10.16,21.42-63.52,43.66-83.72,23-8,76.86-17.05,122.59-17.32,27.37-.11,49.77-.33,55.59,4.12,15.6,11.92-64.8,76.5-9.26,79.87,54.61,3.31,82.94-32.31,132.18-17.6,69.9,20.87,103.76-15.32,157.57-17.7,20.59-.94,42.9-7.38,64.94-13.31,36.35-9.79,63.66-32.92,79.09-34.17,15.08-7.45,27.43-6.59,52.46,8.7,33.21,20.29,56.59,45.52,67,54"/><path class="cls-94" d="M-38.26,351.55C-50.2,378.78-17.41,409,81.85,392.5,179.43,376.28,167.5,279.21,230.09,278c88.39-1.77,197.29,91.7,256.18,105.87,46.12,11.09,69-7.72,115,1.26,50.55,9.89,131.4,56.79,185,52.49,111.26-8.94,39.13-65.94,66.56-125.19C871.87,271.08,931.48,238,958.52,249c47.51,19.36-41,111,3.18,127.54,48.12,18,103.5,13.81,197.2,4.71,116.62-11.32,18.15-68.71,40.58-90.65,21.94-9.07,78.93-19.27,126.61-19.85,28.5-.29,51.85-.05,57.57,5.29,15.48,14.46-71.29,86.42-12.92,91.32,57.55,4.83,86.39-33,137.2-20.25,70.25,17.65,102.44-22,155.55-24.07,20.26-.83,42.35-7.42,64.17-13.59,36.07-10.19,63.87-32.46,79.3-31.18,14.8-4.78,27.22-.66,51.72,15.76,31.45,21.07,54.73,46,66.52,53.71"/><path class="cls-95" d="M-37.69,347.83c-12.73,29,23.86,65.36,129.17,50.36,103.91-14.79,89.91-117.06,153.64-118.07C331.86,278.74,433,366.19,489.91,382.6c43.09,12.42,65.86-2.26,109.16,7.74,48.27,11.14,123.93,54.61,177,50.42,116.51-9.18,39.42-67.95,68.53-129.18,20.18-42.43,83.5-76,110.7-64.32,48.67,21-46.75,117-1.12,133.33,50,17.86,107.39,12,204.43,2,121.72-12.5,14.87-73.91,37.48-97.58,20.87-10.2,81-21.5,130.64-22.37,29.63-.47,53.92.21,59.55,6.45,15.32,17-77.79,96.33-16.59,102.76,60.49,6.35,89.85-33.65,142.22-22.89,70.61,14.51,101.14-28.67,153.54-30.45,19.93-.71,41.81-7.45,63.39-13.85,35.79-10.61,64.1-32,79.52-28.2,14.52-2.1,27,5.24,51,22.81,29.73,21.83,52.88,46.43,66,53.46"/><path class="cls-96" d="M-37.11,344.11C-50.65,375-10.27,417.4,101.1,403.89,211.33,390.52,195.28,283,260.16,282.28c85.08-1,178.48,80.36,233.39,99.1,40.07,13.67,62.7,3.23,103.37,14.21C642.9,408,713.37,448,766.05,444c121.77-9.41,39.71-70,70.51-133.18,21.22-43.57,88.25-77.72,115.61-65.3,49.82,22.63-52.47,123.1-5.42,139.12,51.94,17.69,111.29,10.2,211.66-.63,126.82-13.68,7.84-83.06,34.39-104.51,17.75-14.33,83.09-23.73,134.67-24.89,30.77-.66,56,.46,61.53,7.61,15.14,19.49-84.28,106.25-20.26,114.2,63.44,7.88,93.32-34.22,147.25-25.53,71,11.45,99.82-35.34,151.52-36.82,19.6-.59,41.27-7.49,62.62-14.12,35.5-11,64.31-31.58,79.73-25.22,14.24.57,26.88,11.11,50.22,29.87,28.06,22.55,51,46.88,65.46,53.19"/><path class="cls-97" d="M-36.54,340.39c-14.34,32.67,29.82,81.22,147.27,69.2C227.26,397.65,209.19,286.1,275.2,284.44c83.39-2.08,169.12,74.54,222,95.72,37.09,14.85,59.54,8.74,97.59,20.69,43.67,13.72,109,50.26,161.21,46.3,127-9.61,40-72,72.47-137.16,22.28-44.71,93-79.41,120.54-66.29,51,24.29-58.2,129.15-9.73,144.91,53.86,17.5,115.19,8.39,218.9-3.29,131.92-14.87,4.74-87.8,31.3-111.44,16.8-15,85.17-26,138.69-27.43,31.9-.84,58,.71,63.5,8.77,14.95,22-90.78,116.18-23.91,125.66,66.36,9.41,96.79-34.74,152.26-28.18,71.39,8.45,98.52-42,149.5-43.19,19.29-.48,40.72-7.57,61.86-14.39,35.19-11.5,63.39-28.78,79.94-22.25,13.34,5.27,26.77,17,49.48,36.93,26.41,23.24,49.16,47.34,64.92,52.94"/><path class="cls-98" d="M-36,336.67c-15.13,34.49,32.78,89.16,156.32,78.61,122.83-10.49,102.73-127.42,169.89-128.67,81.74-1.52,159.82,68.6,210.59,92.32,34.14,16,56.37,14.28,91.8,27.17,41.37,15.06,101.49,48.09,153.3,44.25,132.27-9.81,40.28-74,74.44-141.16,23.32-45.85,97.75-81.08,125.45-67.27,52.07,26-63.91,135.2-14,150.7,55.76,17.32,119.08,6.58,226.13-6,137-16.06,1.76-92.47,28.2-118.37,15.92-15.59,87.25-28.19,142.72-30,33-1,60.07.95,65.48,9.93,14.74,24.47-97.28,126.1-27.58,137.1,69.3,10.94,100.29-35.18,157.28-30.81,71.84,5.5,97.21-48.69,147.49-49.58,19-.36,40.18-7.6,61.08-14.65,34.92-11.91,63.54-28.85,80.16-19.27,12.92,7.45,26.71,22.77,48.73,44,24.82,23.91,47.31,47.78,64.39,52.68"/><path class="cls-99" d="M-35.4,333C-51.33,369.25.33,430.06,130,421c129.12-9,107-131.4,175.31-132.21,80.09-.94,150.62,62.54,199.19,88.94,31.26,17,53.19,19.84,86,33.65,39,16.42,94,45.92,145.38,42.18,137.54-10,40.57-76,76.41-145.15,24.37-47,102.49-82.75,130.38-68.25,53.17,27.65-69.64,141.25-18.33,156.48,57.67,17.13,123,4.78,233.36-8.62,142.11-17.25-1.08-97.1,25.11-125.3,15.1-16.24,89.33-30.41,146.75-32.47,34.16-1.21,62.12,1.18,67.46,11.09,14.52,26.93-103.79,136-31.25,148.55,72.23,12.47,103.82-35.57,162.31-33.46,72.32,2.61,95.9-55.36,145.47-56,18.63-.25,39.64-7.64,60.31-14.92,34.63-12.32,63.85-28.92,80.37-16.29,12.65,9.68,26.69,28.56,48,51,23.28,24.58,45.45,48.24,63.86,52.43"/><path class="cls-100" d="M-34.83,329.23C-51.55,367.35,3.84,434.29,139.6,426.68,275,419.09,250.85,290.53,320.32,290.93c78.44.47,141.55,56.36,187.78,85.56,28.46,18,50,25.43,80.23,40.12,36.69,17.83,86.53,43.75,137.47,40.13,142.79-10.16,40.84-78.06,78.38-149.15,25.41-48.13,107.22-84.42,135.29-69.23,54.27,29.35-75.36,147.29-22.63,162.27,59.59,16.94,126.84,2.76,240.6-11.29,147.17-18.7-3.81-101.7,22-132.22,14.32-16.94,91.4-32.65,150.77-35,35.29-1.38,64.16,1.42,69.44,12.26,14.3,29.38-110.3,146-34.92,160,75.16,14,107.45-39,167.33-36.1,72.77,3.52,94.6-62,143.46-62.32,18.31-.13,39.1-7.68,59.53-15.2,34.35-12.72,64.3-28.92,80.59-13.3,12.49,12,26.72,34.33,47.24,58.1,21.77,25.24,43.59,48.69,63.32,52.17"/><path class="cls-101" d="M-34.26,325.51c-17.52,39.93,41.59,113,183.48,106.86,141.66-6.13,115.53-140,186.14-139.27,76.79.8,132.66,50,176.38,82.17,25.75,18.92,46.76,31.05,74.44,46.6,34.31,19.27,79.05,41.58,129.56,38.06,148-10.3,41-80.14,80.34-153.14C822.47,257.48,908,220.71,936.3,236.58c55.35,31.06-81.09,153.32-26.93,168.06,61.49,16.74,130.74,1,247.82-14,152.28-19.82-6.42-106.28,18.93-139.15,13.61-17.65,93.49-34.88,154.8-37.53,36.42-1.57,66.2,1.64,71.42,13.41,14.08,31.82-116.84,156-38.58,171.45,78.06,15.67,111-36.2,172.35-38.75,73.43-3,93.28-68.7,141.44-68.7,18,0,38.55-7.71,58.76-15.46,34.07-13.12,64.79-28.85,80.79-10.32,12.41,14.35,26.83,40.09,46.5,65.16,20.33,25.9,41.73,49.14,62.79,51.91"/><path class="cls-102" d="M-33.69,321.79c-18.31,41.75,44.51,121,192.53,116.28S278.65,294,350.39,295.26c75.14,1,124,43.63,165,78.79,23.15,19.85,43.49,36.69,68.65,53.07,31.87,20.75,71.58,39.47,121.64,36C859,452.85,747,381,788,306c27.46-50.44,116.66-87.75,145.13-71.21,56.42,32.8-86.79,159.3-31.23,173.86C965.32,425.1,1036.53,407.9,1157,392c157.38-20.93-8.92-110.87,15.83-146.08,13-18.41,95.57-37.1,158.83-40.06,37.55-1.74,68.25,1.87,73.39,14.58,13.87,34.25-123.34,165.88-42.24,182.89s114.6-36.45,177.37-41.39c74.06-5.82,92-75.37,139.43-75.07,17.65.1,38-7.75,58-15.73,33.79-13.53,65.32-28.7,81-7.35,12.35,16.8,27,45.85,45.75,72.22,18.93,26.58,39.88,49.6,62.26,51.66"/><path class="cls-103" d="M-33.12,318.07C-52.23,361.63,14.3,447,168.47,443.77S292.54,296,365.43,297.42C530.56,300.69,537,476.88,695.61,466.33s41.67-84.15,84.28-161.13c28.54-51.57,121.38-89.41,150.05-72.19,57.47,34.53-92.53,165.4-35.53,179.65,65.32,16.32,138.54-2.5,262.3-19.3,162.48-22.05-11.33-115.47,12.74-153,19.63-30.61,224.57-63.52,238.22-26.84s-129.84,175.73-45.91,194.33,118.27-36.66,182.4-44c74.75-8.59,90.66-82.05,137.41-81.45s114-58.68,138.43-20.37,59,128,106.73,130.67"/><rect class="cls-104" x="-11" y="-7" width="1121" height="400"/></svg>
