<svg xmlns="http://www.w3.org/2000/svg" viewBox="0 0 326.11 186.13"><defs><style>.cls-1,.cls-10,.cls-2,.cls-3,.cls-4,.cls-5,.cls-6,.cls-7,.cls-8,.cls-9{fill:none;stroke-miterlimit:10;}.cls-1,.cls-10,.cls-12,.cls-2,.cls-3,.cls-4,.cls-5,.cls-6,.cls-7,.cls-8,.cls-9{stroke:#fff;}.cls-1{stroke-width:0.72px;}.cls-2{stroke-width:0.75px;}.cls-3{stroke-width:0.78px;}.cls-4{stroke-width:0.8px;}.cls-5{stroke-width:0.83px;}.cls-6{stroke-width:0.86px;}.cls-7{stroke-width:0.88px;}.cls-8{stroke-width:0.91px;}.cls-9{stroke-width:0.94px;}.cls-10{stroke-width:0.96px;}.cls-11{fill:#fff;}.cls-12{stroke-linecap:square;stroke-width:4.38px;}</style></defs><g id="Ebene_2" data-name="Ebene 2"><g id="Ebene_1-2" data-name="Ebene 1"><polygon class="cls-1" points="0.64 33.59 107.39 57.43 53.27 146.5 0.64 33.59"/><polygon class="cls-2" points="6.33 33.33 106.28 62.05 49.38 141.87 6.33 33.33"/><polygon class="cls-3" points="12.02 33.07 105.18 66.67 45.48 137.24 12.02 33.07"/><polygon class="cls-4" points="17.7 32.81 104.08 71.3 41.59 132.6 17.7 32.81"/><polygon class="cls-5" points="23.39 32.55 102.97 75.92 37.7 127.97 23.39 32.55"/><polygon class="cls-6" points="29.08 32.29 101.87 80.54 33.81 123.33 29.08 32.29"/><polygon class="cls-7" points="34.77 32.03 100.77 85.17 29.92 118.7 34.77 32.03"/><polygon class="cls-8" points="40.46 31.76 99.66 89.79 26.03 114.06 40.46 31.76"/><polygon class="cls-9" points="46.15 31.5 98.56 94.41 22.13 109.43 46.15 31.5"/><polygon class="cls-10" points="51.84 31.24 97.45 99.04 18.24 104.8 51.84 31.24"/><path class="cls-11" d="M170.54,47.32a86.44,86.44,0,0,1,12.87-.92c6.08,0,9.8.59,13.07,2.49a9.56,9.56,0,0,1,5.23,8.69c0,3.85-2.29,7.45-7.25,9.34v.13c5,1.31,8.75,5.16,8.75,10.78a11.78,11.78,0,0,1-4.57,9.41c-3.2,2.55-8.56,4-17.32,4a76.26,76.26,0,0,1-10.78-.66Zm9.87,16.86h3.27c5.29,0,8-2.16,8-5.43s-2.55-5.09-7.05-5.09a26,26,0,0,0-4.25.26Zm0,19.53a31.48,31.48,0,0,0,3.85.13c4.51,0,8.5-1.76,8.5-6.4,0-4.38-4-6.14-8.95-6.14h-3.4Z"/><path class="cls-11" d="M237.38,72.15h-16.2V82.6h18.1v8.17h-28v-44h27.11V54.9H221.18v9.15h16.2Z"/><path class="cls-11" d="M247.25,47.32a85.72,85.72,0,0,1,13.26-.92c6.54,0,11.11,1,14.25,3.47,2.68,2.09,4.11,5.22,4.11,9.27a11.68,11.68,0,0,1-7.77,10.79v.19c3.07,1.24,4.77,4.12,5.88,8.17,1.37,5,2.68,10.78,3.53,12.48h-10.2a59.6,59.6,0,0,1-3-10.26c-1.24-5.55-3.14-7-7.26-7.06h-2.94V90.77h-9.86Zm9.86,18.95H261c5,0,7.91-2.49,7.91-6.34s-2.74-6.08-7.32-6.08a19.57,19.57,0,0,0-4.51.33Z"/><path class="cls-11" d="M287.17,47.38a87.63,87.63,0,0,1,13.39-1c8.43,0,13.92,1.57,18.1,4.71,4.58,3.4,7.45,8.82,7.45,16.59,0,8.43-3.07,14.25-7.25,17.84-4.64,3.86-11.76,5.69-20.39,5.69a84.57,84.57,0,0,1-11.3-.66Zm9.93,35.88a19.26,19.26,0,0,0,3.46.19c9.09.07,15-4.9,15-15.42,0-9.15-5.36-14-14-14a21,21,0,0,0-4.51.39Z"/><path class="cls-11" d="M187.49,137.09a16.32,16.32,0,0,1-7.25,1.41,12,12,0,0,1-12.3-12.41c0-8,5.87-15,14.74-15,7,0,11.94,4.8,11.94,11.42,0,5.8-3.23,9.42-7.49,9.42a3.11,3.11,0,0,1-3.39-3h-.08a5.91,5.91,0,0,1-5.12,3c-2.52,0-4.41-1.93-4.41-5.16a9,9,0,0,1,9.26-9.18,11.83,11.83,0,0,1,4.69.94l-1.18,7.33c-.4,2.33-.12,3.39,1,3.43,1.7.08,3.82-2.09,3.82-6.66,0-5.16-3.31-9.14-9.41-9.14S171,118.17,171,125.74c0,6.62,4.17,10.32,10,10.32a13.55,13.55,0,0,0,5.76-1.22ZM184,120.81a5.09,5.09,0,0,0-1.22-.16c-2.6,0-4.65,2.56-4.65,5.6,0,1.5.67,2.44,2,2.44,1.46,0,3-1.85,3.35-4.14Z"/><path class="cls-11" d="M199.71,138.07V111.51h3.78L212,125a75.59,75.59,0,0,1,4.73,8.63l.11,0c-.31-3.55-.39-6.78-.39-10.88V111.51h3.23v26.56h-3.47l-8.43-13.48a77.62,77.62,0,0,1-4.93-8.86l-.11,0c.19,3.34.23,6.54.23,11v11.35Z"/><path class="cls-11" d="M225.61,111.51h14.3v2.88H229.08v8.82h10v2.84h-10v12h-3.47Z"/><path class="cls-11" d="M244.8,111.86a50.88,50.88,0,0,1,7.33-.55c4.93,0,8.44,1.15,10.76,3.31s3.79,5.24,3.79,9.54a14.18,14.18,0,0,1-3.83,10.32c-2.52,2.49-6.62,3.83-11.78,3.83a47.44,47.44,0,0,1-6.27-.32Zm3.47,23.53a22,22,0,0,0,3.47.16c7.33,0,11.31-4.1,11.31-11.27,0-6.27-3.51-10.25-10.76-10.25a19.26,19.26,0,0,0-4,.36Z"/><path class="cls-11" d="M274.52,111.51v26.56h-3.46V111.51Z"/><line class="cls-12" x1="138.51" y1="2.19" x2="138.51" y2="183.94"/></g></g></svg>