<svg width="1920" height="340.16" xmlns="http://www.w3.org/2000/svg" xmlns:xlink="http://www.w3.org/1999/xlink" data-name="Ebene 1">
 <defs>
  <linearGradient y2="0.30795" x2="0.99997" y1="0.69564" x1="0.00084" id="Unbenannter_Verlauf">
   <stop stop-color="#f6faf8" offset="0.13"/>
   <stop stop-color="#f7f8f6" offset="0.64"/>
  </linearGradient>
  <linearGradient y2="0.28744" x2="1.00011" y1="0.69026" x1="0.00092" id="Unbenannter_Verlauf_2">
   <stop stop-color="#eef6f2" offset="0.13"/>
   <stop stop-color="#f0f3ee" offset="0.6"/>
   <stop stop-color="#f0f2ed" offset="0.64"/>
  </linearGradient>
  <linearGradient y2="0.26363" x2="1.00023" y1="0.68194" x1="0.00099" id="Unbenannter_Verlauf_3">
   <stop stop-color="#e5f1eb" offset="0.13"/>
   <stop stop-color="#e6ede7" offset="0.52"/>
   <stop stop-color="#e7ebe4" offset="0.64"/>
  </linearGradient>
  <linearGradient y2="0.25475" x2="1.0004" y1="0.68964" x1="0.00089" id="Unbenannter_Verlauf_4">
   <stop stop-color="#dcede4" offset="0.13"/>
   <stop stop-color="#dde9e0" offset="0.45"/>
   <stop stop-color="#dfe4da" offset="0.64"/>
  </linearGradient>
  <linearGradient y2="0.33935" x2="0.99994" y1="0.67838" x1="0.00057" id="Unbenannter_Verlauf_5">
   <stop stop-color="#d4e9dd" offset="0.13"/>
   <stop stop-color="#d6e5d9" offset="0.44"/>
   <stop stop-color="#d8ded2" offset="0.64"/>
  </linearGradient>
  <linearGradient y2="0.31419" x2="1.00006" y1="0.66739" x1="0.00062" id="Unbenannter_Verlauf_6">
   <stop stop-color="#cce4d6" offset="0.13"/>
   <stop stop-color="#cde0d2" offset="0.4"/>
   <stop stop-color="#d0d7c8" offset="0.64"/>
  </linearGradient>
  <linearGradient y2="0.28374" x2="1.00017" y1="0.65215" x1="0.00066" id="Unbenannter_Verlauf_7">
   <stop stop-color="#c4e0d0" offset="0.13"/>
   <stop stop-color="#c5dccc" offset="0.38"/>
   <stop stop-color="#c9d1c0" offset="0.64"/>
  </linearGradient>
  <linearGradient y2="0.25909" x2="1.00024" y1="0.63863" x1="0.00067" id="Unbenannter_Verlauf_8">
   <stop stop-color="#bbdbc9" offset="0.13"/>
   <stop stop-color="#bcd7c5" offset="0.37"/>
   <stop stop-color="#c1ccb8" offset="0.62"/>
   <stop stop-color="#c1cbb7" offset="0.64"/>
  </linearGradient>
  <linearGradient y2="0.4172" x2="0.99996" y1="0.67143" x1="0.00034" id="Unbenannter_Verlauf_9">
   <stop stop-color="#b2d6c2" offset="0.13"/>
   <stop stop-color="#b3d2be" offset="0.36"/>
   <stop stop-color="#b7c7b1" offset="0.59"/>
   <stop stop-color="#b8c4ae" offset="0.64"/>
  </linearGradient>
  <linearGradient y2="0.39624" x2="0.99981" y1="0.65179" x1="0.00027" id="Unbenannter_Verlauf_10">
   <stop stop-color="#aad2bb" offset="0.13"/>
   <stop stop-color="#abceb7" offset="0.35"/>
   <stop stop-color="#b0c3aa" offset="0.58"/>
   <stop stop-color="#b1bfa6" offset="0.64"/>
  </linearGradient>
  <linearGradient y2="0.39883" x2="1.00006" y1="0.65051" x1="0.00033" id="Unbenannter_Verlauf_11">
   <stop stop-color="#a1cdb4" offset="0.13"/>
   <stop stop-color="#a2c9b0" offset="0.34"/>
   <stop stop-color="#a6bea3" offset="0.56"/>
   <stop stop-color="#a8b89d" offset="0.64"/>
  </linearGradient>
  <linearGradient y2="0.36523" x2="1.00001" y1="0.61228" x1="0.00023" id="Unbenannter_Verlauf_12">
   <stop stop-color="#98c9ad" offset="0.13"/>
   <stop stop-color="#99c5a9" offset="0.33"/>
   <stop stop-color="#9db99c" offset="0.54"/>
   <stop stop-color="#a0b294" offset="0.64"/>
  </linearGradient>
  <linearGradient y2="0.45353" x2="0.9999" y1="0.57362" x1="-0.00005" id="Unbenannter_Verlauf_13">
   <stop stop-color="#90c5a7" offset="0.13"/>
   <stop stop-color="#91c1a3" offset="0.32"/>
   <stop stop-color="#96b696" offset="0.53"/>
   <stop stop-color="#99ad8c" offset="0.64"/>
  </linearGradient>
  <linearGradient y2="0.4481" x2="0.99985" y1="0.5643" x1="-0.00005" id="Unbenannter_Verlauf_14">
   <stop stop-color="#87c0a0" offset="0.13"/>
   <stop stop-color="#88bc9c" offset="0.32"/>
   <stop stop-color="#8cb18f" offset="0.52"/>
   <stop stop-color="#90a784" offset="0.64"/>
  </linearGradient>
  <linearGradient y2="0.4221" x2="0.99989" y1="0.53455" x1="-0.0001" id="Unbenannter_Verlauf_15">
   <stop stop-color="#7fbc99" offset="0.13"/>
   <stop stop-color="#81b895" offset="0.32"/>
   <stop stop-color="#85ac88" offset="0.52"/>
   <stop stop-color="#89a27d" offset="0.64"/>
  </linearGradient>
  <linearGradient y2="0.44092" x2="0.99977" y1="0.54982" x1="-0.00005" id="Unbenannter_Verlauf_16">
   <stop stop-color="#76b792" offset="0.13"/>
   <stop stop-color="#78b38e" offset="0.31"/>
   <stop stop-color="#7ca881" offset="0.51"/>
   <stop stop-color="#819c74" offset="0.64"/>
  </linearGradient>
  <linearGradient y2="0.50003" x2="1.00006" y1="0.50003" x1="-0.00024" id="Unbenannter_Verlauf_17">
   <stop stop-color="#6db28b" offset="0.13"/>
   <stop stop-color="#6fae87" offset="0.31"/>
   <stop stop-color="#73a37a" offset="0.51"/>
   <stop stop-color="#78976d" offset="0.64"/>
  </linearGradient>
  <linearGradient y2="0.50552" x2="1.00006" y1="0.50552" x1="-0.0002" id="Unbenannter_Verlauf_18">
   <stop stop-color="#65ae85" offset="0.13"/>
   <stop stop-color="#67aa81" offset="0.31"/>
   <stop stop-color="#6b9f74" offset="0.5"/>
   <stop stop-color="#709266" offset="0.64"/>
  </linearGradient>
  <linearGradient y2="0.47794" x2="1.00002" y1="0.47794" x1="-0.00036" id="Unbenannter_Verlauf_19">
   <stop stop-color="#5da97e" offset="0.13"/>
   <stop stop-color="#5ea57a" offset="0.31"/>
   <stop stop-color="#629a6d" offset="0.49"/>
   <stop stop-color="#678d5e" offset="0.64"/>
  </linearGradient>
  <linearGradient y2="0.44657" x2="0.99996" y1="0.44657" x1="-0.00056" id="Unbenannter_Verlauf_20">
   <stop stop-color="#55a577" offset="0.13"/>
   <stop stop-color="#56a173" offset="0.31"/>
   <stop stop-color="#5a9666" offset="0.5"/>
   <stop stop-color="#5f8958" offset="0.64"/>
  </linearGradient>
  <linearGradient y2="0.57347" x2="1.00052" y1="0.48195" x1="-0.00013" id="Unbenannter_Verlauf_21">
   <stop stop-color="#4ca170" offset="0.13"/>
   <stop stop-color="#4d9d6c" offset="0.31"/>
   <stop stop-color="#51915f" offset="0.5"/>
   <stop stop-color="#568451" offset="0.64"/>
  </linearGradient>
  <linearGradient y2="0.54047" x2="1.0004" y1="0.45268" x1="-0.00037" id="Unbenannter_Verlauf_22">
   <stop stop-color="#439c69" offset="0.13"/>
   <stop stop-color="#449865" offset="0.31"/>
   <stop stop-color="#488c58" offset="0.51"/>
   <stop stop-color="#4c7f4b" offset="0.64"/>
  </linearGradient>
  <linearGradient y2="0.51324" x2="1.00046" y1="0.42897" x1="-0.00054" id="Unbenannter_Verlauf_23">
   <stop stop-color="#3b9863" offset="0.13"/>
   <stop stop-color="#3c945f" offset="0.31"/>
   <stop stop-color="#408852" offset="0.51"/>
   <stop stop-color="#447b45" offset="0.64"/>
  </linearGradient>
  <linearGradient y2="0.62772" x2="1.00135" y1="0.46572" x1="0.00015" id="Unbenannter_Verlauf_24">
   <stop stop-color="#32935c" offset="0.13"/>
   <stop stop-color="#338f58" offset="0.32"/>
   <stop stop-color="#37824b" offset="0.52"/>
   <stop stop-color="#3a7740" offset="0.64"/>
  </linearGradient>
  <linearGradient xlink:href="#Unbenannter_Verlauf" gradientTransform="matrix(0.99, -0.13, -0.13, -0.99, 1292.45, 313.45)" y2="207.23" x2="55.39" y1="207.23" x1="-836.07" id="Unbenannter_Verlauf_25"/>
  <linearGradient xlink:href="#Unbenannter_Verlauf_2" gradientTransform="matrix(0.99, -0.13, -0.13, -0.99, 1299, 342.07)" y2="236.61" x2="53.97" y1="236.61" x1="-838.51" id="Unbenannter_Verlauf_26"/>
  <linearGradient xlink:href="#Unbenannter_Verlauf_3" gradientTransform="matrix(0.99, -0.13, -0.13, -0.99, 1305.56, 370.7)" y2="266" x2="52.53" y1="266" x1="-840.98" id="Unbenannter_Verlauf_27"/>
  <linearGradient xlink:href="#Unbenannter_Verlauf_4" gradientTransform="matrix(0.99, -0.13, -0.13, -0.99, 1312.11, 399.32)" y2="295.35" x2="51.06" y1="295.35" x1="-843.4" id="Unbenannter_Verlauf_28"/>
  <linearGradient xlink:href="#Unbenannter_Verlauf_5" gradientTransform="matrix(0.99, -0.13, -0.13, -0.99, 1318.66, 427.95)" y2="324.91" x2="49.62" y1="324.91" x1="-845.85" id="Unbenannter_Verlauf_29"/>
  <linearGradient xlink:href="#Unbenannter_Verlauf_6" gradientTransform="matrix(0.99, -0.13, -0.13, -0.99, 1325.22, 456.57)" y2="354.29" x2="48.1" y1="354.29" x1="-848.13" id="Unbenannter_Verlauf_30"/>
  <linearGradient xlink:href="#Unbenannter_Verlauf_7" gradientTransform="matrix(0.99, -0.13, -0.13, -0.99, 1331.77, 485.2)" y2="381.68" x2="46.63" y1="381.68" x1="-850.42" id="Unbenannter_Verlauf_31"/>
  <linearGradient xlink:href="#Unbenannter_Verlauf_8" gradientTransform="matrix(0.99, -0.13, -0.13, -0.99, 1338.33, 513.82)" y2="409" x2="45.18" y1="409" x1="-852.78" id="Unbenannter_Verlauf_32"/>
  <linearGradient xlink:href="#Unbenannter_Verlauf_9" gradientTransform="matrix(0.99, -0.13, -0.13, -0.99, 1344.88, 542.45)" y2="436.43" x2="43.64" y1="436.43" x1="-855.23" id="Unbenannter_Verlauf_33"/>
  <linearGradient xlink:href="#Unbenannter_Verlauf_10" gradientTransform="matrix(0.99, -0.13, -0.13, -0.99, 1351.44, 571.08)" y2="463.89" x2="42.26" y1="463.89" x1="-858.44" id="Unbenannter_Verlauf_34"/>
  <linearGradient xlink:href="#Unbenannter_Verlauf_11" gradientTransform="matrix(0.99, -0.13, -0.13, -0.99, 1357.99, 599.7)" y2="491.48" x2="40.75" y1="491.48" x1="-861.13" id="Unbenannter_Verlauf_35"/>
  <linearGradient xlink:href="#Unbenannter_Verlauf_12" gradientTransform="matrix(0.99, -0.13, -0.13, -0.99, 1364.54, 628.33)" y2="519.48" x2="39.31" y1="519.48" x1="-863.91" id="Unbenannter_Verlauf_36"/>
  <linearGradient xlink:href="#Unbenannter_Verlauf_13" gradientTransform="matrix(0.99, -0.13, -0.13, -0.99, 1371.1, 656.95)" y2="547.87" x2="37.76" y1="547.87" x1="-866.83" id="Unbenannter_Verlauf_37"/>
  <linearGradient xlink:href="#Unbenannter_Verlauf_14" gradientTransform="matrix(0.99, -0.13, -0.13, -0.99, 1377.65, 685.58)" y2="576.99" x2="36.32" y1="576.99" x1="-869.88" id="Unbenannter_Verlauf_38"/>
  <linearGradient xlink:href="#Unbenannter_Verlauf_15" gradientTransform="matrix(0.99, -0.13, -0.13, -0.99, 1384.21, 714.2)" y2="606.13" x2="34.78" y1="606.13" x1="-873.09" id="Unbenannter_Verlauf_39"/>
  <linearGradient xlink:href="#Unbenannter_Verlauf_16" gradientTransform="matrix(0.99, -0.13, -0.13, -0.99, 1390.76, 742.83)" y2="635.29" x2="33.41" y1="635.29" x1="-876.31" id="Unbenannter_Verlauf_40"/>
  <linearGradient xlink:href="#Unbenannter_Verlauf_17" gradientTransform="matrix(0.99, -0.13, -0.13, -0.99, 1397.32, 771.45)" y2="664.45" x2="31.8" y1="664.45" x1="-879.51" id="Unbenannter_Verlauf_41"/>
  <linearGradient xlink:href="#Unbenannter_Verlauf_18" gradientTransform="matrix(0.99, -0.13, -0.13, -0.99, 1403.87, 800.08)" y2="693.63" x2="30.41" y1="693.63" x1="-882.72" id="Unbenannter_Verlauf_42"/>
  <linearGradient xlink:href="#Unbenannter_Verlauf_19" gradientTransform="matrix(0.99, -0.13, -0.13, -0.99, 1410.42, 828.7)" y2="722.8" x2="28.9" y1="722.8" x1="-885.92" id="Unbenannter_Verlauf_43"/>
  <linearGradient xlink:href="#Unbenannter_Verlauf_20" gradientTransform="matrix(0.99, -0.13, -0.13, -0.99, 1416.98, 857.33)" y2="752.07" x2="27.5" y1="752.07" x1="-889.13" id="Unbenannter_Verlauf_44"/>
  <linearGradient xlink:href="#Unbenannter_Verlauf_21" gradientTransform="matrix(0.99, -0.13, -0.13, -0.99, 1423.53, 885.96)" y2="781.27" x2="26.04" y1="781.27" x1="-892.34" id="Unbenannter_Verlauf_45"/>
  <linearGradient xlink:href="#Unbenannter_Verlauf_22" gradientTransform="matrix(0.99, -0.13, -0.13, -0.99, 1430.09, 914.58)" y2="810.5" x2="24.51" y1="810.5" x1="-895.55" id="Unbenannter_Verlauf_46"/>
  <linearGradient xlink:href="#Unbenannter_Verlauf_23" gradientTransform="matrix(0.99, -0.13, -0.13, -0.99, 1436.64, 943.21)" y2="839.78" x2="23.09" y1="839.78" x1="-898.77" id="Unbenannter_Verlauf_47"/>
  <linearGradient xlink:href="#Unbenannter_Verlauf_24" gradientTransform="matrix(0.99, -0.13, -0.13, -0.99, 1443.2, 971.83)" y2="869.04" x2="21.58" y1="869.04" x1="-901.98" id="Unbenannter_Verlauf_48"/>
  <linearGradient xlink:href="#Unbenannter_Verlauf_24" gradientTransform="matrix(0.98, -0.19, -0.19, -0.98, 1564.98, 501.01)" y2="460.12" x2="91.39" y1="460.12" x1="-1090.86" id="Unbenannter_Verlauf_49"/>
  <linearGradient xlink:href="#Unbenannter_Verlauf_23" gradientTransform="matrix(0.98, -0.2, -0.2, -0.98, 1620.38, 503.4)" y2="475.51" x2="35.34" y1="475.51" x1="-1141.08" id="Unbenannter_Verlauf_50"/>
  <linearGradient xlink:href="#Unbenannter_Verlauf_22" gradientTransform="matrix(0.98, -0.21, -0.21, -0.98, 1675.1, 505.68)" y2="491.02" x2="-18.68" y1="491.02" x1="-1190.48" id="Unbenannter_Verlauf_51"/>
  <linearGradient xlink:href="#Unbenannter_Verlauf_21" gradientTransform="matrix(0.98, -0.21, -0.21, -0.98, 1730.45, 507.73)" y2="507.18" x2="-73.77" y1="507.18" x1="-1240.25" id="Unbenannter_Verlauf_52"/>
  <linearGradient xlink:href="#Unbenannter_Verlauf_20" gradientTransform="matrix(0.98, -0.22, -0.22, -0.98, 1785.78, 509.61)" y2="523.79" x2="-128.75" y1="523.79" x1="-1289.83" id="Unbenannter_Verlauf_53"/>
  <linearGradient xlink:href="#Unbenannter_Verlauf_19" gradientTransform="matrix(0.97, -0.23, -0.23, -0.97, 1841.09, 511.32)" y2="540.91" x2="-184.9" y1="540.91" x1="-1340.55" id="Unbenannter_Verlauf_54"/>
  <linearGradient xlink:href="#Unbenannter_Verlauf_18" gradientTransform="matrix(0.97, -0.23, -0.23, -0.97, 1885.7, 502.8)" y2="546.5" x2="-235.64" y1="546.5" x1="-1385.86" id="Unbenannter_Verlauf_55"/>
  <linearGradient xlink:href="#Unbenannter_Verlauf_17" gradientTransform="matrix(0.97, -0.24, -0.24, -0.97, 1952.94, 511.2)" y2="574.62" x2="-296.96" y1="574.62" x1="-1441.71" id="Unbenannter_Verlauf_56"/>
  <linearGradient xlink:href="#Unbenannter_Verlauf_16" gradientTransform="matrix(0.97, -0.25, -0.25, -0.97, 2006.86, 515.41)" y2="595.11" x2="-349.21" y1="595.11" x1="-1488.51" id="Unbenannter_Verlauf_57"/>
  <linearGradient xlink:href="#Unbenannter_Verlauf_15" gradientTransform="matrix(0.96, -0.25, -0.25, -0.96, 2053.72, 487.85)" y2="588.24" x2="-409.98" y1="588.24" x1="-1543.83" id="Unbenannter_Verlauf_58"/>
  <linearGradient xlink:href="#Unbenannter_Verlauf_14" gradientTransform="matrix(0.97, -0.26, -0.26, -0.97, 2117.24, 517.29)" y2="632.7" x2="-457.66" y1="632.7" x1="-1586.25" id="Unbenannter_Verlauf_59"/>
  <linearGradient xlink:href="#Unbenannter_Verlauf_13" gradientTransform="matrix(0.96, -0.27, -0.27, -0.96, 2188.2, 504.65)" y2="648.1" x2="-528.69" y1="648.1" x1="-1652.68" id="Unbenannter_Verlauf_60"/>
  <linearGradient xlink:href="#Unbenannter_Verlauf_12" gradientTransform="matrix(0.96, -0.27, -0.27, -0.96, 2227.49, 518.51)" y2="670.83" x2="-563.41" y1="670.83" x1="-1683.12" id="Unbenannter_Verlauf_61"/>
  <linearGradient xlink:href="#Unbenannter_Verlauf_11" gradientTransform="matrix(0.96, -0.28, -0.28, -0.96, 2282.58, 518.85)" y2="690.23" x2="-614.88" y1="690.23" x1="-1731.14" id="Unbenannter_Verlauf_62"/>
  <linearGradient xlink:href="#Unbenannter_Verlauf_10" gradientTransform="matrix(0.96, -0.29, -0.29, -0.96, 2337.63, 519.04)" y2="709.94" x2="-665.43" y1="709.94" x1="-1778.82" id="Unbenannter_Verlauf_63"/>
  <linearGradient xlink:href="#Unbenannter_Verlauf_9" gradientTransform="matrix(0.96, -0.29, -0.29, -0.96, 2393.27, 518.92)" y2="730.18" x2="-715.65" y1="730.18" x1="-1826.63" id="Unbenannter_Verlauf_64"/>
  <linearGradient xlink:href="#Unbenannter_Verlauf_8" gradientTransform="matrix(0.95, -0.3, -0.3, -0.95, 2448.24, 518.77)" y2="750.64" x2="-764.44" y1="750.64" x1="-1873.47" id="Unbenannter_Verlauf_65"/>
  <linearGradient xlink:href="#Unbenannter_Verlauf_7" gradientTransform="matrix(0.95, -0.3, -0.3, -0.95, 2484.11, 508.45)" y2="755.13" x2="-803.57" y1="755.13" x1="-1911.11" id="Unbenannter_Verlauf_66"/>
  <linearGradient xlink:href="#Unbenannter_Verlauf_6" gradientTransform="matrix(0.95, -0.31, -0.31, -0.95, 2558.09, 517.94)" y2="792.87" x2="-859.31" y1="792.87" x1="-1965.86" id="Unbenannter_Verlauf_67"/>
  <linearGradient xlink:href="#Unbenannter_Verlauf_5" gradientTransform="matrix(0.95, -0.32, -0.32, -0.95, 2612.95, 517.28)" y2="814.72" x2="-905.29" y1="814.72" x1="-2011.38" id="Unbenannter_Verlauf_68"/>
  <linearGradient xlink:href="#Unbenannter_Verlauf_4" gradientTransform="matrix(0.95, -0.32, -0.32, -0.95, 2667.14, 516.62)" y2="836.81" x2="-949.73" y1="836.81" x1="-2055.92" id="Unbenannter_Verlauf_69"/>
  <linearGradient xlink:href="#Unbenannter_Verlauf_3" gradientTransform="matrix(0.94, -0.33, -0.33, -0.94, 2721.93, 515.62)" y2="859.56" x2="-993.73" y1="859.56" x1="-2100.54" id="Unbenannter_Verlauf_70"/>
  <linearGradient xlink:href="#Unbenannter_Verlauf_2" gradientTransform="matrix(0.94, -0.34, -0.34, -0.94, 2786.61, 510.3)" y2="885.76" x2="-1046.08" y1="885.76" x1="-2154.03" id="Unbenannter_Verlauf_71"/>
  <linearGradient xlink:href="#Unbenannter_Verlauf" gradientTransform="matrix(0.94, -0.34, -0.34, -0.94, 2831.36, 513.15)" y2="906.5" x2="-1078.85" y1="906.5" x1="-2187.82" id="Unbenannter_Verlauf_72"/>
  <linearGradient xlink:href="#Unbenannter_Verlauf" gradientTransform="matrix(1, 0.02, 0.02, -1, -193.42, 187.2)" y2="-44.76" x2="2131.87" y1="-44.76" x1="147.44" id="Unbenannter_Verlauf_73"/>
  <linearGradient xlink:href="#Unbenannter_Verlauf_2" gradientTransform="matrix(1, 0.02, 0.02, -1, -166.52, 195.65)" y2="-43.45" x2="2104.6" y1="-43.45" x1="124.11" id="Unbenannter_Verlauf_74"/>
  <linearGradient xlink:href="#Unbenannter_Verlauf_3" gradientTransform="matrix(1, 0.02, 0.02, -1, -154.23, 203.26)" y2="-39.66" x2="2091.47" y1="-39.66" x1="114.57" id="Unbenannter_Verlauf_75"/>
  <linearGradient xlink:href="#Unbenannter_Verlauf_4" gradientTransform="matrix(1, 0.01, 0.01, -1, -103.92, 213.45)" y2="-43.26" x2="2040.96" y1="-43.26" x1="65.36" id="Unbenannter_Verlauf_76"/>
  <linearGradient xlink:href="#Unbenannter_Verlauf_5" gradientTransform="matrix(1, 0.01, 0.01, -1, -85.81, 220.7)" y2="-39.68" x2="2022.8" y1="-39.68" x1="48.57" id="Unbenannter_Verlauf_77"/>
  <linearGradient xlink:href="#Unbenannter_Verlauf_6" gradientTransform="matrix(1, 0.01, 0.01, -1, -58.89, 228.95)" y2="-36.43" x2="1995.72" y1="-36.43" x1="22.4" id="Unbenannter_Verlauf_78"/>
  <linearGradient xlink:href="#Unbenannter_Verlauf_7" gradientTransform="matrix(1, 0, 0, -1, -31.33, 237.22)" y2="-33.09" x2="1968.02" y1="-33.09" x1="-4.59" id="Unbenannter_Verlauf_79"/>
  <linearGradient xlink:href="#Unbenannter_Verlauf_8" gradientTransform="matrix(1, 0, 0, -1, -4.41, 245.38)" y2="-29.55" x2="1940.94" y1="-29.55" x1="-30.97" id="Unbenannter_Verlauf_80"/>
  <linearGradient xlink:href="#Unbenannter_Verlauf_9" gradientTransform="matrix(1, -0.01, -0.01, -1, 22.52, 253.47)" y2="-25.91" x2="1913.89" y1="-25.91" x1="-57.35" id="Unbenannter_Verlauf_81"/>
  <linearGradient xlink:href="#Unbenannter_Verlauf_10" gradientTransform="matrix(1, -0.01, -0.01, -1, 50.28, 261.77)" y2="-21.97" x2="1887.86" y1="-21.97" x1="-84.54" id="Unbenannter_Verlauf_82"/>
  <linearGradient xlink:href="#Unbenannter_Verlauf_11" gradientTransform="matrix(1, -0.01, -0.01, -1, 63.67, 268.75)" y2="-17.64" x2="1872.52" y1="-17.64" x1="-97.2" id="Unbenannter_Verlauf_83"/>
  <linearGradient xlink:href="#Unbenannter_Verlauf_12" gradientTransform="matrix(1, -0.02, -0.02, -1, 103.97, 277.52)" y2="-14.18" x2="1831.97" y1="-14.18" x1="-136.88" id="Unbenannter_Verlauf_84"/>
  <linearGradient xlink:href="#Unbenannter_Verlauf_13" gradientTransform="matrix(1, -0.02, -0.02, -1, 127.37, 285.93)" y2="-9.2" x2="1810.38" y1="-9.2" x1="-159.46" id="Unbenannter_Verlauf_85"/>
  <linearGradient xlink:href="#Unbenannter_Verlauf_14" gradientTransform="matrix(1, -0.02, -0.02, -1, 157.86, 293.27)" y2="-5.68" x2="1777.75" y1="-5.68" x1="-189.14" id="Unbenannter_Verlauf_86"/>
  <linearGradient xlink:href="#Unbenannter_Verlauf_15" gradientTransform="matrix(1, -0.03, -0.03, -1, 184.82, 301.08)" y2="-1.23" x2="1750.68" y1="-1.23" x1="-215.16" id="Unbenannter_Verlauf_87"/>
  <linearGradient xlink:href="#Unbenannter_Verlauf_16" gradientTransform="matrix(1, -0.03, -0.03, -1, 211.77, 308.83)" y2="3.34" x2="1723.53" y1="3.34" x1="-241.1" id="Unbenannter_Verlauf_88"/>
  <linearGradient xlink:href="#Unbenannter_Verlauf_17" gradientTransform="matrix(1, -0.04, -0.04, -1, 239.37, 316.56)" y2="8.06" x2="1695.67" y1="8.06" x1="-267.59" id="Unbenannter_Verlauf_89"/>
  <linearGradient xlink:href="#Unbenannter_Verlauf_18" gradientTransform="matrix(1, -0.04, -0.04, -1, 266.32, 324.22)" y2="12.88" x2="1668.63" y1="12.88" x1="-293.36" id="Unbenannter_Verlauf_90"/>
  <linearGradient xlink:href="#Unbenannter_Verlauf_19" gradientTransform="matrix(1, -0.04, -0.04, -1, 293.29, 331.82)" y2="18.99" x2="1641.57" y1="18.99" x1="-319.06" id="Unbenannter_Verlauf_91"/>
  <linearGradient xlink:href="#Unbenannter_Verlauf_20" gradientTransform="matrix(1, -0.05, -0.05, -1, 320.25, 339.37)" y2="22.23" x2="1614.45" y1="22.23" x1="-344.67" id="Unbenannter_Verlauf_92"/>
  <linearGradient xlink:href="#Unbenannter_Verlauf_21" gradientTransform="matrix(1, -0.05, -0.05, -1, 347.21, 346.87)" y2="25.65" x2="1587.39" y1="25.65" x1="-370.19" id="Unbenannter_Verlauf_93"/>
  <linearGradient xlink:href="#Unbenannter_Verlauf_22" gradientTransform="matrix(1, -0.05, -0.05, -1, 358.65, 358.4)" y2="36.88" x2="1576.56" y1="36.88" x1="-379.91" id="Unbenannter_Verlauf_94"/>
  <linearGradient xlink:href="#Unbenannter_Verlauf_23" gradientTransform="matrix(1, -0.06, -0.06, -1, 401.8, 361.73)" y2="32.83" x2="1532.5" y1="32.83" x1="-421.63" id="Unbenannter_Verlauf_95"/>
  <linearGradient xlink:href="#Unbenannter_Verlauf_24" gradientTransform="matrix(1, -0.06, -0.06, -1, 428.77, 369.08)" y2="36.73" x2="1505.38" y1="36.73" x1="-446.89" id="Unbenannter_Verlauf_96"/>
 </defs>
 <g>
  <title>Layer 1</title>
  <g id="svg_1" opacity="0.4" class="cls-1">
   <path id="svg_2" stroke-width="0.75px" stroke-miterlimit="10" stroke="#fff" fill="none" d="m-11.25,328.69s-45.51,-126.69 47.51,-130.83s270.07,151.43 344.58,142.74s98.45,-68.38 168.5,-71.71s196.53,82.35 245.9,78.55s15,-89.83 60.4,-90.93s49.64,63.1 125.21,75.24c95.48,15.34 101.62,25.05 124.4,30.84c47.7,12.11 46.1,-141.9 110.45,-55.45s138.55,64.22 212.13,59.63s71.66,-136.77 119.45,-131.25s66.32,34.87 59.09,49.67" class="cls-2"/>
   <path id="svg_3" stroke="url(#Unbenannter_Verlauf)" stroke-width="0.75px" stroke-miterlimit="10" fill="none" d="m-10.65,325.66c-0.51,1 -43.2,-118.57 48.37,-121.54c31.51,-0.94 72.64,16 116.45,38c85.47,42.76 175.2,101.55 223.64,95.09a159.86,159.86 0 0 0 29.54,-6.75c52.48,-17.34 78.87,-58.82 137.21,-60.23c69.07,-1.67 191.52,83.26 242.33,79.53c47.51,-3.37 22.17,-71.73 49.14,-89.4a25.37,25.37 0 0 1 12.43,-3.84c25.52,-1.81 39.9,16.14 59.1,35.36c16,16 32.42,32.82 63.79,40.17c6.11,1.44 12,3 18,4.09c76.57,13.85 85.46,21.26 109.27,26.41a22.68,22.68 0 0 0 16,-2.31c28.92,-15.43 32.37,-81.29 59.41,-81.5c8.8,-0.06 20.31,6.8 35.14,24.36a205.94,205.94 0 0 0 58.78,48c32.8,18 61.69,22.41 98.93,20.36c17.79,-0.93 35.21,-3.19 52.54,-4.64c14.81,-1.24 26.68,-7.41 37,-15.87c19.6,-16.11 31,-43.94 42.49,-66.5c13.44,-26.48 26.55,-50.68 47.26,-47.38c46.47,7.42 65.39,37.87 60.09,52.21" class="cls-3"/>
   <path id="svg_4" stroke="url(#Unbenannter_Verlauf_2)" stroke-width="0.75px" stroke-miterlimit="10" fill="none" d="m-10.06,322.63c-1,2.06 -40.89,-110.7 49.24,-112.26c31.2,-0.53 71.81,16.23 115.41,37.09c86.3,41.28 172.31,93.32 220.18,86.28a190.11,190.11 0 0 0 29.23,-6.74c52.28,-16.46 78.86,-55.54 135.79,-55.54c68.1,0 186.49,84.05 238.75,80.5c51.1,-3.48 22.73,-71.65 50.24,-91.13a26.64,26.64 0 0 1 12.5,-4.43c25.84,-3 42.09,13.36 61.37,32.23c16.7,16.33 30.14,34.3 59.2,43.61c5.66,1.81 11.22,3.88 17.55,5.07c75.28,14.08 86.23,20.21 112.68,25.08a26.11,26.11 0 0 0 16.56,-2.33c33.26,-15.89 30.73,-81.88 57.51,-83.39c8.71,-0.47 20.92,5.8 36.7,22.27c20.7,21.61 43.51,35.72 61.66,46.38c31.81,18.56 54.12,27.4 92.71,26.32c18.6,-0.51 36.37,-3 54,-4.81c15.07,-1.57 27.22,-8 38.19,-16.1c21.33,-15.76 33.12,-44.75 45.66,-66.31c14.63,-25.17 29.45,-50.06 50.17,-45.83c45.1,9.2 64.46,40.86 61.08,54.74" class="cls-4"/>
   <path id="svg_5" stroke="url(#Unbenannter_Verlauf_3)" stroke-width="0.75px" stroke-miterlimit="10" fill="none" d="m-9.47,319.6c-1.53,3.09 -38.53,-102.7 50.1,-103c30.9,-0.09 71,16.4 114.38,36.21c87.15,39.79 169.43,85.19 216.73,77.47a234,234 0 0 0 28.9,-6.66c52.09,-15.57 78.88,-52.24 134.37,-50.84c67.15,1.69 181.48,84.91 235.18,81.46c54.7,-3.51 23.31,-71.54 51.34,-92.85a27.74,27.74 0 0 1 12.58,-5c26.16,-4.23 44.28,10.56 63.63,29.09c17.41,16.66 28,35.82 54.62,47c5.22,2.19 10.43,4.77 17,6.05c74,14.28 87,19.2 116.1,23.75a30,30 0 0 0 17.07,-2.35c37.65,-16.29 29.08,-82.48 55.6,-85.27c8.62,-0.88 21.56,4.8 38.25,20.17c22.11,20.37 46.92,33.74 64.55,44.72c30.76,19.18 46.56,32.45 86.48,32.29c19.42,-0.07 37.55,-2.78 55.45,-5c15.33,-1.91 27.79,-8.59 39.41,-16.33c23.07,-15.39 35.2,-45.56 48.82,-66.12c15.8,-23.85 32.33,-49.47 53.07,-44.29c43.71,10.9 63.53,43.85 62.08,57.28" class="cls-5"/>
   <path id="svg_6" stroke="url(#Unbenannter_Verlauf_4)" stroke-width="0.75px" stroke-miterlimit="10" fill="none" d="m-8.87,316.57c-2,4.12 -36.26,-94.7 51,-93.68c30.59,0.35 70.21,16.56 113.35,35.33c88,38.28 166.54,77 213.26,68.67c10.13,-1.82 19.54,-4.1 28.58,-6.62c51.9,-14.7 78.92,-48.92 133,-46.15c66.22,3.39 176.45,85.78 231.6,82.43c58.29,-3.54 23.89,-71.42 52.44,-94.58a28.85,28.85 0 0 1 12.64,-5.59c26.49,-5.45 46.48,7.75 65.91,25.95c18.12,17 25.88,37.44 50,50.48c4.83,2.61 9.66,5.67 16.55,7c72.72,14.45 87.71,18.23 119.5,22.42a34.43,34.43 0 0 0 17.58,-2.37c42.12,-16.61 27.44,-83.12 53.69,-87.16c8.53,-1.31 22.22,3.79 39.81,18.08c23.56,19.13 50.35,31.73 67.43,43.06c29.76,19.74 39,37.51 80.27,38.26c20.23,0.37 38.71,-2.58 56.91,-5.17c15.58,-2.24 28.35,-9.16 40.61,-16.56c24.86,-15 37.27,-46.37 52,-65.92c17,-22.53 35.18,-48.91 56,-42.76c42.28,12.5 62.6,46.85 63.07,59.82" class="cls-6"/>
   <path id="svg_7" stroke="url(#Unbenannter_Verlauf_5)" stroke-width="0.75px" stroke-miterlimit="10" fill="none" d="m-8.28,313.55c-2.51,5.14 -33.94,-86.69 51.82,-84.41c30.29,0.81 69.42,16.72 112.32,34.45c88.9,36.77 163.66,68.92 209.81,59.87c9.92,-1.95 19.23,-4.19 28.25,-6.58c51.74,-13.7 79,-45.58 131.54,-41.46c65.31,5.12 171.44,86.67 228,83.41c61.92,-3.57 24.54,-71.29 53.54,-96.31a30.43,30.43 0 0 1 12.73,-6.17c26.81,-6.69 48.69,4.93 68.17,22.81c18.85,17.3 23.88,39.2 45.44,53.92c4.44,3 8.88,6.56 16,8c71.45,14.58 88.43,17.3 122.91,21.09a39.16,39.16 0 0 0 18.09,-2.39c46.62,-16.87 25.8,-83.73 51.79,-89c8.44,-1.73 22.9,2.77 41.37,16c25,17.89 53.77,29.72 70.31,41.41c28.75,20.29 31.45,42.57 74,44.22c21,0.82 39.88,-2.37 58.36,-5.35c15.85,-2.57 28.94,-9.73 41.82,-16.79c26.65,-14.61 39.32,-47.17 55.16,-65.73c18.09,-21.21 38,-48.38 58.88,-41.22c40.85,14 61.67,49.85 64.07,62.36" class="cls-7"/>
   <path id="svg_8" stroke="url(#Unbenannter_Verlauf_6)" stroke-width="0.75px" stroke-miterlimit="10" fill="none" d="m-7.69,310.52c-3,6.17 -31.61,-78.67 52.69,-75.12c30,1.26 68.64,16.85 111.28,33.57c89.8,35.23 160.77,60.8 206.35,51.06c9.72,-2.07 18.92,-4.29 27.93,-6.53c51.55,-12.8 79,-42.22 130.13,-36.77c64.4,6.87 166.42,87.55 224.45,84.37c65.48,-3.58 25.06,-71.13 54.65,-98a31.9,31.9 0 0 1 12.79,-6.75c27.15,-7.94 50.92,2.1 70.44,19.67s21.9,41.14 40.85,57.35c4.09,3.5 8.11,7.45 15.54,9c70.19,14.69 89.15,16.4 126.33,19.76a44.71,44.71 0 0 0 18.6,-2.41c51.14,-17.06 24.14,-84.33 49.88,-90.93c8.34,-2.14 23.58,1.76 42.92,13.89c26.5,16.63 57.2,27.71 73.2,39.75c27.74,20.85 23.89,47.64 67.82,50.19c21.86,1.27 41,-2.17 59.82,-5.53c16.11,-2.9 29.53,-10.28 43,-17c28.46,-14.19 41.35,-48 58.32,-65.54c19.21,-19.88 40.83,-47.88 61.79,-39.68c39.41,15.42 60.73,52.85 65.06,64.91" class="cls-8"/>
   <path id="svg_9" stroke="url(#Unbenannter_Verlauf_7)" stroke-width="0.75px" stroke-miterlimit="10" fill="none" d="m-7.09,307.49c-3.52,7.2 -29.29,-70.63 53.54,-65.84c29.69,1.72 67.87,17 110.25,32.7c90.72,33.65 157.89,52.65 202.9,42.26c9.51,-2.21 18.6,-4.4 27.61,-6.49c51.35,-11.91 79.06,-38.83 128.7,-32.08c63.52,8.64 161.41,88.44 220.88,85.34c69.08,-3.6 25.67,-71 55.75,-99.76a33.62,33.62 0 0 1 12.86,-7.33c27.48,-9.19 53.15,-0.73 72.71,16.53c20.32,17.93 19.89,43.34 36.27,60.79c3.74,4 7.33,8.33 15,10c68.92,14.77 89.85,15.54 129.73,18.43a51,51 0 0 0 19.11,-2.43c55.7,-17.18 22.5,-84.93 48,-92.81c8.25,-2.56 24.29,0.72 44.47,11.79c28,15.36 60.62,25.7 76.09,38.09c26.73,21.4 16.33,52.72 61.6,56.16c22.68,1.72 42.21,-2 61.27,-5.71c16.37,-3.24 30.13,-10.83 44.25,-17.25c30.28,-13.76 43.37,-48.78 61.49,-65.34c20.31,-18.57 43.64,-47.42 64.69,-38.15c38,16.73 59.81,55.85 66.06,67.45" class="cls-9"/>
   <path id="svg_10" stroke="url(#Unbenannter_Verlauf_8)" stroke-width="0.75px" stroke-miterlimit="10" fill="none" d="m-6.5,304.46c-4,8.23 -27,-62.58 54.41,-56.55c29.38,2.18 67.09,17.09 109.21,31.82c91.66,32.07 155,44.58 199.44,33.45c9.31,-2.33 18.29,-4.51 27.29,-6.45c51.16,-11 79.13,-35.41 127.28,-27.38c62.65,10.44 156.38,88.9 217.31,86.31c72.7,-3.09 26.28,-70.81 56.85,-101.49a35.42,35.42 0 0 1 12.94,-7.91c27.8,-10.45 55.39,-3.57 75,13.39c21.06,18.24 14.59,48.55 31.68,64.23c2.47,5.09 6.55,9.22 14.54,11c67.66,14.83 90.55,14.71 133.15,17.12a58.35,58.35 0 0 0 19.61,-2.46c60.27,-17.24 20.86,-85.52 46.08,-94.7c8.15,-3 25,-0.32 46,9.7c29.52,14.07 64,23.68 79,36.43c25.72,22 8.77,57.8 55.38,62.12c23.49,2.18 43.38,-1.75 62.73,-5.88c16.62,-3.57 30.72,-11.37 45.46,-17.48c32.11,-13.31 45.37,-49.59 64.65,-65.15c21.39,-17.26 46.45,-47 67.6,-36.61c36.57,18 58.87,58.85 67.05,70" class="cls-10"/>
   <path id="svg_11" stroke="url(#Unbenannter_Verlauf_9)" stroke-width="0.75px" stroke-miterlimit="10" fill="none" d="m-5.91,301.44c-4.52,9.25 -24.63,-54.54 55.27,-47.27c29.09,2.64 66.35,17.18 108.18,30.94c92.61,30.46 152.11,36.47 196,24.64c9.1,-2.45 18,-4.61 27,-6.4c51,-10.12 79.21,-32 125.87,-22.69c61.78,12.27 151.36,89.79 213.73,87.28c76.24,-3.08 26.86,-70.63 57.86,-103.22a37.46,37.46 0 0 1 13,-8.49c28.13,-11.73 57.63,-6.42 77.24,10.25c21.86,18.53 12.11,50.68 27.15,67.68c2,5.6 5.77,10.11 14,12c66.4,14.88 91.26,13.91 136.55,15.78a66.43,66.43 0 0 0 20.13,-2.48c64.85,-17.24 19.2,-86.12 44.17,-96.59c8.06,-3.37 25.72,-1.38 47.58,7.61c31,12.76 67.47,21.67 81.86,34.77c24.71,22.51 1.2,62.89 49.15,68.09c24.31,2.64 44.55,-1.55 64.19,-6.06c16.88,-3.9 31.32,-11.9 46.67,-17.71c34,-12.84 47.37,-50.42 67.82,-65c22.45,-16 49.27,-46.6 70.5,-35.07c35.18,19.11 58,61.85 68,72.53" class="cls-11"/>
   <path id="svg_12" stroke="url(#Unbenannter_Verlauf_10)" stroke-width="0.75px" stroke-miterlimit="10" fill="none" d="m-5.31,298.41c-5,10.28 -22.31,-46.47 56.13,-38c28.78,3.11 65.59,17.27 107.14,30.07c93.57,28.82 149.23,28.38 192.53,15.84a265.21,265.21 0 0 1 26.64,-6.32c50.77,-9.23 79.28,-28.48 124.45,-18c60.92,14.14 146.35,90.7 210.16,88.25c79.89,-3.07 27.52,-70.44 59,-104.94a39.76,39.76 0 0 1 13.14,-9.1c28.45,-13 59.88,-9.27 79.5,7.11c22.62,18.89 9.54,52.89 22.51,71.14c1.44,6.11 5,11 13.54,12.94c65.16,14.9 92,13.14 140,14.45a76.75,76.75 0 0 0 20.63,-2.49c69.44,-17.2 17.56,-86.72 42.27,-98.48c8,-3.79 26.45,-2.46 49.13,5.51c32.59,11.44 70.9,19.65 84.75,33.11c23.7,23 -6.36,68 42.93,74.06c25.13,3.1 45.71,-1.35 65.64,-6.24c17.14,-4.24 31.93,-12.43 47.89,-17.94c35.78,-12.36 49.34,-51.25 71,-64.76c23.51,-14.69 52.1,-46.26 73.41,-33.53c33.8,20.18 57,64.84 69,75.06" class="cls-12"/>
   <path id="svg_13" stroke="url(#Unbenannter_Verlauf_11)" stroke-width="0.75px" stroke-miterlimit="10" fill="none" d="m-4.72,295.38c-5.53,11.31 -20,-38.39 57,-28.7c28.49,3.58 64.85,17.34 106.11,29.19c94.55,27.15 146.34,20.29 189.08,7a193.5,193.5 0 0 1 26.32,-6.32c50.57,-8.35 79.35,-25 123,-13.31c60.06,16 141.35,92 206.58,89.22c83.47,-3.61 28.16,-70.26 60.15,-106.67a42.17,42.17 0 0 1 13.18,-9.63c28.77,-14.28 62.13,-12.13 81.77,4c23.33,19.13 7,55 17.93,74.55c0.92,6.61 4.22,11.86 13,13.92c63.91,14.91 92.68,12.41 143.38,13.12a88.09,88.09 0 0 0 21.15,-2.51c74,-17.09 15.91,-87.32 40.36,-100.37c7.87,-4.2 27.18,-3.54 50.69,3.41c34.13,10.1 74.33,17.64 87.62,31.46c22.71,23.59 -13.91,73.08 36.72,80c25.94,3.56 46.88,-1.14 67.09,-6.42c17.41,-4.57 32.54,-13 49.1,-18.17c37.63,-11.86 51.32,-52.1 74.15,-64.57c24.56,-13.42 55,-45.94 76.31,-32c32.47,21.2 56.08,67.83 70,77.6" class="cls-13"/>
   <path id="svg_14" stroke="url(#Unbenannter_Verlauf_12)" stroke-width="0.75px" stroke-miterlimit="10" fill="none" d="m-4.13,292.35c-6,12.34 -17.65,-30.29 57.86,-19.42c28.18,4.06 64.11,17.4 105.07,28.32c95.53,25.46 143.46,12.21 185.62,-1.78a152,152 0 0 1 26,-6.27c50.37,-7.47 79.42,-21.43 121.61,-8.62c59.21,18 136.34,92.94 203,90.19c87.06,-3.6 28.8,-70.06 61.26,-108.4a44.64,44.64 0 0 1 13.23,-10.21c29.09,-15.57 64.4,-15 84,0.83c24.09,19.41 8.19,56 13.34,78c1.62,6.94 3.45,12.75 12.54,14.91c62.66,14.91 93.39,11.69 146.78,11.79a101.88,101.88 0 0 0 21.66,-2.53c78.64,-16.94 14.27,-87.91 38.46,-102.25c7.77,-4.61 27.92,-4.64 52.24,1.31c35.67,8.74 77.76,15.61 90.51,29.8c21.7,24.13 -21.47,78.18 30.49,86c26.76,4 48,-0.94 68.56,-6.6c17.66,-4.9 33.14,-13.46 50.31,-18.4c39.47,-11.35 53.28,-53 77.31,-64.38c25.59,-12.16 57.82,-45.66 79.21,-30.45c31.17,22.15 55.16,70.83 71,80.15" class="cls-14"/>
   <path id="svg_15" stroke="url(#Unbenannter_Verlauf_13)" stroke-width="0.75px" stroke-miterlimit="10" fill="none" d="m-3.53,289.33c-6.53,13.36 -15.33,-22.17 58.71,-10.17c27.89,4.54 63.38,17.44 104,27.43c96.53,23.74 140.58,4.16 182.17,-10.58a124.57,124.57 0 0 1 25.65,-6.23c50.18,-6.58 79.49,-17.85 120.19,-3.92c58.35,20 131.33,93.85 199.44,91.15c90.66,-3.58 29.45,-69.86 62.36,-110.12a47.11,47.11 0 0 1 13.3,-10.82c29.4,-16.87 66.65,-17.86 86.31,-2.31c24.85,19.68 5.47,58.54 8.74,81.42c1.08,7.54 2.68,13.62 12,15.89c61.42,14.89 94.1,11 150.2,10.46a118,118 0 0 0 22.16,-2.55c83.25,-16.75 12.63,-88.5 36.56,-104.14c7.68,-5 28.65,-5.75 53.79,-0.78c37.22,7.36 81.19,13.59 93.4,28.14c20.7,24.67 -29,83.29 24.27,92c27.57,4.49 49.21,-0.74 70,-6.78c17.92,-5.23 33.75,-14 51.52,-18.63c41.31,-10.83 55.25,-53.84 80.48,-64.18c26.63,-10.93 60.73,-45.42 82.12,-28.92c29.9,23.07 54.22,73.83 72,82.69" class="cls-15"/>
   <path id="svg_16" stroke="url(#Unbenannter_Verlauf_14)" stroke-width="0.75px" stroke-miterlimit="10" fill="none" d="m-2.94,286.3c-7,14.39 -13,-14.08 59.58,-0.85c27.58,5 62.64,17.46 103,26.55c97.53,22 137.7,-3.9 178.71,-19.38a103.93,103.93 0 0 1 25.35,-6.19c50,-5.7 79.55,-14.25 118.78,0.76c57.46,22 126.31,94.76 195.86,92.13c94.26,-3.57 30.11,-69.66 63.46,-111.85a49.91,49.91 0 0 1 13.37,-11.4c29.71,-18.17 68.92,-20.74 88.58,-5.45c25.63,19.94 2.69,61.05 4.16,84.85c0.5,8.14 1.9,14.5 11.53,16.88c60.19,14.86 94.86,6.79 153.61,9.13c7.63,0.31 15.11,-1.15 22.68,-2.57c87.84,-16.52 11,-89.09 34.65,-106c7.58,-5.43 29.38,-6.86 55.34,-2.87c38.76,6 84.63,11.57 96.29,26.48c19.71,25.21 -36.6,88.39 18,97.94c28.38,5 50.38,-0.53 71.46,-7c18.18,-5.57 34.35,-14.47 52.73,-18.86c43.16,-10.29 57.21,-54.73 83.65,-64c27.67,-9.7 63.66,-45.21 85,-27.38c28.69,23.94 53.3,76.83 73,85.23" class="cls-16"/>
   <path id="svg_17" stroke="url(#Unbenannter_Verlauf_15)" stroke-width="0.75px" stroke-miterlimit="10" fill="none" d="m-2.34,283.27c-7.54,15.42 -10.66,-5.95 60.44,8.43c27.27,5.52 61.91,17.48 102,25.68c98.53,20.17 134.82,-12 175.25,-28.19a89.08,89.08 0 0 1 25,-6.15c49.79,-4.82 79.59,-10.61 117.36,5.46c56.56,24.07 121.29,95.66 192.29,93.1c97.85,-3.6 30.77,-69.45 64.56,-113.6a53.1,53.1 0 0 1 13.44,-12c30,-19.48 71.19,-23.62 90.84,-8.59c26.41,20.2 -0.14,63.48 -0.43,88.29c-0.1,8.7 1.13,15.37 11,17.86c58.94,14.82 95.52,6.33 157,7.8c7.76,0.19 15.41,-1.22 23.18,-2.59c92.5,-16.23 9.4,-89.63 32.8,-107.89c7.49,-5.84 30.1,-8 56.9,-5c40.29,4.56 88.06,9.54 99.17,24.82c18.71,25.74 -44.17,93.5 11.82,103.9c29.2,5.43 51.55,-0.32 72.93,-7.13c18.43,-5.9 35,-15 53.94,-19.09c45,-9.75 59.17,-55.63 86.81,-63.8c28.7,-8.48 66.63,-45 87.93,-25.84c27.5,24.78 52.36,79.83 74,87.77" class="cls-17"/>
   <path id="svg_18" stroke="url(#Unbenannter_Verlauf_16)" stroke-width="0.75px" stroke-miterlimit="10" fill="none" d="m-1.75,280.24c-8,16.45 -8.36,2.19 61.3,17.72c27,6 61.18,17.48 100.94,24.8c99.54,18.34 132,-20 171.79,-37a77.67,77.67 0 0 1 24.72,-6.1c49.58,-4 79.61,-6.94 115.94,10.15c55.64,26.19 116.28,96.59 188.71,94.06c101.45,-3.53 31.44,-69.24 65.66,-115.3a56.28,56.28 0 0 1 13.52,-12.57c30.31,-20.79 73.46,-26.5 93.11,-11.73c27.2,20.45 -3,65.85 -5,91.73c-0.72,9.25 0.35,16.24 10.53,18.84c57.71,14.77 96.21,5.94 160.43,6.47c7.89,0.07 15.72,-1.3 23.69,-2.61c97.06,-15.95 7.71,-90.26 30.85,-109.8c7.4,-6.25 30.83,-9.13 58.45,-7.06c41.83,3.13 91.5,7.51 102.06,23.16c17.72,26.27 -51.74,98.61 5.6,109.87c30,5.9 52.72,-0.12 74.38,-7.31c18.69,-6.23 35.56,-15.47 55.15,-19.32c46.85,-9.19 61.14,-56.54 90,-63.61c29.74,-7.28 69.65,-44.87 90.83,-24.3c26.37,25.61 51.43,82.83 75,90.31" class="cls-18"/>
   <path id="svg_19" stroke="url(#Unbenannter_Verlauf_17)" stroke-width="0.75px" stroke-miterlimit="10" fill="none" d="m-1.16,277.21c-8.54,17.48 -6,10.35 62.17,27c26.67,6.52 60.45,17.47 99.9,23.93c100.56,16.46 129.09,-28 168.34,-45.8a68,68 0 0 1 24.38,-6.06c49.37,-3.12 79.62,-3.25 114.52,14.88c54.69,28.35 111.28,97.64 185.14,95c105.06,-3.31 32.11,-69 66.77,-117a59.07,59.07 0 0 1 13.59,-13.16c30.59,-22.1 75.73,-29.39 95.37,-14.87c28,20.7 -5.86,68.15 -9.6,95.16c-1.35,9.79 -0.41,17.11 10,19.83c56.48,14.71 96.9,5.62 163.84,5.14c8,0 16,-1.37 24.2,-2.63c101.66,-15.63 6.06,-90.83 28.94,-111.63c7.31,-6.66 31.54,-10.28 60,-9.16c43.36,1.7 94.94,5.48 105,21.5c16.74,26.8 -59.3,103.72 -0.62,115.84c30.82,6.37 53.88,0.09 75.83,-7.49c19,-6.57 36.16,-16 56.37,-19.55c48.68,-8.63 63.1,-57.47 93.14,-63.41c30.79,-6.1 72.7,-44.75 93.74,-22.77c25.28,26.42 50.5,85.83 76,92.85" class="cls-19"/>
   <path id="svg_20" stroke="url(#Unbenannter_Verlauf_18)" stroke-width="0.75px" stroke-miterlimit="10" fill="none" d="m-0.56,274.16c-9,18.5 -3.74,18.5 63,36.28c26.36,7 59.73,17.44 98.87,23.05c101.57,14.51 126.23,-36.05 164.88,-54.61a62,62 0 0 1 24.06,-6c49.18,-2.49 79.61,0.47 113.11,19.54c53.7,30.56 106.26,98.53 181.56,96c108.65,-3.31 32.8,-68.82 67.87,-118.76a62.86,62.86 0 0 1 13.66,-13.73c30.89,-23.4 78,-32.27 97.64,-18c28.79,20.93 -8.74,70.38 -14.18,98.6c-2,10.3 -1.19,18 9.53,20.81c55.25,14.64 97.61,5.35 167.25,3.81c8.15,-0.18 16.33,-1.44 24.71,-2.65c106.27,-15.25 4.47,-91.39 27,-113.57c7.23,-7 32.26,-11.42 61.56,-11.25c44.87,0.26 98.38,3.45 107.82,19.84c15.82,27.34 -66.78,108.85 -6.78,121.82c31.64,6.84 55,0.29 77.29,-7.67c19.22,-6.9 36.77,-16.46 57.58,-19.78c50.53,-8.06 65.08,-58.4 96.31,-63.22c31.84,-4.91 75.8,-44.64 96.64,-21.23c24.23,27.22 49.57,88.82 77,95.4" class="cls-20"/>
   <path id="svg_21" stroke="url(#Unbenannter_Verlauf_19)" stroke-width="0.75px" stroke-miterlimit="10" fill="none" d="m0,271.16c-9.55,19.53 -1.43,26.69 63.89,45.57c26.05,7.53 59,17.4 97.83,22.17c102.59,12.6 123.38,-44.06 161.43,-63.42a54.34,54.34 0 0 1 23.73,-6c49,-1.35 79.57,4.21 111.69,24.22c52.67,32.83 101.25,99.44 178,97c112.25,-3.3 33.48,-68.6 69,-120.48a66.34,66.34 0 0 1 13.73,-14.31c31.18,-24.72 80.29,-35.17 99.91,-21.14c29.59,21.16 -11.61,72.57 -18.77,102c-2.63,10.81 -2,18.84 9,21.8c54,14.57 98.45,7.37 170.66,2.49c8.27,-0.56 16.64,-1.53 25.23,-2.68c110.86,-14.86 2.83,-92 25.13,-115.45c7.13,-7.47 33,-12.58 63.11,-13.35c46.38,-1.19 101.82,1.42 110.71,18.18c14.78,27.86 -74.43,114 -13.06,127.78c32.45,7.31 56.22,0.49 78.75,-7.86c19.47,-7.22 37.36,-16.93 58.79,-20c52.36,-7.48 67,-59.34 99.47,-63c32.89,-3.73 79,-44.54 99.55,-19.68c23.22,28 48.64,91.81 78,97.93" class="cls-21"/>
   <path id="svg_22" stroke="url(#Unbenannter_Verlauf_20)" stroke-width="0.75px" stroke-miterlimit="10" fill="none" d="m0.62,268.16c-10,20.56 0.87,34.88 64.75,54.85c25.74,8.05 58.26,17.35 96.8,21.3c103.6,10.6 120.54,-52.06 158,-72.23a49.32,49.32 0 0 1 23.38,-5.92c48.81,-0.48 79.51,8 110.27,28.92c51.58,35.08 96.24,100.3 174.42,97.9c115.85,-3.3 34.17,-68.38 70.07,-122.21a70.26,70.26 0 0 1 13.81,-14.89c31.45,-26 82.57,-38.07 102.17,-24.28c30.4,21.38 -14.47,74.72 -23.35,105.47c-3.27,11.29 -2.73,19.69 8.53,22.78c52.81,14.49 99.19,6.83 174.07,1.16c8.39,-0.64 16.94,-1.6 25.73,-2.7c115.46,-14.44 1.19,-92.58 23.22,-117.34c7,-7.88 33.72,-13.17 64.67,-15.44c47.84,-3.52 105.27,-0.6 113.6,16.52c13.81,28.38 -82,119.17 -19.28,133.75c33.24,7.84 57.38,0.69 80.2,-8c19.73,-7.56 38,-17.42 60,-20.23c54.2,-6.89 69,-60.29 102.64,-62.83c34,-2.57 82.14,-44.47 102.45,-18.15c22.25,28.83 47.71,94.81 79,100.47" class="cls-22"/>
   <path id="svg_23" stroke="url(#Unbenannter_Verlauf_21)" stroke-width="0.75px" stroke-miterlimit="10" fill="none" d="m1.22,265.1c-10.56,21.59 3.16,43.06 65.61,64.14c25.42,8.57 57.52,17.28 95.76,20.41c104.6,8.57 117.7,-60 154.52,-81a44.48,44.48 0 0 1 23.09,-5.89c48.6,0.29 79.4,11.74 108.85,33.61c50.43,37.46 91.22,101.23 170.84,98.91c119.44,-3.3 34.87,-68.17 71.17,-123.94a74.3,74.3 0 0 1 13.88,-15.47c31.73,-27.35 84.85,-41 104.44,-27.42c31.21,21.59 -17.32,76.82 -27.94,108.91c-3.9,11.77 -3.49,20.54 8,23.76c51.59,14.4 99.93,6.31 177.48,-0.17c8.52,-0.71 17.25,-1.66 26.24,-2.71c120.06,-14 -0.45,-93.18 21.32,-119.24c7,-8.28 34.38,-14.88 66.23,-17.53c49.38,-4.12 108.71,-2.63 116.48,14.86c12.81,28.91 -89.59,124.27 -25.51,139.67c34.06,8.31 58.55,0.91 81.66,-8.21c20,-7.89 38.57,-17.91 61.22,-20.46c56,-6.3 71,-61.25 105.8,-62.64c35,-1.4 85.38,-44.4 105.36,-16.61c21.32,29.65 46.77,97.81 80,103" class="cls-23"/>
   <path id="svg_24" stroke="url(#Unbenannter_Verlauf_22)" stroke-width="0.75px" stroke-miterlimit="10" fill="none" d="m1.81,262.08c-11,22.61 5.44,51.29 66.47,73.42a337.62,337.62 0 0 0 94.72,19.5c105.6,6.49 114.88,-68 151.06,-89.83a40.61,40.61 0 0 1 22.77,-5.84c48.41,1.17 79.27,15.51 107.43,38.3c49.23,39.82 86.21,102.13 167.27,99.87c123,-3.29 35.57,-67.94 72.27,-125.66a78.26,78.26 0 0 1 14,-16c32,-28.67 87.13,-43.88 106.71,-30.56c32,21.79 -20.17,78.9 -32.54,112.34c-4.52,12.25 -4.26,21.4 7.54,24.75c50.37,14.31 100.67,5.8 180.89,-1.5c8.64,-0.79 17.55,-1.73 26.75,-2.73c124.65,-13.55 -2.1,-93.77 19.41,-121.12c6.86,-8.7 35.08,-16 67.78,-19.64c50.88,-5.57 112.17,-4.65 119.37,13.21c11.86,29.47 -97.16,129.41 -31.71,145.71c34.87,8.77 59.72,1.11 83.11,-8.39c20.25,-8.22 39.17,-18.39 62.43,-20.68c57.86,-5.72 73,-62.21 109,-62.46s88.66,-44.33 108.26,-15.07c20.42,30.48 45.85,100.81 81,105.55" class="cls-24"/>
   <path id="svg_25" stroke="url(#Unbenannter_Verlauf_23)" stroke-width="0.75px" stroke-miterlimit="10" fill="none" d="m2.4,259.05c-11.55,23.65 7.71,59.52 67.34,82.7c24.78,9.63 56,17.12 93.69,18.66c106.57,4.36 112.07,-76 147.57,-98.64a37.26,37.26 0 0 1 22.44,-5.8c48.22,2 79.1,19.3 106,43c47.95,42.22 81.18,103 163.69,100.85c126.63,-3.29 36.33,-67.69 73.38,-127.39a82.27,82.27 0 0 1 14,-16.63c32.24,-30 89.42,-46.79 109,-33.7c32.83,22 -23,81 -37.12,115.78c-5.16,12.71 -5,22.25 7,25.73c49.16,14.21 101.43,5.31 184.3,-2.83c8.78,-0.86 17.85,-1.8 27.26,-2.75c129.24,-13.07 -3.73,-94.37 17.51,-123c6.77,-9.11 35.77,-17.21 69.33,-21.73c52.37,-7 115.64,-6.69 122.26,11.55c10.93,30 -104.72,134.45 -38,151.65c35.68,9.23 60.88,1.31 84.57,-8.57c20.51,-8.55 39.76,-18.83 63.63,-20.91c59.7,-5 75,-63.18 112.14,-62.26s92,-44.27 111.17,-13.54c19.56,31.33 44.91,103.81 82,108.09" class="cls-25"/>
   <path id="svg_26" stroke="url(#Unbenannter_Verlauf_24)" stroke-width="0.75px" stroke-miterlimit="10" fill="none" d="m3,256c-17.13,35 34.48,107.19 160.85,109.77s106.62,-116.85 166.27,-113.2c135.14,8.25 134.49,152.78 264.72,149.5s37,-67.51 74.48,-129.12c25.12,-41.27 102.43,-69.13 125.34,-54.05c45.9,30.22 -81.38,132.33 -35.18,145.93c52.95,15.6 113.52,2.66 215.52,-6.91c133.83,-12.57 -5.37,-95 15.61,-124.89c17.12,-24.42 186.08,-44.44 196,-13.94s-112.29,139.55 -44.18,157.62s98.11,-26 150.88,-29.89c61.52,-4.51 77,-64.14 115.3,-62.07s95.34,-44.2 114.07,-12s44,106.81 83,110.64" class="cls-26"/>
  </g>
  <g id="svg_27" opacity="0.25" class="cls-27">
   <path id="svg_28" stroke-width="0.75px" stroke-miterlimit="10" stroke="#fff" fill="none" d="m457.65,313.55s-31.65,-13.55 16.71,-30.34s162.57,1.27 199.12,-16.52s25.11,-69.63 61.45,-82.43s93.83,10.31 118.86,0.11s16.94,-46.87 40.91,-54.3s52.43,44 98,43c57.63,-1.33 31.25,-48.65 30.56,-66.25s15.93,-48.37 85.79,12.44s100.72,32.09 138.44,17.77s-17.18,-121.23 10.79,-123.63s49.9,18.7 52,31.74" class="cls-2"/>
   <path id="svg_29" stroke="url(#Unbenannter_Verlauf_25)" stroke-width="0.75px" stroke-miterlimit="10" fill="none" d="m456.73,311c0.11,0.67 -29.89,-12.18 17.87,-26.9c15.82,-4.87 38.76,-6 63.64,-6.85c40.38,-1.42 80.35,-3.17 110.35,-7.38c9.53,-1.34 17.62,-3.16 23.72,-5.81c31.46,-13.78 29.37,-48.74 50.61,-68.36a42.84,42.84 0 0 1 14.51,-8.89c20,-7.39 42.73,-5.78 65.15,-3.51c19.81,2 39.22,3.49 51.1,-1.18c24.93,-9.82 15.84,-42.74 38.8,-48.31c5.2,-1.26 10.78,0.41 16.93,3.45c21,10.28 47.12,38.58 82.79,37a76.27,76.27 0 0 0 16.12,-2.25c36.93,-9.86 14.48,-48.91 12.81,-65.06a24.64,24.64 0 0 1 3.78,-16.1c7.95,-11.54 31.32,-16.74 74.35,19c2.59,2.15 5.18,4.52 7.9,7c41.66,38.3 68.84,44.21 93.84,38.2c15.3,-3.68 28.33,-11.49 42.37,-17.28c5.66,-2.35 9.25,-6.71 11.66,-12.28c5.66,-13 2.12,-34.67 -0.51,-53.87c-2.16,-15.8 -4.66,-33 -4.09,-42.61c0.49,-8.07 2.51,-13.18 8.75,-13.4c27.8,-1 50,20.38 52.81,32.8" class="cls-28"/>
   <path id="svg_30" stroke="url(#Unbenannter_Verlauf_26)" stroke-width="0.75px" stroke-miterlimit="10" fill="none" d="m455.82,308.47c0.22,1.34 -28,-10.75 19,-23.46c16.06,-4.33 39.41,-4.75 64.65,-6c41.63,-2 77.28,-7.82 107.44,-12.09c9.69,-1.38 17.94,-3.07 24.2,-5.5c32.27,-12.52 31.2,-43.56 54,-63.14a50.36,50.36 0 0 1 14.89,-8.95c20.64,-8 40.93,-8.08 62.59,-6.63c19.11,1.28 39,1.71 51.05,-2.86c24.83,-9.44 14.78,-38.62 36.7,-42.3c4.92,-0.83 10.34,1.16 16.57,4.1c21.35,10.07 48.66,36.2 84.82,33.91a79.62,79.62 0 0 0 16.31,-2.49c37.58,-10.42 13.72,-49.22 11,-65.83a23.78,23.78 0 0 1 3,-16.3c7.66,-12 33.65,-18.84 75.46,16.48c2.58,2.18 5.09,4.67 7.77,7.27c39.77,38.48 65.77,47.23 91.31,41.73c16,-3.42 28.81,-11.6 42.71,-17.82c5.64,-2.53 9.23,-7 12,-12.46c6.59,-13.08 2.59,-35.9 1.11,-54.43c-1.23,-15.28 -2.64,-33.61 -1.46,-41.9c1.06,-7.44 2.91,-12 9.2,-11.91c27.6,0.36 50.18,22 53.58,33.85" class="cls-29"/>
   <path id="svg_31" stroke="url(#Unbenannter_Verlauf_27)" stroke-width="0.75px" stroke-miterlimit="10" fill="none" d="m454.9,305.93c0.33,2 -26.11,-9.27 20.18,-20c16.33,-3.79 40.06,-3.53 65.66,-5.07c42.88,-2.59 74.21,-12.47 104.52,-16.8c9.85,-1.42 18.25,-3 24.69,-5.2c33,-11.31 33,-38.38 57.28,-57.91a59.5,59.5 0 0 1 15.2,-9c21.32,-8.59 39.13,-10.39 60,-9.75c18.42,0.55 38.87,-0.09 51,-4.54c24.72,-9.07 13.64,-36.14 34.58,-36.3c4.7,0 9.93,1.9 16.21,4.74c21.74,9.84 50.21,33.83 86.86,30.8a85.38,85.38 0 0 0 16.5,-2.82c38.23,-11 13,-49.53 9.18,-66.59a23.14,23.14 0 0 1 2.24,-16.49c7.37,-12.41 36,-20.93 76.57,13.93c2.57,2.21 5,4.81 7.65,7.52c37.88,38.63 62.59,50.34 88.77,45.35c16.6,-3.16 29.29,-11.72 43,-18.36c5.62,-2.71 9.23,-7.31 12.29,-12.63c7.56,-13.14 3.07,-37.14 2.73,-55c-0.28,-14.77 -0.6,-34.18 1.18,-41.18c1.78,-6.79 3.4,-10.85 9.78,-10.45c27.37,1.71 50.32,23.73 54.35,34.9" class="cls-30"/>
   <path id="svg_32" stroke="url(#Unbenannter_Verlauf_28)" stroke-width="0.75px" stroke-miterlimit="10" fill="none" d="m454,303.39c0.44,2.68 -24.1,-7.72 21.33,-16.58c16.67,-3.25 40.67,-2.32 66.67,-4.18c44.14,-3.18 71.14,-17.12 101.61,-21.52c10,-1.45 18.56,-2.9 25.17,-4.88c33.8,-10.11 34.84,-33.21 60.61,-52.69a71.23,71.23 0 0 1 15.56,-9c22,-9.21 37.31,-12.69 57.45,-12.88c17.71,-0.17 38.69,-1.87 51,-6.21c24.62,-8.7 12.86,-30.44 32.47,-30.31c4.44,0 9.51,2.64 15.85,5.39c22.14,9.61 51.7,31.07 88.9,27.69a85.4,85.4 0 0 0 16.69,-3.11c38.89,-11.55 12.22,-49.83 7.36,-67.36c-1.51,-5.45 -1.23,-11.69 1.52,-16.71c7.07,-12.86 38.27,-23 77.67,11.39a104.24,104.24 0 0 1 7.54,7.76c36,38.74 59.45,53.47 86.22,49c17.25,-2.89 29.76,-11.86 43.39,-18.91c5.6,-2.9 9.24,-7.6 12.6,-12.8c8.54,-13.2 3.55,-38.39 4.35,-55.56c0.67,-14.27 0,-35.16 3.81,-40.48c0.88,-6.31 3.71,-9.66 10.11,-9c27.12,3 50.46,25.42 55.13,36" class="cls-31"/>
   <path id="svg_33" stroke="url(#Unbenannter_Verlauf_29)" stroke-width="0.75px" stroke-miterlimit="10" fill="none" d="m453.07,300.85c0.55,3.34 -22.9,-12.57 22.49,-13.14c17.31,-0.22 41.37,-1.11 67.68,-3.3c45.4,-3.77 68.07,-21.76 98.7,-26.22c10.17,-1.49 18.86,-2.82 25.66,-4.57c34.55,-8.91 36.63,-28 63.93,-47.46a87.1,87.1 0 0 1 15.91,-9.11c22.66,-9.84 35.49,-15 54.89,-16c17,-0.88 38.5,-3.66 50.92,-7.89c24.51,-8.33 12,-26.31 30.36,-24.3c4.24,0.46 9.09,3.38 15.49,6c22.53,9.37 53.31,29.11 90.94,24.57a96.92,96.92 0 0 0 16.88,-3.4c39.54,-12.12 11.48,-50.14 5.54,-68.13c-1.83,-5.55 -1.81,-11.83 0.77,-16.91c6.76,-13.31 40.57,-25.08 78.78,8.84a90.45,90.45 0 0 1 7.41,8c34.27,38.81 56.33,56.6 83.68,52.6c17.91,-2.62 30.24,-12 43.73,-19.46c5.57,-3.08 9.26,-7.89 12.91,-13c9.56,-13.26 4,-39.65 6,-56.13c1.62,-13.77 1.65,-35.88 6.45,-39.76c1.1,-5.73 4.1,-8.51 10.56,-7.47c26.86,4.33 50.61,27.09 55.9,37" class="cls-32"/>
   <path id="svg_34" stroke="url(#Unbenannter_Verlauf_30)" stroke-width="0.75px" stroke-miterlimit="10" fill="none" d="m452.16,298.31c0.66,4 -20.35,-11.7 23.64,-9.7c17.53,0.79 42,0.1 68.69,-2.41c46.65,-4.38 65,-26.41 95.78,-30.93c10.33,-1.54 19.17,-2.74 26.15,-4.27c35.3,-7.72 38.43,-22.87 67.27,-42.23a107.69,107.69 0 0 1 16.25,-9.16c23.33,-10.48 33.59,-17.85 52.33,-19.14c16.35,-1.12 38.31,-5.45 50.88,-9.56c24.39,-8 11.27,-22.12 28.24,-18.31c4.05,0.91 8.68,4.12 15.13,6.69c22.93,9.13 54.85,26.76 93,21.46a104.91,104.91 0 0 0 17.07,-3.69c40.19,-12.69 10.75,-50.44 3.73,-68.9c-2.16,-5.66 -2.39,-12 0,-17.11c6.45,-13.77 42.85,-27.14 79.88,6.29a81.94,81.94 0 0 1 7.3,8.26c32.53,38.84 53.2,59.74 81.13,56.22c18.57,-2.33 30.71,-12.12 44.07,-20c5.55,-3.27 9.29,-8.18 13.22,-13.13c10.59,-13.32 4.53,-40.92 7.59,-56.7c2.58,-13.28 3.32,-36.6 9.09,-39c1.32,-5.13 4.49,-7.35 11,-6c26.59,5.6 50.75,28.77 56.67,38.06" class="cls-33"/>
   <path id="svg_35" stroke="url(#Unbenannter_Verlauf_31)" stroke-width="0.75px" stroke-miterlimit="10" fill="none" d="m451.24,295.77c0.77,4.68 -17.63,-10.54 24.8,-6.27c17.72,1.79 42.74,1.66 69.7,-1.51c47.8,-5.62 61.93,-31.06 92.87,-35.65c10.49,-1.57 19.47,-2.65 26.63,-4c36,-6.53 40.23,-17.71 70.6,-37a140.7,140.7 0 0 1 16.6,-9.21c24,-11.12 31.84,-19.59 49.77,-22.26c15.56,-2.32 38.13,-7.26 50.83,-11.24c24.28,-7.63 10.57,-17.83 26.13,-12.31c3.89,1.38 8.26,4.86 14.77,7.34c23.33,8.89 56.4,24.41 95,18.34a110.67,110.67 0 0 0 17.25,-4c40.85,-13.25 10,-50.75 1.92,-69.66c-2.48,-5.77 -3,-12.13 -0.74,-17.32c6.13,-14.23 45.12,-29.19 81,3.74c2.55,2.35 4.67,5.36 7.18,8.52c30.84,38.81 50,62.17 78.59,59.84c19.29,-1.57 31.17,-12.27 44.4,-20.55c5.52,-3.46 9.33,-8.47 13.54,-13.3c11.64,-13.37 5,-42.2 9.21,-57.27c3.54,-12.8 5,-37.32 11.71,-38.33c1.56,-4.55 4.88,-6.21 11.46,-4.5c26.33,6.83 50.9,30.44 57.45,39.11" class="cls-34"/>
   <path id="svg_36" stroke="url(#Unbenannter_Verlauf_32)" stroke-width="0.75px" stroke-miterlimit="10" fill="none" d="m450.33,293.23c0.88,5.35 -14.82,-9.09 25.95,-2.83c17.9,2.75 43.33,2.51 70.71,-0.62c49.16,-5.61 58.87,-35.71 90,-40.36c10.65,-1.61 19.77,-2.58 27.11,-3.65c36.79,-5.35 42,-12.55 73.93,-31.78c5.74,-3.45 11.29,-6.56 17,-9.27c24.64,-11.77 30,-21.87 47.19,-25.38c14.84,-3 37.94,-9.05 50.8,-12.92c24.15,-7.27 9.86,-13.42 24,-6.3c3.72,1.86 7.84,5.59 14.41,8c23.73,8.64 58,22.07 97.06,15.23a122.87,122.87 0 0 0 17.44,-4.26c41.5,-13.83 9.31,-51.07 0.1,-70.44c-2.79,-5.87 -3.56,-12.27 -1.49,-17.52c5.8,-14.69 47.38,-31.22 82.1,1.2c2.54,2.37 4.59,5.48 7.06,8.76c29.2,38.77 47,66 76,63.46c19.88,-1.77 31.64,-12.4 44.74,-21.09c5.5,-3.65 9.38,-8.76 13.85,-13.47c12.71,-13.42 5.55,-43.48 10.83,-57.84c4.52,-12.32 6.65,-38 14.35,-37.62c1.78,-4 5.27,-5.06 11.91,-3c26.06,8 51,32.12 58.22,40.17" class="cls-35"/>
   <path id="svg_37" stroke="url(#Unbenannter_Verlauf_33)" stroke-width="0.75px" stroke-miterlimit="10" fill="none" d="m449.41,290.69c1,6 -12,-7.37 27.11,0.61c18.06,3.69 44,3.7 71.72,0.27c50.42,-6.24 55.8,-40.37 87,-45.07c10.81,-1.65 20.1,-2.38 27.61,-3.34c37.41,-4.78 43.8,-7.4 77.26,-26.55c6,-3.43 11.64,-6.55 17.3,-9.33c25.3,-12.43 28.15,-24.16 44.63,-28.51c14.11,-3.72 37.75,-10.85 50.75,-14.59c24,-6.93 9.11,-8.92 21.91,-0.31c3.54,2.39 7.42,6.33 14,8.63c24.14,8.4 59.49,19.74 99.1,12.11a130.29,130.29 0 0 0 17.63,-4.54c42.16,-14.4 8.6,-51.38 -1.72,-71.21c-3.1,-6 -4.15,-12.42 -2.24,-17.72c5.46,-15.16 49.63,-33.25 83.2,-1.35c2.54,2.41 4.52,5.61 6.94,9c27.6,38.69 43.84,69.21 73.5,67.08c20.54,-1.47 32.11,-12.54 45.08,-21.64c5.47,-3.83 9.44,-9 14.16,-13.63c13.81,-13.46 6.1,-44.77 12.45,-58.41c5.52,-11.85 8.31,-38.76 17,-36.9c2,-3.37 5.67,-3.93 12.37,-1.53c25.8,9.23 51.18,33.79 59,41.22" class="cls-36"/>
   <path id="svg_38" stroke="url(#Unbenannter_Verlauf_34)" stroke-width="0.75px" stroke-miterlimit="10" fill="none" d="m448.5,288.16c1.1,6.68 -10.72,3.31 28.25,4c19,0.36 44.64,4.89 72.74,1.16c51.67,-6.87 52.73,-45 84.13,-49.79c11,-1.68 20.38,-2.42 28.09,-3c38.26,-3 45.58,-2.25 80.59,-21.33c6.22,-3.39 12,-6.53 17.65,-9.38c25.95,-13.09 26.31,-26.43 42.07,-31.63c13.38,-4.42 37.56,-12.66 50.7,-16.28c23.91,-6.58 8.29,-4.35 19.8,5.7c3.34,2.92 7,7.06 13.68,9.28c24.54,8.15 61,17.4 101.14,9a142.52,142.52 0 0 0 17.82,-4.83c42.81,-15 7.88,-51.69 -3.53,-72c-3.43,-6.09 -4.75,-12.58 -3,-17.93c5.11,-15.64 51.87,-35.27 84.31,-3.9c2.53,2.45 4.44,5.74 6.82,9.26c26,38.58 40.72,72.38 71,70.71c21.21,-1.18 32.58,-12.69 45.42,-22.19c5.45,-4 9.5,-9.31 14.47,-13.8c14.92,-13.48 6.66,-46.06 14.07,-59c6.53,-11.37 10,-39.49 19.62,-36.19c2.24,-2.77 6.06,-2.79 12.82,0c25.55,10.4 51.32,35.47 59.77,42.27" class="cls-37"/>
   <path id="svg_39" stroke="url(#Unbenannter_Verlauf_35)" stroke-width="0.75px" stroke-miterlimit="10" fill="none" d="m447.59,285.61c1.2,7.35 -8.38,5.45 29.4,7.49c19.47,1 45.29,6.08 73.75,2c52.92,-7.5 49.66,-49.66 81.21,-54.49a265.68,265.68 0 0 1 28.58,-2.72c39,-1.84 47.37,2.9 83.92,-16.1c6.46,-3.36 12.37,-6.52 18,-9.43c26.6,-13.76 24.47,-28.69 39.51,-34.76c12.64,-5.1 37.37,-14.46 50.66,-17.95c23.77,-6.25 7.37,0.24 17.68,11.69c3.12,3.47 6.59,7.81 13.32,9.93c25,7.9 62.59,15.08 103.19,5.88a157.82,157.82 0 0 0 18,-5.12c43.46,-15.53 7.17,-52 -5.35,-72.74c-3.74,-6.19 -5.35,-12.73 -3.75,-18.13c4.75,-16.11 54.09,-37.29 85.41,-6.45c2.52,2.48 4.38,5.86 6.71,9.51c24.53,38.46 37.59,75.56 68.4,74.33c21.87,-0.87 33,-12.83 45.76,-22.73c5.42,-4.22 9.57,-9.59 14.79,-14c16,-13.49 7.23,-47.33 15.69,-59.54c7.54,-10.9 11.64,-40.21 22.25,-35.47c2.46,-2.19 6.45,-1.67 13.27,1.44c25.31,11.55 51.46,37.14 60.54,43.32" class="cls-38"/>
   <path id="svg_40" stroke="url(#Unbenannter_Verlauf_36)" stroke-width="0.75px" stroke-miterlimit="10" fill="none" d="m446.67,283.07c1.32,8 -6,7.66 30.56,10.93c19.92,1.77 45.94,7.26 74.76,2.93c54.17,-8.14 46.59,-54.31 78.3,-59.2a208,208 0 0 1 29.06,-2.41c39.74,-0.68 49.15,8 87.25,-10.88c6.71,-3.32 12.73,-6.5 18.35,-9.48c27.24,-14.44 22.63,-31 36.95,-37.89c11.91,-5.77 37.17,-16.26 50.61,-19.62c23.64,-5.92 6.38,4.83 15.57,17.69c2.87,4 6.18,8.54 13,10.58c25.36,7.63 64.14,12.76 105.23,2.76a174.21,174.21 0 0 0 18.19,-5.41c44.11,-16.09 6.46,-52.31 -7.17,-73.51c-4,-6.3 -5.94,-12.88 -4.5,-18.33c4.38,-16.59 56.31,-39.29 86.52,-9c2.51,2.51 4.31,6 6.58,9.75c23.07,38.31 34.48,78.74 65.86,78c22.53,-0.57 33.5,-13 46.1,-23.27c5.39,-4.41 9.64,-9.86 15.1,-14.15c17.18,-13.49 7.83,-48.61 17.31,-60.11c8.59,-10.42 13.3,-40.93 24.88,-34.76c2.7,-1.59 6.86,-0.55 13.73,2.93c25.08,12.68 51.6,38.82 61.31,44.37" class="cls-39"/>
   <path id="svg_41" stroke="url(#Unbenannter_Verlauf_37)" stroke-width="0.75px" stroke-miterlimit="10" fill="none" d="m445.76,280.53c1.42,8.69 -3.69,10 31.71,14.37c20.37,2.54 46.59,8.45 75.77,3.82c55.42,-8.78 43.52,-59 75.39,-63.92a172.86,172.86 0 0 1 29.54,-2.09c40.48,0.47 50.93,13.18 90.59,-5.65c6.94,-3.3 13.08,-6.5 18.7,-9.55c27.86,-15.12 20.78,-33.18 34.37,-41c11.19,-6.44 37,-18.08 50.58,-21.31c23.51,-5.59 5.32,9.41 13.45,23.7c2.59,4.55 5.77,9.26 12.6,11.22c25.77,7.38 65.7,10.45 107.27,-0.35a186.88,186.88 0 0 0 18.38,-5.7c44.76,-16.66 5.76,-52.63 -9,-74.27c-4.37,-6.41 -6.55,-13 -5.26,-18.54c4,-17.06 58.51,-41.29 87.63,-11.54c2.5,2.55 4.25,6.1 6.46,10c21.64,38.14 31.36,81.92 63.31,81.56c23.2,-0.25 34,-13.12 46.44,-23.82c5.36,-4.6 9.71,-10.12 15.41,-14.31c18.33,-13.47 8.44,-49.88 18.93,-60.68c9.64,-9.94 15,-41.65 27.52,-34c2.92,-1 7.26,0.57 14.17,4.4c24.88,13.82 51.75,40.5 62.09,45.43" class="cls-40"/>
   <path id="svg_42" stroke="url(#Unbenannter_Verlauf_38)" stroke-width="0.75px" stroke-miterlimit="10" fill="none" d="m444.84,278c1.54,9.35 -1.36,12.3 32.87,17.8c20.81,3.35 47.24,9.64 76.78,4.72c56.67,-9.43 40.45,-63.61 72.47,-68.63a151.43,151.43 0 0 1 30,-1.79c41.21,1.62 52.69,18.32 93.91,-0.42c7.19,-3.27 13.44,-6.48 19,-9.6c28.49,-15.81 19,-35.41 31.81,-44.13c10.47,-7.1 36.79,-19.89 50.53,-23c23.38,-5.27 4.23,13.94 11.34,29.69c2.3,5.09 5.35,10 12.24,11.87c26.18,7.12 67.26,8.14 109.31,-3.46c6.65,-1.84 12.86,-3.81 18.56,-6c45.43,-17.23 5.06,-52.94 -10.79,-75c-4.68,-6.52 -7.16,-13.18 -6,-18.75c3.61,-17.53 60.71,-43.27 88.73,-14.08c2.49,2.59 4.2,6.22 6.35,10.26c20.25,38 28.24,85.11 60.77,85.19c23.85,0 34.42,-13.27 46.77,-24.37c5.33,-4.79 9.79,-10.38 15.72,-14.48c19.49,-13.45 9.07,-51.14 20.55,-61.25c10.74,-9.4 16.67,-42.4 30.19,-33.33c3.15,-0.42 7.68,1.68 14.63,5.88c24.69,14.93 51.89,42.18 62.86,46.48" class="cls-41"/>
   <path id="svg_43" stroke="url(#Unbenannter_Verlauf_39)" stroke-width="0.75px" stroke-miterlimit="10" fill="none" d="m443.93,275.45c1.64,10 0.93,14.7 34,21.24c21.23,4.2 47.89,10.82 77.79,5.61c57.92,-10.09 37.38,-68.3 69.56,-73.3a135,135 0 0 1 30.52,-1.48c42,2.77 54.47,23.45 97.24,4.8a208.44,208.44 0 0 0 19.4,-9.65c29.11,-16.51 17.14,-37.64 29.25,-47.26c9.76,-7.75 36.59,-21.7 50.48,-24.65c23.24,-4.95 3.1,18.45 9.24,35.69c2,5.62 4.93,10.73 11.87,12.52c26.59,6.85 68.81,5.83 111.35,-6.58c6.68,-2 13,-4 18.75,-6.28c46.08,-17.79 4.36,-53.26 -12.61,-75.81c-5,-6.62 -7.77,-13.33 -6.76,-19c3.22,-18 62.89,-45.25 89.84,-16.63c2.48,2.63 4.14,6.35 6.22,10.51c18.93,37.82 25.13,88.32 58.23,88.82c24.51,0.37 34.88,-13.42 47.11,-24.91c5.3,-5 9.87,-10.65 16,-14.65c20.66,-13.41 9.71,-52.39 22.17,-61.82c11.79,-8.93 18.31,-43.09 32.79,-32.61c3.38,0.17 8.09,2.79 15.08,7.37c24.51,16 52,43.85 63.63,47.54" class="cls-42"/>
   <path id="svg_44" stroke="url(#Unbenannter_Verlauf_40)" stroke-width="0.75px" stroke-miterlimit="10" fill="none" d="m443,272.91c1.76,10.69 3.19,17.16 35.18,24.68c21.62,5.09 48.54,12 78.8,6.5c59.16,-10.75 34.31,-72.91 66.65,-78.06a123.31,123.31 0 0 1 31,-1.17c42.7,3.92 56.24,28.59 100.57,10a172.72,172.72 0 0 0 19.8,-9.7c29.73,-17.21 15.34,-39.86 26.69,-50.38c9.06,-8.4 36.39,-23.52 50.44,-26.34c23.1,-4.63 2,22.94 7.12,41.69c1.69,6.14 4.52,11.47 11.51,13.17c27,6.59 70.38,3.53 113.39,-9.7c6.72,-2.06 13.06,-4.23 18.94,-6.56c46.73,-18.36 3.66,-53.58 -14.43,-76.58c-5.29,-6.73 -8.37,-13.48 -7.51,-19.15c2.81,-18.49 65.06,-47.22 90.95,-19.18c2.46,2.67 4.09,6.47 6.1,10.76c17.6,37.6 22,91.51 55.68,92.43c25.18,0.7 35.34,-13.57 47.45,-25.45c5.27,-5.18 9.94,-10.9 16.35,-14.82c21.82,-13.36 10.34,-53.62 23.79,-62.39c12.87,-8.4 20,-43.81 35.42,-31.89c3.6,0.76 8.5,3.9 15.53,8.85c24.35,17.15 52.18,45.53 64.41,48.59" class="cls-43"/>
   <path id="svg_45" stroke="url(#Unbenannter_Verlauf_41)" stroke-width="0.75px" stroke-miterlimit="10" fill="none" d="m442.1,270.37c1.86,11.36 5.4,19.65 36.33,28.12c22,6 49.18,13.17 79.81,7.38c60.4,-11.4 31.24,-77.55 63.73,-82.76a113.4,113.4 0 0 1 31.49,-0.86c43.45,5.05 58,33.71 103.91,15.26a148.34,148.34 0 0 0 20.09,-9.76c30.34,-17.92 13.55,-42.08 24.13,-53.51c8.37,-9.05 36.19,-25.34 50.39,-28c23,-4.33 0.8,27.4 5,47.69c1.38,6.65 4.11,12.19 11.15,13.82c27.42,6.31 71.94,1.22 115.43,-12.82c6.75,-2.18 13.15,-4.45 19.13,-6.84c47.38,-18.93 3,-53.91 -16.24,-77.35c-5.61,-6.85 -9,-13.64 -8.27,-19.36c2.39,-19 67.22,-49.19 92,-21.72c2.45,2.7 4.06,6.57 6,11c16.32,37.41 18.87,94.71 53.13,96.06c25.84,1 35.79,-13.72 47.79,-26c5.24,-5.37 10,-11.15 16.66,-15c23,-13.29 11,-54.84 25.41,-63c14,-7.87 21.63,-44.53 38,-31.18c3.84,1.35 8.93,5 16,10.34c24.19,18.26 52.32,47.2 65.18,49.64" class="cls-44"/>
   <path id="svg_46" stroke="url(#Unbenannter_Verlauf_42)" stroke-width="0.75px" stroke-miterlimit="10" fill="none" d="m441.18,267.83c2,12 7.57,22.17 37.49,31.56c22.32,7 49.83,14.34 80.82,8.27c61.64,-12.07 28.17,-82.2 60.82,-87.47a105.65,105.65 0 0 1 32,-0.55c44.19,6.18 59.78,38.84 107.23,20.48a131.25,131.25 0 0 0 20.46,-9.82c30.94,-18.62 11.76,-44.29 21.55,-56.63c7.7,-9.69 36,-27.16 50.35,-29.69c22.83,-4 -0.36,31.84 2.9,53.7c1.07,7.16 3.69,12.92 10.79,14.46c27.83,6 73.51,-1.07 117.47,-15.93c6.78,-2.29 13.25,-4.66 19.32,-7.13c48,-19.5 2.27,-54.24 -18.06,-78.12c-5.92,-7 -9.61,-13.79 -9,-19.56c2,-19.44 69.37,-51.16 93.16,-24.27c2.43,2.75 4,6.69 5.87,11.25c15.07,37.22 15.75,97.92 50.58,99.68c26.5,1.34 36.25,-13.87 48.13,-26.55c5.21,-5.57 10.1,-11.4 17,-15.15c24.18,-13.21 11.63,-56 27,-63.53c15,-7.32 21,-43.15 40.69,-30.46a184.21,184.21 0 0 1 16.39,11.79c24.06,19.36 52.46,48.88 65.95,50.69" class="cls-45"/>
   <path id="svg_47" stroke="url(#Unbenannter_Verlauf_43)" stroke-width="0.75px" stroke-miterlimit="10" fill="none" d="m440.27,265.29c2.08,12.69 9.68,24.72 38.64,35c22.6,8 50.47,15.51 81.83,9.16c62.88,-12.74 25.1,-86.85 57.9,-92.19a99.67,99.67 0 0 1 32.47,-0.24c44.95,7.32 61.56,44 110.56,25.71a119.26,119.26 0 0 0 20.8,-9.87c31.54,-19.34 10,-46.51 19,-59.75c7,-10.35 35.8,-29 50.31,-31.37c22.69,-3.72 -1.53,36.26 0.78,59.69c0.76,7.67 3.28,13.66 10.43,15.12c28.25,5.76 75.08,-3.37 119.51,-19c6.81,-2.41 13.35,-4.88 19.51,-7.42c48.69,-20.07 1.57,-54.56 -19.88,-78.89c-6.23,-7.06 -10.22,-13.94 -9.77,-19.76c1.53,-19.92 71.5,-53.11 94.26,-26.82c2.42,2.79 4,6.81 5.75,11.51c13.86,37 12.63,101.12 48,103.29c27.15,1.67 36.7,-14 48.47,-27.09c5.18,-5.76 10.18,-11.65 17.28,-15.32c25.36,-13.12 12.26,-57.24 28.65,-64.1c16.13,-6.75 23.08,-44.4 43.32,-29.75c4,2.87 9.79,7.24 16.89,13.31c23.94,20.47 52.61,50.55 66.73,51.74" class="cls-46"/>
   <path id="svg_48" stroke="url(#Unbenannter_Verlauf_44)" stroke-width="0.75px" stroke-miterlimit="10" fill="none" d="m439.36,262.75c2.19,13.36 11.73,27.28 39.79,38.44c22.85,9.07 51.12,16.68 82.85,10.05c64.12,-13.41 22,-91.5 55,-96.9a94.24,94.24 0 0 1 33,0.07c45.7,8.45 63.33,49.08 113.9,30.93a110.21,110.21 0 0 0 21.1,-9.92c32.13,-20.06 8.24,-48.73 16.43,-62.88c6.36,-11 35.6,-30.82 50.26,-33c22.53,-3.46 -2.69,40.62 -1.36,65.62c0.45,8.17 2.87,14.38 10.07,15.76c28.66,5.49 76.65,-5.65 121.55,-22.16c6.85,-2.52 13.44,-5.09 19.7,-7.71c49.34,-20.63 0.88,-54.89 -21.69,-79.65c-6.54,-7.18 -10.85,-14.1 -10.54,-20c1.1,-20.4 73.64,-55.07 95.38,-29.4c2.39,2.83 4,6.93 5.63,11.76c12.68,36.84 9.5,104.33 45.49,106.92c27.81,2 37.15,-14.17 48.81,-27.65c5.14,-6 10.26,-11.89 17.59,-15.48c26.54,-13 12.89,-58.42 30.27,-64.67c17.21,-6.18 25.17,-45.55 46,-29c4.24,3.36 10.22,8.34 17.34,14.79c23.82,21.57 52.75,52.23 67.5,52.79" class="cls-47"/>
   <path id="svg_49" stroke="url(#Unbenannter_Verlauf_45)" stroke-width="0.75px" stroke-miterlimit="10" fill="none" d="m438.44,260.21c2.3,14 13.72,29.85 40.95,41.87c23,10.17 51.76,17.86 83.85,10.95c65.36,-14.09 19,-96.15 52.08,-101.61a90.12,90.12 0 0 1 33.43,0.37c46.46,9.59 65.1,54.21 117.25,36.21a102.45,102.45 0 0 0 21.49,-10c32.72,-20.79 6.5,-51 13.87,-66c5.71,-11.65 35.4,-32.65 50.22,-34.72c22.41,-3.12 -3.86,45.06 -3.44,71.69c0.13,8.67 2.45,15.11 9.7,16.41c29.07,5.21 78.23,-7.94 123.59,-25.27c6.88,-2.63 13.54,-5.31 19.88,-8c50,-21.2 0.19,-55.22 -23.5,-80.42c-6.85,-7.29 -11.47,-14.24 -11.29,-20.17c0.65,-20.86 75.75,-57 96.49,-31.91c2.37,2.87 4,7 5.51,12c11.52,36.67 6.36,107.54 43,110.54c28.46,2.33 37.59,-14.32 49.14,-28.19c5.11,-6.14 10.33,-12.13 17.91,-15.66c27.72,-12.9 13.51,-59.59 31.89,-65.23s27.21,-46.67 48.54,-28.36c4.52,3.89 10.66,9.45 17.79,16.28c23.72,22.68 52.89,53.9 68.27,53.85" class="cls-48"/>
   <path id="svg_50" stroke="url(#Unbenannter_Verlauf_46)" stroke-width="0.75px" stroke-miterlimit="10" fill="none" d="m437.53,257.67c2.41,14.7 15.64,32.41 42.1,45.31c23.15,11.29 52.39,19 84.86,11.84c66.56,-14.82 15.89,-100.82 49.16,-106.33a86.52,86.52 0 0 1 33.93,0.69c47.24,10.64 66.84,59.27 120.55,41.39a96.52,96.52 0 0 0 21.84,-10c33.3,-21.52 4.76,-53.2 11.31,-69.14c5.06,-12.31 35.2,-34.49 50.17,-36.39c22.28,-2.84 -5,49.44 -5.55,77.69c-0.18,9.16 2,15.84 9.34,17.06c29.49,4.92 79.81,-10.23 125.63,-28.39c6.91,-2.75 13.64,-5.52 20.07,-8.29c50.65,-21.77 -0.46,-55.57 -25.32,-81.19c-7.14,-7.41 -12.09,-14.39 -12,-20.37c0.2,-21.33 77.86,-59 97.59,-34.46c2.35,2.91 3.94,7.15 5.39,12.25c10.4,36.51 3.24,110.76 40.41,114.16c29.11,2.67 38,-14.48 49.47,-28.73c5.07,-6.35 10.42,-12.37 18.23,-15.83c28.9,-12.78 14.12,-60.77 33.51,-65.8s29.27,-47.65 51.22,-27.6c4.83,4.4 11.1,10.56 18.25,17.75c23.62,23.8 53,55.59 69,54.91" class="cls-49"/>
   <path id="svg_51" stroke="url(#Unbenannter_Verlauf_47)" stroke-width="0.75px" stroke-miterlimit="10" fill="none" d="m436.61,255.16c2.52,15.36 17.51,35 43.26,48.75c23.22,12.43 53,20.18 85.87,12.72c67.81,-15.47 12.82,-105.47 46.26,-111.06a83.51,83.51 0 0 1 34.41,1c48,11.8 68.63,64.41 123.88,46.61a91.48,91.48 0 0 0 22.2,-10.08c33.87,-22.26 3,-55.43 8.73,-72.26c4.42,-13 35,-36.33 50.13,-38.08c22.15,-2.55 -6.17,53.83 -7.66,83.7c-0.48,9.65 1.62,16.55 9,17.7c29.91,4.61 81.42,-12.46 127.67,-31.51c6.95,-2.84 13.73,-5.72 20.26,-8.57c51.3,-22.33 -1.18,-55.89 -27.14,-82c-7.46,-7.51 -12.71,-14.53 -12.79,-20.57c-0.27,-21.8 80,-60.91 98.7,-37c2.32,3 3.93,7.27 5.27,12.5c9.29,36.36 0.1,114 37.86,117.78c29.76,3 38.48,-14.62 49.81,-29.27c5,-6.54 10.49,-12.61 18.54,-16c30.09,-12.66 14.72,-61.94 35.13,-66.37s31.29,-48.63 53.86,-26.89c5.12,4.94 11.54,11.67 18.7,19.24c23.53,24.91 53.17,57.26 69.82,56" class="cls-50"/>
   <path id="svg_52" stroke="url(#Unbenannter_Verlauf_48)" stroke-width="0.75px" stroke-miterlimit="10" fill="none" d="m435.7,252.59c5.06,30.87 62.23,81.93 131.29,65.8s9.75,-110.1 43.34,-115.74c76.08,-12.79 93.37,74.58 162.11,53.14s23,-64.94 28.71,-85.52c3.77,-13.65 34.81,-38.17 50.09,-39.75c29.1,-3 -31.56,103.68 -1.16,108c34.84,5 99.21,-21 150.16,-43.49c66.89,-29.48 -41.59,-76.21 -42.5,-103.5c-0.74,-22.26 82,-62.85 99.81,-39.56s-3.55,129.37 40.45,134.19s42.18,-35.25 69,-46c31.27,-12.52 15.32,-63.1 36.75,-66.94s33.29,-49.58 56.5,-26.17s67.19,80.25 89.74,77.73" class="cls-51"/>
  </g>
  <path id="svg_53" stroke="url(#Unbenannter_Verlauf_49)" stroke-width="0.75px" stroke-miterlimit="10" fill="none" d="m451.67,424.9s-58.33,-37.35 33.65,-71.14s304.82,26.18 374.73,-11.76s52.37,-165.15 121.5,-191s128.08,150.27 175.79,129.14s132.44,-76.6 178,-91.21s16.56,-110.93 102.18,-107.07c108.2,5 94.56,-218.42 94.56,-218.42" class="cls-52"/>
  <path id="svg_54" stroke="url(#Unbenannter_Verlauf_50)" stroke-width="0.75px" stroke-miterlimit="10" fill="none" d="m450.15,418.62s-53.85,-32.71 38.54,-61.34c12.82,-4 27.94,-6.11 44.49,-8c46.1,-5.28 92.73,-11 145.43,-7.41c78.16,5.32 151.37,20.5 191,0c53.38,-27.55 53.11,-102.38 76.77,-151.12c9.47,-19.53 22.62,-35.75 42.62,-43.63a42,42 0 0 1 31.91,0.18c44.3,17.25 77,102.88 112.26,127.07c9.38,6.44 18.52,9.05 27.4,5.46c49,-19.82 135.47,-73.34 182.46,-89c45.66,-15 17.48,-109.48 98.24,-108.72c101.6,1 84.17,-218.38 84.17,-218.38" class="cls-53"/>
  <path id="svg_55" stroke="url(#Unbenannter_Verlauf_51)" stroke-width="0.75px" stroke-miterlimit="10" fill="none" d="m448.62,412.33s-49.14,-27.82 43.45,-51.54c13.43,-3.44 29.27,-4.89 46.47,-7c49.79,-6.22 89.85,-21.91 143,-19c81,4.43 154.13,28.55 197.72,7c56.79,-28.05 51,-105 74.12,-153.79c9.28,-19.55 23,-36.32 43.2,-44.71a42.83,42.83 0 0 1 32.33,-0.73c44.71,16.5 70.89,107.64 107,131.52c9.48,6.27 18.81,8.9 28,5.53c50.31,-18.49 138.45,-70.25 187,-86.72c45.74,-15.53 18.44,-107.91 94.31,-110.34c95,-3.07 73.78,-218.39 73.78,-218.39" class="cls-54"/>
  <path id="svg_56" stroke="url(#Unbenannter_Verlauf_52)" stroke-width="0.75px" stroke-miterlimit="10" fill="none" d="m447.1,406.05s-44.24,-22.69 48.35,-41.74c14.07,-2.89 30.59,-3.69 48.44,-6.08c53.49,-7.19 87,-32.86 140.62,-30.62c83.84,3.51 156.88,36.58 204.38,14c60.19,-28.56 48.83,-107.65 71.48,-156.45c9.09,-19.59 23.34,-36.85 43.75,-45.79c11.33,-5 22.41,-5.23 32.75,-1.64c45.15,15.67 64.77,112.4 101.78,136c9.56,6.09 19.09,8.76 28.58,5.6c51.6,-17.17 141.46,-67.06 191.46,-84.48c45.86,-16 19.42,-106.33 90.38,-112c88.53,-7 63.39,-218.29 63.39,-218.29" class="cls-55"/>
  <path id="svg_57" stroke="url(#Unbenannter_Verlauf_53)" stroke-width="0.75px" stroke-miterlimit="10" fill="none" d="m445.58,399.76s-39.18,-17.31 53.24,-31.93c14.74,-2.33 31.93,-2.49 50.43,-5.13c57.17,-8.17 84.1,-43.82 138.21,-42.22c86.69,2.57 159.62,44.6 211,21c63.58,-29.14 46.69,-110.33 68.85,-159.11c8.89,-19.62 23.67,-37.43 44.3,-46.88c11.52,-5.27 22.8,-5.91 33.17,-2.54c45.6,14.84 58.63,117.16 96.53,140.4c9.64,5.92 19.38,8.61 29.18,5.67c52.88,-15.86 144.46,-63.86 196,-82.24c46,-16.4 20.46,-104.73 86.45,-113.58c82.09,-11 53,-218.25 53,-218.25" class="cls-56"/>
  <path id="svg_58" stroke="url(#Unbenannter_Verlauf_54)" stroke-width="0.75px" stroke-miterlimit="10" fill="none" d="m444.06,393.48s-34,-11.7 58.14,-22.14c15.43,-1.74 33.25,-1.29 52.41,-4.17c60.86,-9.15 81.23,-54.8 135.8,-53.82c89.59,1.65 162.35,52.65 217.71,28c67,-29.72 44.54,-113 66.2,-161.77c8.7,-19.65 24,-38 44.86,-48c11.72,-5.6 23.19,-6.61 33.59,-3.45c46,14 52.49,121.93 91.28,144.84c9.73,5.75 19.67,8.46 29.78,5.74c54.15,-14.56 147.47,-60.66 200.45,-80c46.1,-16.83 21.55,-103.14 82.51,-115.22c75.73,-15 42.61,-218.2 42.61,-218.2" class="cls-57"/>
  <path id="svg_59" stroke="url(#Unbenannter_Verlauf_55)" stroke-width="0.75px" stroke-miterlimit="10" fill="none" d="m442.53,387.16s-28.72,-5.85 63.05,-12.33c16.13,-1.14 34.58,-0.1 54.38,-3.21c64.56,-10.16 78.37,-65.8 133.4,-65.43c92.41,0.63 165.08,60.59 224.37,35c70.32,-30.31 42.4,-115.62 63.56,-164.44c8.51,-19.68 24.34,-38.57 45.41,-49c11.92,-5.92 23.59,-7.31 34,-4.36c46.49,13.15 46.34,126.71 86,149.28c9.81,5.58 20,8.31 30.38,5.81c55.41,-13.27 150.17,-58.29 205,-77.75c46.48,-16.52 22.71,-101.55 78.57,-116.84c69.47,-19 32.23,-218.16 32.23,-218.16" class="cls-58"/>
  <path id="svg_60" stroke="url(#Unbenannter_Verlauf_56)" stroke-width="0.75px" stroke-miterlimit="10" fill="none" d="m441,380.9s-23.39,0.21 67.94,-2.52c16.85,-0.51 35.91,1.09 56.37,-2.26c68.24,-11.17 75.5,-76.81 131,-77c95.28,-0.38 167.81,68.56 231,42c73.69,-31 40.29,-118.27 61,-167.1c8.31,-19.71 24.66,-39.15 46,-50.12c12.11,-6.24 24,-8 34.43,-5.26c47,12.3 40.19,131.5 80.79,153.72c9.89,5.41 20.24,8.15 31,5.88c56.67,-12 153.15,-55.14 209.44,-75.51c46.64,-16.87 26.18,-94.76 74.64,-118.46c60.48,-29.61 21.78,-218.11 21.78,-218.11" class="cls-59"/>
  <path id="svg_61" stroke="url(#Unbenannter_Verlauf_57)" stroke-width="0.75px" stroke-miterlimit="10" fill="none" d="m439.49,374.62s-18,6.45 72.84,7.27c17.57,0.16 37.23,2.28 58.35,-1.3c71.93,-12.19 72.63,-87.83 128.57,-88.63c98.14,-1.4 170.53,76.53 237.71,49c77,-31.53 38.11,-120.92 58.28,-169.76c8.12,-19.74 25,-39.73 46.51,-51.2c12.31,-6.56 24.38,-8.71 34.86,-6.18c47.41,11.45 34,136.3 75.55,158.17c10,5.25 20.52,8 31.57,5.95c57.93,-10.73 156.51,-51 213.94,-73.27c46.48,-18 25.27,-98.53 70.7,-120.08c57.32,-27.19 11.45,-218.08 11.45,-218.08" class="cls-60"/>
  <path id="svg_62" stroke="url(#Unbenannter_Verlauf_58)" stroke-width="0.75px" stroke-miterlimit="10" fill="none" d="m438,368.33s-12.67,12.83 77.7,17.08c18.3,0.85 38.56,3.46 60.33,-0.34c75.62,-13.22 69.77,-98.91 126.17,-100.24c101,-2.44 173.24,84.49 244.37,56c80.4,-32.16 36,-123.57 55.64,-172.43c7.93,-19.76 25.33,-40.3 47.07,-52.28c12.5,-6.88 24.77,-9.4 35.28,-7.08c47.86,10.59 27.85,141.1 70.3,162.61c10,5.09 20.81,7.84 32.17,6c59.18,-9.48 159.53,-47.74 218.43,-71c46.62,-18.43 26.67,-97.17 66.77,-121.71c51.41,-31.46 1.06,-218 1.06,-218" class="cls-61"/>
  <path id="svg_63" stroke="url(#Unbenannter_Verlauf_59)" stroke-width="0.75px" stroke-miterlimit="10" fill="none" d="m436.44,362.05s-7.25,19.43 82.64,26.88c19,1.57 39.89,4.64 62.31,0.61c79.3,-14.25 66.9,-109.92 123.76,-111.84c103.86,-3.51 176,92.44 251,63c83.75,-32.79 33.83,-126.22 53,-175.09c7.73,-19.8 25.65,-40.89 47.62,-53.36c12.68,-7.21 25.16,-10.11 35.7,-8c48.32,9.72 21.68,145.91 65,167.05c10.11,4.93 21.09,7.68 32.77,6.09c60.44,-8.23 162.55,-44.49 222.93,-68.78c46.75,-18.81 28.11,-96 62.83,-123.33c45.59,-35.92 -9.32,-218 -9.32,-218" class="cls-62"/>
  <path id="svg_64" stroke="url(#Unbenannter_Verlauf_60)" stroke-width="0.75px" stroke-miterlimit="10" fill="none" d="m434.92,355.76s-1.92,26.14 87.54,36.68c19.74,2.33 41.21,5.83 64.29,1.58c83,-15.3 64,-121 121.35,-123.45c106.72,-4.57 178.66,100.43 257.7,70c87.09,-33.44 31.68,-128.87 50.36,-177.75c7.54,-19.83 26,-41.47 48.17,-54.45c12.88,-7.53 25.56,-10.8 36.12,-8.89c48.79,8.84 15.51,150.74 59.81,171.49c10.19,4.77 21.38,7.52 33.37,6.16c61.69,-7 165.57,-41.23 227.42,-66.54c46.9,-19.18 29.53,-95 58.9,-125c39.78,-40.62 -19.71,-217.95 -19.71,-217.95" class="cls-63"/>
  <path id="svg_65" stroke="url(#Unbenannter_Verlauf_61)" stroke-width="0.75px" stroke-miterlimit="10" fill="none" d="m433.4,349.48s3.45,33 92.43,46.48c20.47,3.11 42.54,7 66.27,2.53c86.66,-16.35 61.17,-132.06 118.95,-135c109.58,-5.69 181.74,109.29 264.36,77c90,-35.16 29.54,-131.53 47.72,-180.42c7.35,-19.86 26.31,-42.06 48.73,-55.53c13.07,-7.86 26,-11.51 36.54,-9.8c49.26,8 9.32,155.57 54.57,175.93c10.25,4.61 21.65,7.36 34,6.23c62.94,-5.76 168.6,-38 231.92,-64.3c47,-19.55 30.86,-94.14 55,-126.57c33.79,-45.57 -30.18,-217.87 -30.18,-217.87" class="cls-64"/>
  <path id="svg_66" stroke="url(#Unbenannter_Verlauf_62)" stroke-width="0.75px" stroke-miterlimit="10" fill="none" d="m431.88,343.16s8.74,39.88 97.33,56.29c21.17,3.92 43.86,8.18 68.25,3.48c90.34,-17.37 58.29,-143.1 116.54,-146.63c112.43,-6.8 184.43,117.2 271,84.05c93.41,-35.76 27.4,-134.17 45.09,-183.09c7.15,-19.89 26.62,-42.64 49.27,-56.61c13.27,-8.18 26.36,-12.21 37,-10.7c49.72,7.07 3.13,160.41 49.32,180.37a73.54,73.54 0 0 0 34.55,6.3c64.21,-4.54 171.64,-34.7 236.43,-62c47.17,-19.92 32,-93.48 51,-128.2c27.74,-50.7 -40.49,-217.87 -40.49,-217.87" class="cls-65"/>
  <path id="svg_67" stroke="url(#Unbenannter_Verlauf_63)" stroke-width="0.75px" stroke-miterlimit="10" fill="none" d="m430.35,336.91s14,46.88 102.23,66.08c21.87,4.76 45.19,9.37 70.24,4.45c94.01,-18.44 55.42,-154.22 114.18,-158.28c115.29,-7.94 186.78,124.18 277.69,91c97.13,-35.41 25.25,-136.82 42.44,-185.75c7,-19.92 27,-43.23 49.83,-57.69c13.46,-8.51 26.75,-12.93 37.39,-11.62c50.18,6.18 -3.06,165.27 44.07,184.82a80.7,80.7 0 0 0 35.15,6.37c65.46,-3.32 174.67,-31.42 240.92,-59.81c47.32,-20.28 33,-92.87 47.09,-129.82c21.32,-55.94 -50.87,-217.82 -50.87,-217.82" class="cls-66"/>
  <path id="svg_68" stroke="url(#Unbenannter_Verlauf_64)" stroke-width="0.75px" stroke-miterlimit="10" fill="none" d="m428.83,330.62s19.2,54 107.13,75.89c22.55,5.63 46.51,10.54 72.21,5.4c97.7,-19.52 52.56,-165.31 111.73,-169.91c118.1,-9.09 189.48,132.12 284.35,98c100.48,-36.07 23.11,-139.47 39.8,-188.41c6.78,-20 27.28,-43.82 50.39,-58.78c13.64,-8.83 27.15,-13.63 37.8,-12.52c50.66,5.28 -9.25,170.13 38.83,189.26a88.94,88.94 0 0 0 35.75,6.44c66.71,-2.11 177.71,-28.13 245.42,-57.57c47.46,-20.63 33.8,-92.25 43.16,-131.45c14.59,-61.16 -61.27,-217.77 -61.27,-217.77" class="cls-67"/>
  <path id="svg_69" stroke="url(#Unbenannter_Verlauf_65)" stroke-width="0.75px" stroke-miterlimit="10" fill="none" d="m427.31,324.33s24.35,61.1 112,85.7c23.22,6.51 47.83,11.71 74.19,6.36c101.37,-20.6 49.68,-176.39 109.32,-181.48c121,-10.26 192.18,140 291,105c103.82,-36.74 21,-142.12 37.17,-191.07c6.58,-20 27.6,-44.41 50.93,-59.86c13.84,-9.16 27.55,-14.34 38.23,-13.43c51.12,4.37 -15.45,175 33.59,193.7a98.07,98.07 0 0 0 36.34,6.51c68,-0.91 180.75,-24.84 249.91,-55.33c47.62,-21 34.46,-91.54 39.23,-133.07c7.65,-66.25 -71.62,-217.73 -71.62,-217.73" class="cls-68"/>
  <path id="svg_70" stroke="url(#Unbenannter_Verlauf_66)" stroke-width="0.75px" stroke-miterlimit="10" fill="none" d="m425.79,318.05s29.44,68.27 116.92,95.49c23.87,7.43 49.16,12.89 76.18,7.32c105,-21.67 46.8,-187.52 106.91,-193.08c123.83,-11.45 194.88,147.93 297.68,112c107.16,-37.41 18.82,-144.77 34.52,-193.74c6.39,-20 27.92,-45 51.49,-60.94c14,-9.49 27.94,-15.05 38.65,-14.33c51.59,3.45 -21.65,179.88 28.34,198.14a109.26,109.26 0 0 0 36.94,6.58c69.23,0.29 183.8,-21.54 254.41,-53.08c47.77,-21.34 35,-90.73 35.29,-134.7c0.45,-71.26 -82,-217.69 -82,-217.69" class="cls-69"/>
  <path id="svg_71" stroke="url(#Unbenannter_Verlauf_67)" stroke-width="0.75px" stroke-miterlimit="10" fill="none" d="m424.26,311.76s34.49,75.5 121.83,105.3c24.51,8.36 50.48,14.06 78.15,8.27c108.76,-22.74 43.94,-198.63 104.51,-204.68c126.68,-12.65 197.58,155.84 304.34,119c110.5,-38.08 16.68,-147.42 31.88,-196.4c6.2,-20 28.25,-45.58 52,-62c14.22,-9.82 28.34,-15.76 39.08,-15.24c52,2.53 -27.85,184.77 23.09,202.58a121.87,121.87 0 0 0 37.54,6.65c70.49,1.48 186.85,-18.23 258.91,-50.84c47.91,-21.68 35.51,-89.78 31.35,-136.32c-6.81,-76.06 -92.43,-217.65 -92.43,-217.65" class="cls-70"/>
  <path id="svg_72" stroke="url(#Unbenannter_Verlauf_68)" stroke-width="0.75px" stroke-miterlimit="10" fill="none" d="m422.74,305.48s39.47,82.74 126.73,115.1c25.12,9.32 51.8,15.23 80.13,9.23c112.4,-23.81 41.06,-209.75 102.1,-216.29c129.52,-13.87 200.3,163.74 311,126c113.85,-38.75 14.54,-150.06 29.25,-199.06c6,-20.08 28.56,-46.18 52.59,-63.11c14.4,-10.14 28.74,-16.47 39.49,-16.14c52.52,1.6 -34,189.67 17.85,207a137,137 0 0 0 38.12,6.79c71.75,2.67 189.9,-14.92 263.4,-48.6c48.07,-22 36,-88.73 27.42,-137.94c-14.08,-80.7 -102.82,-217.61 -102.82,-217.61" class="cls-71"/>
  <path id="svg_73" stroke="url(#Unbenannter_Verlauf_69)" stroke-width="0.75px" stroke-miterlimit="10" fill="none" d="m421.22,299.16s44.39,90 131.62,124.9c25.73,10.32 53.16,16.39 82.16,10.22c116,-25.12 38.13,-220.87 99.65,-227.89c132.35,-15.11 202.91,171.43 317.67,133c117.11,-39.65 12.39,-152.71 26.6,-201.72c5.81,-20.11 28.85,-46.81 53.15,-64.19c14.57,-10.48 29.13,-17.19 39.93,-17.06c53,0.67 -40.25,194.59 12.61,211.47a154.9,154.9 0 0 0 38.73,6.79c73,3.85 193,-11.6 267.9,-46.35c48.23,-22.37 36.52,-87.6 23.48,-139.57c-21.4,-85.21 -113.23,-217.56 -113.23,-217.56" class="cls-72"/>
  <path id="svg_74" stroke="url(#Unbenannter_Verlauf_70)" stroke-width="0.75px" stroke-miterlimit="10" fill="none" d="m419.7,292.91s49.25,97.3 136.52,134.7c26.32,11.28 54.44,17.54 84.09,11.15c119.7,-26.15 35.3,-232 97.29,-239.5c135.19,-16.35 205.62,179.38 324.33,140c120.47,-40.28 10.25,-155.36 24,-204.39c5.62,-20.13 29.18,-47.39 53.7,-65.26c14.77,-10.83 29.53,-17.91 40.34,-18c53.44,-0.27 -46.46,199.51 7.36,215.91a177.35,177.35 0 0 0 39.33,6.86c74.27,5 196,-8.27 272.39,-44.11c48.39,-22.71 37,-86.39 19.55,-141.19c-28.67,-89.55 -123.6,-217.44 -123.6,-217.44" class="cls-73"/>
  <path id="svg_75" stroke="url(#Unbenannter_Verlauf_71)" stroke-width="0.75px" stroke-miterlimit="10" fill="none" d="m418.17,286.62s54.06,104.6 141.42,144.54c26.89,12.28 55.77,18.72 86.08,12.1c123.38,-27.19 32.42,-243.13 94.88,-251.1c138,-17.61 208.34,187.33 331,147.06c123.83,-40.92 8.11,-158 21.33,-207.06c5.42,-20.17 29.5,-48 54.25,-66.35c15,-11.15 29.92,-18.62 40.76,-18.87c53.9,-1.22 -52.67,204.44 2.11,220.35a208.75,208.75 0 0 0 39.93,6.93c75.55,6.08 199.15,-4.79 276.89,-41.87c48.59,-22.94 37.61,-85.13 15.61,-142.81c-35.83,-94 -134,-217.48 -134,-217.48" class="cls-74"/>
  <path id="svg_76" stroke="url(#Unbenannter_Verlauf_72)" stroke-width="0.75px" stroke-miterlimit="10" fill="none" d="m416.65,280.34s58.82,111.89 146.35,154.3c27.44,13.3 57.09,19.91 88.06,13.06c127.06,-28.22 29.52,-254.35 92.47,-262.7c140.81,-19.08 211,195.28 337.66,154.06c127.19,-41.54 6,-160.67 18.68,-209.72c5.23,-20.2 29.83,-48.56 54.8,-67.43c15.12,-11.48 30.33,-19.36 41.15,-19.75c54.36,-2.25 -58.89,209.49 -3.13,224.79a242.16,242.16 0 0 0 40.53,7c76.82,7.32 202.18,-1.52 281.39,-39.63c48.73,-23.32 38.18,-83.83 11.67,-144.43c-43,-98.26 -144.37,-217.44 -144.37,-217.44" class="cls-75"/>
  <path id="svg_77" stroke-width="0.75px" stroke-miterlimit="10" stroke="#fff" fill="none" d="m415.13,274.05s110.51,207.39 241.25,178.11s26.62,-265.39 90.07,-274.29c143.66,-20.18 213.77,203.23 344.32,161.06s3.83,-163.32 16,-212.38c8.11,-32.55 68.19,-87.56 97,-89.2c54.81,-3.14 -65.07,214.33 -8.38,229.23c65,17.06 229.75,16.86 327,-30.31c127.69,-61.93 -147,-363.46 -147,-363.46" class="cls-2"/>
  <rect id="svg_78" fill="none" height="385" width="1920" y="-51.84" x="1" class="cls-76"/>
  <path id="svg_79" stroke-width="0.75px" stroke-miterlimit="10" stroke="#fff" fill="none" d="m-38,327.41s-57.74,-153.85 55.75,-160.52s332.3,180.21 423.11,168.27s119,-85.17 204.46,-90.44s241.33,97.16 301.55,91.67s16.78,-109.93 72.16,-112s61.69,76.18 154.14,89.7c116.83,17.08 124.5,28.83 152.41,35.51c58.43,14 53.83,-174 133.88,-69.59s170.24,76 260,69.14s85.11,-168.22 143.54,-162.29s81.56,41.42 73,59.61" class="cls-2"/>
  <path id="svg_80" stroke="url(#Unbenannter_Verlauf_73)" stroke-width="0.75px" stroke-miterlimit="10" fill="none" d="m-37.33,323.71c-0.85,1.79 -19.38,-47.85 -4.16,-91.12c10.49,-29.68 27.49,-60.7 74.23,-63.13c111.81,-6.25 323.26,174.79 411.79,164.62c87.92,-10.08 115.68,-79.81 198.47,-84.08c83.09,-4.09 233.89,94.52 293.68,89.4c38,-3.26 35.35,-37.16 40.91,-68.26c4.58,-25.55 12.87,-48.68 38.28,-48.59c30.39,0.11 38.79,26.27 62.16,48.24c21.26,20 47.83,39.35 94.83,44.66c45,5.09 64,5.14 83.74,8.63c37,6.55 49.53,13.3 69.86,17.45c12.61,2.59 22.54,-2.08 30.19,-10.16c16.86,-17.85 20.88,-50.68 40.27,-67.93c16.64,-14.81 35.88,-18.36 66.48,18.56c58.79,70.94 118.87,74.74 182.08,70.22c24.9,-1.79 50.12,-5.62 75.3,-7.8c40.13,-3.5 62,-37 78.33,-70.86c20,-41.63 32.89,-85.45 64.43,-81.39c56.65,7.28 79.69,41.82 72.46,59.34" class="cls-77"/>
  <path id="svg_81" stroke="url(#Unbenannter_Verlauf_74)" stroke-width="0.75px" stroke-miterlimit="10" fill="none" d="m-36.66,320c-1.69,3.59 -17.68,-40.84 4.66,-81.44c16,-29 31.9,-64.17 79.74,-66.53c110.15,-5.41 314.26,169.37 400.47,160.97c85,-8.32 112.33,-74.68 192.53,-77.8c80.72,-3.14 226.45,92 285.82,87.12c43.22,-3.52 35.83,-39.13 43,-72.2c5.76,-26.62 17.77,-51.53 43.22,-49.44c31.48,2.59 32.8,32.32 57.7,53.91c23.08,20 51.77,37.89 102.14,42.2c50.13,4.29 60.9,-0.78 80.84,1.61c36,4.32 51.66,11.12 74,15c13.74,2.44 24.58,-1.86 32.13,-9c16.6,-15.56 14,-41.18 36.3,-56.58c19.46,-13.44 39.83,-19.32 71.58,16.07c60.1,67 117.74,68 180.23,63.78c24.57,-1.68 49.59,-5.67 74.53,-8.09c39.86,-3.92 62.41,-36.43 78.47,-67.87c19.85,-38.87 32.54,-79.21 63.49,-74.36c54.84,8.61 77.82,42.23 71.94,59.07" class="cls-78"/>
  <path id="svg_82" stroke="url(#Unbenannter_Verlauf_75)" stroke-width="0.75px" stroke-miterlimit="10" fill="none" d="m-36,316.29c-2.54,5.39 -15.51,-34 13.44,-71.77c21.78,-28.36 36.29,-67.73 85.27,-69.91c108.51,-4.83 305.17,163.93 389.17,157.22c82.08,-6.55 109,-69.42 186.57,-71.47c78.36,-2.07 219,89.43 277.95,84.84c48.47,-3.77 36.3,-41.09 45.07,-76.14c6.93,-27.7 22.57,-52.37 48.17,-50.29c32.75,2.67 26.83,38.36 53.24,59.59c24.91,20 55.72,36.36 109.45,39.72c55.27,3.46 58.26,-10.35 77.93,-5.4c34,8.56 53.8,9 78,12.61c14.88,2.29 26.61,-1.65 34.08,-7.73c16.33,-13.3 7.21,-31.67 32.32,-45.23c22.33,-12.05 43.73,-20.31 76.67,13.56c61.33,63 116.62,61.32 178.39,57.35c24.25,-1.58 49,-5.72 73.77,-8.38c39.59,-4.33 62.76,-35.89 78.59,-64.89c19.71,-36.08 32.17,-73 62.56,-67.31c53,9.9 76,42.63 71.41,58.8" class="cls-79"/>
  <path id="svg_83" stroke="url(#Unbenannter_Verlauf_76)" stroke-width="0.75px" stroke-miterlimit="10" fill="none" d="m-35.31,312.59c-3.39,7.17 -12.94,-27 22.24,-62.11c27.83,-27.78 40.65,-71.32 90.77,-73.32c106.84,-4.27 296.09,158.49 377.86,153.53c79.14,-4.8 105.66,-64.17 180.59,-65.15c76,-1 211.59,86.94 270.1,82.57c53.72,-4 36.74,-43.06 47.14,-80.08c8.09,-28.78 27.43,-54.16 53.12,-51.14c34,4 20.88,44.37 48.78,65.26c26.77,20 59.68,34.8 116.76,37.25c60.41,2.59 55,-17.42 75,-12.42c32.89,8.21 56,6.77 82.15,10.19c16,2.14 28.66,-1.45 36,-6.51c16.09,-11.06 0.44,-22.12 28.34,-33.88c25.23,-10.63 47.59,-21.3 81.77,11.05c62.46,59.13 115.49,54.61 176.54,50.91c23.92,-1.46 48.51,-5.76 73,-8.66c39.32,-4.75 63.12,-35.33 78.73,-61.9c19.55,-33.28 31.79,-66.77 61.62,-60.27c51.19,11.15 74.08,43 70.88,58.52" class="cls-80"/>
  <path id="svg_84" stroke="url(#Unbenannter_Verlauf_77)" stroke-width="0.75px" stroke-miterlimit="10" fill="none" d="m-34.64,308.88c-4.23,9 -10.1,-19.83 31,-52.44c34.1,-27 45,-74.87 96.28,-76.69c105.18,-3.73 287,153 366.55,149.84c76.19,-3.07 102.34,-58.91 174.63,-58.83c73.65,0.08 204.16,84.47 262.24,80.29c59,-4.25 37.16,-45 49.22,-84c9.22,-29.86 32.29,-55.92 58.06,-52c35.16,5.35 14.94,50.39 44.32,70.93c28.63,20 63.61,34.61 124.07,34.78c65.58,0.2 51.59,-24.41 72.12,-19.43c31.81,7.72 58.08,4.6 86.24,7.77c17.16,2 30.72,-1.26 38,-5.3c15.88,-8.83 -6.29,-12.52 24.36,-22.52c28.16,-9.18 51.4,-22.3 86.86,8.54c63.51,55.23 114.37,47.9 174.71,44.48c23.58,-1.35 48,-5.81 72.23,-8.95c39,-5.16 63.47,-34.75 78.86,-58.91c19.4,-30.46 31.39,-60.58 60.68,-53.24c49.34,12.37 72.22,43.45 70.36,58.26" class="cls-81"/>
  <path id="svg_85" stroke="url(#Unbenannter_Verlauf_78)" stroke-width="0.75px" stroke-miterlimit="10" fill="none" d="m-34,305.16c-5,10.78 -7.1,-12.45 39.88,-42.76c40.48,-26.12 49.4,-78.45 101.79,-80.07c103.51,-3.17 277.88,147.57 355.23,146.14c73.22,-1.37 99,-53.65 168.67,-52.51c71.3,1.16 196.73,82 254.37,78c64.23,-4.46 37.58,-47 51.3,-88c10.36,-30.94 37.17,-57.64 63,-52.84c36.37,6.75 9,56.39 39.85,76.61c30.51,20 67.59,31.61 131.38,32.31c70.71,0.77 48,-31.33 69.21,-26.45c30.8,7.09 60.23,2.43 90.34,5.35c18.29,1.84 32.79,-1.07 39.93,-4.08c15.71,-6.63 -13,-2.89 20.38,-11.17c31.1,-7.7 55.17,-23.29 92,6c64.45,51.37 113.23,41.19 172.86,38.05c23.26,-1.25 47.42,-5.86 71.47,-9.24c38.77,-5.58 63.81,-34.15 79,-55.93c19.24,-27.61 31,-54.39 59.74,-46.19c47.48,13.54 70.35,43.85 69.83,58" class="cls-82"/>
  <path id="svg_86" stroke="url(#Unbenannter_Verlauf_79)" stroke-width="0.75px" stroke-miterlimit="10" fill="none" d="m-33.29,301.47c-5.93,12.56 -4.12,-5 48.64,-33.11c46.92,-25.05 53.78,-82 107.3,-83.46c101.85,-2.74 268.91,147.48 343.93,142.44c70.07,-4.7 95.76,-49.82 162.7,-46.19c68.88,3.74 189.3,79.59 246.51,75.75c69.48,-4.68 38,-49 53.37,-91.91c11.48,-32 42,-59.33 68,-53.69c37.58,8.19 3.09,62.37 35.39,82.29s71.55,30 138.69,29.83c75.85,-0.17 45.11,-26 66.31,-33.46c30.5,0.77 62.36,0.25 94.43,2.93c19.43,1.69 34.89,-0.88 41.87,-2.86c15.6,-4.43 -19.73,6.76 16.41,0.18c34,-6.2 58.89,-24.26 97.06,3.53c65.29,47.54 112.1,34.47 171,31.61c22.93,-1.14 46.89,-5.92 70.7,-9.53c38.51,-6 64.15,-33.52 79.13,-52.94c19.08,-24.73 30.56,-48.24 58.81,-39.15c45.61,14.67 68.47,44.25 69.3,57.71" class="cls-83"/>
  <path id="svg_87" stroke="url(#Unbenannter_Verlauf_80)" stroke-width="0.75px" stroke-miterlimit="10" fill="none" d="m-32.62,297.76c-6.77,14.36 -1.09,2.71 57.44,-23.44c53.38,-23.85 58.18,-85.62 112.82,-86.85c100.18,-2.24 259.65,142.69 332.61,138.75c67.16,-3.59 92.38,-43.1 156.73,-39.87c66.61,3.35 181.89,77.17 238.65,73.47c74.74,-4.88 38.38,-51 55.46,-95.85c12.59,-33.11 46.9,-61 72.91,-54.54c38.8,9.65 -2.81,68.35 30.93,88c34.29,19.93 75.51,28.35 146,27.37c81,-1.13 42,-31.25 63.4,-40.48c29.47,-0.38 64.51,-1.92 98.53,0.52a202,202 0 0 0 43.82,-1.66c15.53,-2.2 -26.46,16.44 12.43,11.54c37,-4.66 62.56,-25.22 102.15,1c66.06,43.78 111,27.76 169.18,25.18c22.59,-1 46.35,-5.92 69.93,-9.82c38.25,-6.33 64.46,-32.86 79.26,-49.95c18.89,-21.83 30.13,-42.1 57.87,-32.11c43.74,15.75 66.6,44.65 68.77,57.44" class="cls-84"/>
  <path id="svg_88" stroke="url(#Unbenannter_Verlauf_81)" stroke-width="0.75px" stroke-miterlimit="10" fill="none" d="m-31.95,294.05c-7.61,16.11 1.95,10.47 66.25,-13.77c59.82,-22.55 62.52,-89.22 118.33,-90.28c98.51,-1.74 250.37,137.8 321.3,135.1c64.26,-2.45 89.07,-37.82 150.76,-33.55c64.31,4.45 174.46,74.76 230.79,71.19c80,-5.06 38.76,-52.93 57.53,-99.79c13.7,-34.2 51.76,-62.65 77.86,-55.39c40,11.15 -8.72,74.32 26.48,93.64c36.18,19.87 79.46,26.7 153.3,24.9c86.14,-2.11 38.84,-36.54 60.49,-47.5c28.43,-1.54 66.65,-4.09 102.63,-1.9c21.71,1.38 39.24,-1.53 45.77,-0.44c15.31,2.54 -33.19,26.14 8.45,22.89c39.93,-3.12 66.2,-26.14 107.25,-1.49c66.75,40.09 109.85,21 167.33,18.75c22.27,-0.93 45.81,-6 69.17,-10.11c38,-6.74 64.73,-32.16 79.39,-47c18.68,-18.87 29.7,-36 56.93,-25.07c41.87,16.79 64.73,45.06 68.25,57.17" class="cls-85"/>
  <path id="svg_89" stroke="url(#Unbenannter_Verlauf_82)" stroke-width="0.75px" stroke-miterlimit="10" fill="none" d="m-31.28,290.35c-8.46,17.94 4.91,18.3 75.05,-4.11c66.26,-21.16 66.9,-92.83 123.84,-93.62c96.84,-1.35 241.19,125.52 310,131.35c61.17,5.19 85.76,-32.51 144.8,-27.22c61.93,5.56 167,72.35 222.92,68.91c85.26,-5.23 39.14,-54.91 59.61,-103.72c14.8,-35.3 56.62,-64.29 82.81,-56.24c41.2,12.66 -14.61,80.26 22,99.31c38.08,19.8 83.41,25 160.61,22.42c91.29,-3.09 35.7,-41.82 57.59,-54.51c27.39,-2.7 68.78,-6.27 106.72,-4.32c22.84,1.23 41.31,-0.22 47.72,0.78c15.53,2.4 -39.92,35.84 4.47,34.24c42.86,-1.55 69.79,-27 112.34,-4c67.37,36.47 108.73,14.34 165.49,12.32c21.94,-0.82 45.27,-6 68.4,-10.4c37.71,-7.15 65,-31.42 79.53,-44c18.42,-15.89 29.27,-29.9 56,-18c40,17.77 62.86,45.46 67.72,56.9" class="cls-86"/>
  <path id="svg_90" stroke="url(#Unbenannter_Verlauf_83)" stroke-width="0.75px" stroke-miterlimit="10" fill="none" d="m-30.6,286.64c-9.31,19.74 7.84,26.19 83.84,5.56c72.67,-19.71 71.27,-96.45 129.36,-97c95.17,-0.92 232,119.94 298.67,127.66c58.13,6.73 82.46,-27.21 138.84,-20.9c59.6,6.67 159.61,70 215.06,66.64c90.51,-5.4 39.51,-56.91 61.69,-107.67c15.89,-36.39 61.46,-65.91 87.75,-57.09c42.39,14.21 -20.5,86.21 17.56,105c40,19.73 87.37,23.37 167.92,20c96.43,-4.09 32.57,-47.11 54.68,-61.53c26.35,-3.85 70.93,-8.44 110.83,-6.74c24,1.08 43.45,0.07 49.66,2c15.53,4.82 -46.66,45.57 0.49,45.6c45.79,0 73.34,-27.88 117.44,-6.5c67.92,32.91 107.59,7.62 163.64,5.88c21.61,-0.71 44.74,-6.07 67.64,-10.69c37.44,-7.56 65.13,-30.65 79.65,-41c18.09,-12.89 28.85,-23.84 55.06,-11c38.14,18.69 61,45.86 67.2,56.62" class="cls-87"/>
  <path id="svg_91" stroke="url(#Unbenannter_Verlauf_84)" stroke-width="0.75px" stroke-miterlimit="10" fill="none" d="m-29.93,282.94c-10.15,21.53 10.75,34.11 92.65,15.22c79,-18.22 75.64,-100.07 134.87,-100.4c93.49,-0.51 222.71,114.32 287.36,124c55.05,8.24 79.15,-21.93 132.86,-14.6c57.28,7.84 152.19,67.55 207.19,64.36c95.78,-5.55 39.88,-58.9 63.77,-111.61c17,-37.49 66.31,-67.51 92.7,-57.94c43.56,15.79 -26.4,92.15 13.1,110.66c41.9,19.64 91.32,21.69 175.23,17.48c101.57,-5.09 29.43,-52.39 51.77,-68.54c25.32,-5 73.07,-10.62 114.93,-9.16c25.11,0.93 45.58,0.38 51.6,3.21c15.51,7.29 -53.32,53.77 -3.48,56.95c48.64,3.1 76.87,-28.67 122.53,-9c68.43,29.45 106.47,0.91 161.81,-0.55c21.28,-0.61 44.19,-6.12 66.86,-11c37.17,-8 65.22,-29.85 79.79,-38c17.64,-9.87 28.43,-17.81 54.12,-4c36.3,19.58 59.12,46.27 66.67,56.36" class="cls-88"/>
  <path id="svg_92" stroke="url(#Unbenannter_Verlauf_85)" stroke-width="0.75px" stroke-miterlimit="10" fill="none" d="m-29.26,279.23c-11,23.33 13.63,42.06 101.45,24.89c85.41,-16.69 80,-103.7 140.38,-103.78c91.83,-0.12 213.43,108.66 276.05,120.26c52,9.66 75.85,-16.56 126.9,-8.25c55,8.94 144.77,65.16 199.34,62.08c101,-5.68 40.23,-60.9 65.84,-115.55c18.09,-38.59 71.15,-69.1 97.65,-58.79c44.73,17.39 -32.28,98.08 8.64,116.34c43.82,19.55 95.27,20 182.54,15c106.71,-6.11 26.29,-57.68 48.87,-75.56c24.27,-6.17 75.21,-12.79 119,-11.58c26.24,0.78 47.7,0.7 53.55,4.43c15.43,9.81 -60.15,65 -7.45,68.3c51.62,3.2 80.36,-29.41 127.62,-11.52c68.9,26.08 105.34,-5.8 160,-7c21,-0.49 43.65,-6.16 66.1,-11.26c36.9,-8.39 65.17,-29.05 79.92,-35c17.06,-6.91 28,-11.81 53.18,3.09c34.47,20.41 57.25,46.67 66.15,56.08" class="cls-89"/>
  <path id="svg_93" stroke="url(#Unbenannter_Verlauf_86)" stroke-width="0.75px" stroke-miterlimit="10" fill="none" d="m-28.59,275.52c-11.84,25.12 16.47,50 110.25,34.57c91.75,-15.15 84.39,-107.36 145.9,-107.18c90.15,0.26 204.17,102.9 264.74,116.57c48.91,11 72.54,-11.21 120.93,-1.93c52.63,10.09 137.34,62.77 191.48,59.81c106.29,-5.81 40.58,-62.9 67.92,-119.5c19.17,-39.69 76,-70.67 102.6,-59.64c45.86,19 -38.18,104 4.17,122c45.73,19.45 99.22,18.32 189.85,12.54c111.84,-7.13 23.16,-63 46,-82.57c23.24,-7.33 77.35,-15 123.12,-14c27.38,0.64 49.79,1 55.5,5.64c15.28,12.35 -66.91,74.78 -11.43,79.65c54.53,4.8 83.85,-30.07 132.71,-14c69.36,22.79 104.22,-12.5 158.12,-13.42c20.62,-0.38 43.12,-6.21 65.34,-11.55c36.63,-8.81 64.57,-31.2 80,-32c15.28,-7 27.62,-5.85 52.24,10.13c32.67,21.19 55.38,47.07 65.62,55.81" class="cls-90"/>
  <path id="svg_94" stroke="url(#Unbenannter_Verlauf_87)" stroke-width="0.75px" stroke-miterlimit="10" fill="none" d="m-27.91,271.82c-12.69,26.91 19.29,58 119.05,44.23c98.06,-13.57 88.76,-111 151.41,-110.57c88.45,0.68 194.89,97.1 253.45,112.88c45.84,12.35 69.25,-5.85 115,4.39c50.3,11.26 129.92,60.38 183.61,57.53c111.56,-5.92 40.94,-64.91 70,-123.44c20.25,-40.79 80.79,-72.24 107.55,-60.48c47,20.65 -44.07,109.91 -0.29,127.68c47.59,19.34 103.13,16.62 197.13,10.12c117,-8.16 20,-68.25 43.06,-89.59c22.19,-8.48 79.49,-17.14 127.21,-16.41c28.52,0.48 51.87,1.35 57.45,6.85c15.09,14.88 -73.67,84.52 -15.41,91c57.44,6.4 87.33,-30.68 137.81,-16.53c69.8,19.58 103.09,-19.21 156.27,-19.85c20.3,-0.28 42.58,-6.27 64.57,-11.84c36.36,-9.23 64.79,-30.75 80.19,-29.05c14.93,-4.37 27.24,0.09 51.31,17.17c30.89,21.94 53.51,47.48 65.09,55.54" class="cls-91"/>
  <path id="svg_95" stroke="url(#Unbenannter_Verlauf_88)" stroke-width="0.75px" stroke-miterlimit="10" fill="none" d="m-27.24,268.16c-13.54,28.71 22.09,66 127.85,53.9c104.36,-12 93.13,-114.68 156.92,-114c86.81,1 185.62,91.22 242.11,109.17c42.77,13.6 66,-0.46 109,10.71c48,12.46 122.49,58 175.75,55.26c116.81,-6 41.28,-66.91 72.07,-127.37c21.34,-41.91 85.61,-73.83 112.54,-61.34c48.12,22.31 -50,115.82 -4.75,133.36c49.57,19.22 107.12,14.92 204.47,7.59c122.11,-9.19 16.89,-73.54 40.15,-96.6c21.16,-9.64 81.63,-19.31 131.31,-18.83c29.66,0.33 53.93,1.67 59.4,8.07c14.87,17.41 -80.44,94.26 -19.39,102.35c60.34,8 90.8,-31.23 142.91,-19c70.24,16.44 102,-25.93 154.43,-26.29c20,-0.17 42,-6.32 63.8,-12.13c36.09,-9.65 65,-30.3 80.32,-26.06c14.58,-1.71 26.9,6 50.37,24.21c29.15,22.65 51.64,47.88 64.56,55.27" class="cls-92"/>
  <path id="svg_96" stroke="url(#Unbenannter_Verlauf_89)" stroke-width="0.75px" stroke-miterlimit="10" fill="none" d="m-26.57,264.4c-14.38,30.51 24.87,74.06 136.65,63.6c110.65,-10.38 97.51,-118.35 162.44,-117.34c85.14,1.32 176.37,85.24 230.8,105.48c39.72,14.77 62.64,4.94 103,17c45.66,13.68 115.08,55.63 167.89,53c122.08,-6.1 41.63,-68.93 74.16,-131.32c22.42,-43 90.41,-75.37 117.44,-62.19c49.23,24 -55.84,121.73 -9.21,139c51.49,19.11 111.07,13.23 211.78,5.13c127.25,-10.24 10.1,-82.89 37.24,-103.62c18.15,-13.86 83.78,-21.49 135.41,-21.25c30.79,0.18 56,2 61.34,9.28c14.63,20 -87.17,104 -23.37,113.76c63.24,9.61 94.29,-31.7 148,-21.54c70.71,13.38 100.83,-32.64 152.59,-32.72c19.63,-0.06 41.49,-6.37 63,-12.42c35.82,-10.07 65.2,-29.85 80.46,-23.07c14.23,1 26.59,11.85 49.43,31.25c27.45,23.32 49.77,48.28 64,55" class="cls-93"/>
  <path id="svg_97" stroke="url(#Unbenannter_Verlauf_90)" stroke-width="0.75px" stroke-miterlimit="10" fill="none" d="m-25.9,260.7c-15.22,32.3 27.63,82.07 145.46,73.23c116.91,-8.77 101.86,-120.87 168,-120.77c83.44,0.22 167.11,79.21 219.44,101.84c36.7,15.86 59.34,10.36 97.07,23.35c43.32,14.92 107.65,53.25 160,50.71c127.34,-6.17 42,-70.93 76.23,-135.26c23.5,-44.12 95.21,-76.92 122.39,-63c50.31,25.63 -61.69,127.58 -13.69,144.66c53.4,19 115,11.53 219.09,2.65c132.38,-11.28 7.13,-87.7 34.34,-110.63c17.21,-14.51 85.91,-23.66 139.5,-23.67c31.93,0 58,2.28 63.29,10.5c14.35,22.41 -94,113.76 -27.34,125.06c66.14,11.22 97.78,-32.12 153.1,-24c71.19,10.39 99.7,-39.35 150.74,-39.15c19.31,0 40.94,-6.47 62.27,-12.71c35.53,-10.55 64.2,-27.07 80.58,-20.09c13.21,5.63 26.33,17.69 48.5,38.29c25.79,24 47.9,48.69 63.51,54.73" class="cls-94"/>
  <path id="svg_98" stroke="url(#Unbenannter_Verlauf_91)" stroke-width="0.75px" stroke-miterlimit="10" fill="none" d="m-25.22,257c-16.08,34.1 30.37,90.1 154.25,82.9c123.17,-7.16 106.24,-124.73 173.46,-124.12c81.83,0.71 158,73 208.17,98.09c33.73,16.9 56,15.82 91.11,29.68c41,16.19 100.23,50.87 152.16,48.43c132.61,-6.22 42.31,-73 78.31,-139.2c24.58,-45.23 100,-78.46 127.34,-63.89c51.42,27.38 -67.58,133.52 -18.12,150.38c55.31,18.84 119,9.82 226.39,0.18c137.51,-12.34 4.28,-92.46 31.43,-117.65c16.35,-15.17 88,-25.83 143.6,-26.09c33.07,-0.12 60.07,2.58 65.24,11.72c14.08,24.88 -100.76,123.51 -31.32,136.41c69,12.83 101.29,-32.47 158.19,-26.56c71.72,7.46 98.58,-46.06 148.9,-45.58c19,0.15 40.41,-6.52 61.51,-13c35.25,-11 64.35,-27.14 80.71,-17.1c12.73,7.81 26.1,23.5 47.56,45.33c24.18,24.6 46,49.09 63,54.46" class="cls-95"/>
  <path id="svg_99" stroke="url(#Unbenannter_Verlauf_92)" stroke-width="0.75px" stroke-miterlimit="10" fill="none" d="m-24.55,253.28c-16.92,35.88 33.11,98.13 163.05,92.57c129.42,-5.54 110.61,-128.55 179,-127.5c80.16,1.23 149,66.66 196.86,94.39c30.81,17.85 52.68,21.3 85.14,36c38.61,17.49 92.8,48.49 144.3,46.16c137.87,-6.26 42.65,-75 80.39,-143.15c25.65,-46.34 104.78,-80 132.28,-64.74c52.43,29.15 -73.47,139.42 -22.6,156.06c57.23,18.71 122.9,8.12 233.7,-2.29c142.64,-13.39 1.55,-97.17 28.52,-124.66c15.55,-15.85 90.2,-28 147.7,-28.51c34.21,-0.27 62.11,2.87 67.19,12.93c13.79,27.34 -107.54,133.27 -35.3,147.77c71.92,14.44 104.83,-32.76 163.29,-29.06c72.28,4.57 97.45,-52.78 147.06,-52c18.64,0.26 39.86,-6.57 60.73,-13.3c35,-11.37 64.67,-27.19 80.85,-14.1c12.4,10 25.93,29.29 46.62,52.37c22.62,25.22 44.16,49.49 62.46,54.18" class="cls-96"/>
  <path id="svg_100" stroke="url(#Unbenannter_Verlauf_93)" stroke-width="0.75px" stroke-miterlimit="10" fill="none" d="m-23.88,249.58c-17.76,37.68 35.88,106.16 171.88,102.23c135.65,-3.91 115,-133.19 184.49,-130.89c78.44,2.59 140.06,60.24 185.51,90.7c28,18.76 49.32,26.8 79.17,42.32c36.23,18.83 85.38,46.12 136.44,43.88c143.14,-6.28 43,-77 82.47,-147.09c26.74,-47.46 109.57,-81.57 137.25,-65.57c53.49,30.84 -79.4,145.3 -27.05,161.73c59.15,18.56 126.82,6.2 241,-4.76c147.74,-14.71 -1,-101.85 25.62,-131.69c14.79,-16.54 92.33,-30.17 151.79,-30.92c35.34,-0.42 64.15,3.16 69.14,14.15c13.51,29.78 -114.32,143 -39.28,159.12c74.81,16 108.55,-36.1 168.38,-31.57c72.7,5.5 96.32,-59.49 145.22,-58.45c18.32,0.36 39.32,-6.62 60,-13.59c34.71,-11.79 65.11,-27.19 81,-11.12c12.17,12.33 25.81,35.08 45.68,59.41c21.1,25.84 42.29,49.9 61.93,53.92" class="cls-97"/>
  <path id="svg_101" stroke="url(#Unbenannter_Verlauf_94)" stroke-width="0.75px" stroke-miterlimit="10" fill="none" d="m-23.21,245.87c-18.61,39.48 38.54,114.19 180.66,111.9c141.89,-2.28 119.39,-136.93 190,-134.28c76.81,2.89 131.36,53.67 174.24,87c25.24,19.62 45.93,32.33 73.2,48.64c33.8,20.21 78,43.75 128.58,41.6c148.39,-6.29 43.21,-79.06 84.54,-151c27.74,-48.62 114.34,-83.09 142.19,-66.44c54.53,32.58 -85.29,151.19 -31.51,167.41c61.07,18.41 130.77,4.56 248.32,-7.23c152.88,-15.69 -3.54,-106.51 22.71,-138.71c14.1,-17.28 94.48,-32.35 155.89,-33.33c36.48,-0.58 66.19,3.43 71.09,15.36c13.22,32.21 -121.14,152.91 -43.26,170.47c77.67,17.8 112,-33.2 173.48,-34.08c73.54,-1.05 95.19,-66.2 143.37,-64.89c18,0.48 38.78,-6.66 59.2,-13.87c34.45,-12.2 65.61,-27.1 81.12,-8.13c12,14.7 25.74,40.84 44.74,66.45c19.64,26.47 40.42,50.3 61.41,53.64" class="cls-98"/>
  <path id="svg_102" stroke="url(#Unbenannter_Verlauf_95)" stroke-width="0.75px" stroke-miterlimit="10" fill="none" d="m-22.53,242.16c-19.47,41.28 41.24,122.23 189.45,121.57s123.77,-140.83 195.52,-137.66c75.15,3 122.85,47 162.92,83.3c22.62,20.49 42.51,37.89 67.24,55c31.31,21.63 70.54,41.43 120.72,39.33c153.66,-6.12 43.59,-81.06 86.62,-155c28.84,-49.7 119.06,-84.62 147.13,-67.29c55.55,34.34 -91.16,157 -36,173.08c63,18.19 134.72,2.92 255.63,-9.7c158,-16.67 -5.92,-111.16 19.81,-145.72c13.45,-18.06 96.61,-34.52 160,-35.75c37.62,-0.73 68.23,3.71 73,16.57c13,34.65 -127.9,162.6 -47.23,181.83s115.72,-33.35 178.61,-36.56c74.26,-3.81 94.07,-72.91 141.53,-71.32c17.66,0.59 38.24,-6.72 58.44,-14.16c34.17,-12.62 66.13,-26.93 81.25,-5.14c11.89,17.13 25.74,46.6 43.81,73.49c18.21,27.11 38.54,50.71 60.87,53.37" class="cls-99"/>
  <path id="svg_103" stroke="url(#Unbenannter_Verlauf_96)" stroke-width="0.75px" stroke-miterlimit="10" fill="none" d="m-21.86,238.46c-20.3,43.07 43.93,130.26 198.26,131.23s128.14,-144.47 201,-141c165.11,7.75 166.81,184.2 325.73,178s44,-83.05 88.7,-158.91c29.95,-50.81 123.86,-86.15 152.08,-68.14c56.56,36.1 -97.07,163 -40.43,178.76c64.9,18.11 138.67,1.27 262.94,-12.17c163.15,-17.65 -8.2,-115.83 16.9,-152.74c20.47,-30.09 226.4,-57.44 239.06,-20.38s-134.64,172.18 -51.18,193.05s119.31,-33.47 183.67,-39.09c75,-6.56 92.94,-79.63 139.69,-77.76s115.63,-55.6 139,-16.61s55.53,129.63 103.22,133.63" class="cls-100"/>
 </g>
</svg>
